<?xml version="1.0" standalone="no"?>
<!DOCTYPE svg PUBLIC "-//W3C//DTD SVG 20010904//EN"
 "http://www.w3.org/TR/2001/REC-SVG-20010904/DTD/svg10.dtd">
<svg version="1.0" xmlns="http://www.w3.org/2000/svg"
 width="600.000000pt" height="600.000000pt" viewBox="0 0 600.000000 600.000000"
 preserveAspectRatio="xMidYMid meet">
<metadata>
Created by potrace 1.11, written by Peter Selinger 2001-2013
</metadata>
<g transform="translate(0.000000,600.000000) scale(0.100000,-0.100000)"
fill="#000000" stroke="none">
<path d="M1235 4298 c-31 -18 -44 -40 -45 -74 0 -41 29 -66 71 -62 41 4 54 35
17 40 -12 2 -24 10 -26 19 -4 23 25 49 46 42 55 -19 68 -73 29 -119 -38 -43
-101 -43 -292 1 -195 45 -320 55 -392 31 -140 -47 -163 -203 -39 -269 34 -18
57 -22 136 -22 100 0 150 17 150 50 0 19 -28 19 -73 0 -48 -20 -103 -19 -153
4 -76 34 -95 95 -48 150 49 58 130 63 322 20 92 -20 101 -24 88 -38 -28 -31
-38 -78 -51 -250 -17 -208 -36 -263 -112 -311 -140 -89 -374 -52 -413 65 -23
70 40 155 143 189 60 20 106 20 155 0 66 -26 73 -78 17 -122 -15 -12 -42 -24
-60 -28 -36 -6 -105 11 -105 27 0 6 -12 9 -27 7 -20 -2 -29 -9 -31 -26 -5 -34
54 -55 138 -50 112 6 185 60 185 138 0 79 -72 116 -206 107 -93 -6 -172 -40
-223 -97 -35 -39 -36 -42 -36 -120 0 -73 2 -83 25 -106 82 -82 326 -100 456
-33 49 25 113 99 128 149 6 22 18 117 26 211 12 139 19 178 36 209 l22 39 96
-5 c118 -7 165 6 198 55 25 37 31 107 12 143 -21 40 -119 62 -164 36z"/>
<path d="M2027 4022 c-20 -22 -57 -125 -57 -159 0 -12 -5 -23 -11 -23 -7 0 -8
-14 -4 -40 8 -47 -8 -122 -40 -196 -27 -62 -40 -72 -55 -43 -9 16 -8 32 4 70
13 39 14 58 6 89 -12 45 -33 60 -86 60 -32 0 -44 -7 -81 -46 -24 -26 -43 -52
-43 -58 0 -20 -58 -134 -79 -155 -12 -12 -29 -21 -38 -21 -13 0 -9 8 15 31 40
39 56 89 49 152 -12 98 -89 130 -162 66 l-35 -31 0 37 c0 32 -3 36 -22 33 -20
-3 -23 -10 -26 -51 -3 -42 -6 -47 -22 -42 -15 5 -22 -5 -40 -52 -26 -71 -55
-119 -76 -127 -11 -4 -21 6 -34 37 -30 67 -35 157 -14 272 25 139 24 159 -3
163 -34 5 -54 -74 -60 -239 -6 -154 5 -223 42 -263 26 -28 71 -34 106 -16 22
12 60 84 80 150 l14 45 6 -50 c4 -27 14 -104 24 -170 16 -111 15 -175 -1 -232
-6 -20 -3 -23 24 -23 26 0 32 5 43 37 11 35 9 122 -8 232 l-6 44 35 -26 c24
-19 47 -27 73 -27 33 0 45 7 82 46 24 26 43 40 43 32 0 -43 75 -63 119 -32 17
12 26 13 34 5 6 -6 26 -11 44 -11 37 0 68 25 84 68 l10 26 19 -41 c21 -48 44
-63 96 -63 28 0 44 7 68 33 17 18 47 43 68 55 l36 23 7 -33 c11 -55 32 -78 67
-78 18 0 41 9 53 20 20 18 23 19 35 5 15 -18 71 -20 88 -3 9 9 15 9 24 0 17
-17 64 -15 83 4 8 9 23 30 32 47 l16 32 9 -35 c5 -19 17 -41 26 -47 24 -19 70
-16 89 6 16 19 17 19 35 -5 23 -29 72 -32 107 -8 17 12 26 13 34 5 6 -6 26
-11 44 -11 56 0 80 37 120 183 4 15 0 18 -17 15 -16 -2 -28 -19 -46 -63 -14
-33 -31 -66 -38 -74 -12 -11 -16 -10 -26 9 -9 17 -8 32 4 71 13 39 14 58 6 89
-12 45 -33 60 -86 60 -52 0 -104 -55 -126 -136 -20 -70 -40 -100 -58 -89 -13
8 -9 145 6 193 6 21 4 23 -22 20 -26 -3 -35 -14 -81 -108 -29 -58 -57 -106
-63 -108 -15 -5 -12 43 5 85 21 49 19 55 -16 51 -27 -3 -33 -10 -57 -67 -15
-35 -33 -66 -39 -68 -24 -8 -31 40 -16 104 17 68 12 96 -14 91 -24 -4 -53 -65
-53 -111 0 -42 -28 -99 -45 -94 -29 10 -29 164 0 230 7 16 4 18 -21 15 -25 -2
-31 -10 -44 -49 -9 -26 -29 -66 -45 -90 l-30 -44 -5 47 c-10 83 -59 128 -140
128 l-45 0 35 18 c44 22 70 67 77 134 7 72 -8 108 -45 108 -16 0 -36 -8 -45
-18z m16 -149 c-25 -54 -30 -18 -6 55 l18 57 3 -37 c2 -21 -5 -54 -15 -75z
m30 -144 c39 -20 57 -51 57 -101 0 -52 -10 -59 -53 -37 -48 25 -67 51 -67 94
0 57 16 68 63 44z m-544 -12 c31 -38 20 -133 -20 -160 -15 -11 -27 -12 -54 -3
-31 10 -35 15 -35 45 0 37 30 93 63 116 26 18 32 19 46 2z m280 -1 c9 -10 9
-20 3 -33 -6 -10 -13 -40 -17 -67 -9 -55 -38 -94 -59 -76 -33 27 -24 124 17
168 24 26 40 28 56 8z m1130 0 c9 -10 9 -20 3 -33 -6 -10 -13 -40 -17 -67 -9
-55 -38 -94 -59 -76 -33 27 -24 124 17 168 24 26 40 28 56 8z m-858 -184 c-7
-2 -18 1 -23 6 -8 8 -4 9 13 5 13 -4 18 -8 10 -11z"/>
<path d="M5267 4022 c-20 -22 -57 -125 -57 -159 0 -12 -4 -23 -8 -23 -13 0 -7
-220 7 -269 18 -62 50 -91 101 -91 34 0 48 6 73 32 18 18 50 45 73 59 36 24
74 79 74 108 0 27 -39 8 -66 -31 l-29 -43 -5 47 c-10 83 -59 128 -140 128
l-45 0 35 18 c44 22 70 67 77 134 7 72 -8 108 -45 108 -16 0 -36 -8 -45 -18z
m16 -149 c-25 -54 -30 -18 -6 55 l18 57 3 -37 c2 -21 -5 -54 -15 -75z m30
-144 c39 -20 57 -51 57 -101 0 -52 -10 -59 -53 -37 -48 25 -67 51 -67 94 0 57
16 68 63 44z m8 -197 c-7 -2 -18 1 -23 6 -8 8 -4 9 13 5 13 -4 18 -8 10 -11z"/>
<path d="M3534 3778 c4 -13 9 -45 11 -73 3 -37 3 -42 -3 -20 -20 72 -46 95
-109 95 -59 0 -100 -31 -133 -103 -35 -72 -39 -117 -12 -117 12 0 23 16 36 52
19 55 73 118 100 118 20 0 56 -35 56 -55 0 -8 -7 -15 -15 -15 -8 0 -15 -7 -15
-15 0 -9 7 -18 15 -21 8 -4 15 -15 15 -25 0 -25 -54 -84 -68 -75 -19 11 -14
48 9 72 12 12 18 27 14 33 -11 19 -53 12 -69 -11 -21 -29 -21 -102 0 -122 19
-19 70 -20 102 -2 28 15 61 64 63 91 1 15 2 16 6 4 2 -9 -5 -40 -16 -69 -22
-57 -20 -70 9 -70 25 0 49 37 58 91 l8 44 13 -37 c7 -21 22 -45 34 -53 47 -33
149 -7 177 44 13 26 30 27 30 3 0 -56 72 -82 115 -42 20 18 23 19 35 5 17 -20
73 -19 92 3 9 9 24 33 34 53 61 119 100 166 128 156 42 -16 1 -124 -54 -147
-39 -16 -41 -50 -4 -50 14 0 37 9 51 20 35 28 74 6 88 -51 6 -25 5 -26 -65
-36 -125 -20 -227 -84 -280 -177 -36 -61 -39 -117 -10 -146 16 -16 33 -20 88
-20 88 0 171 38 229 104 38 43 44 46 64 36 13 -7 45 -10 76 -8 89 8 126 64 89
136 -14 28 -81 72 -109 72 -10 0 -16 15 -21 50 -7 55 -35 90 -72 90 -22 0 -22
1 -8 28 47 91 8 165 -78 147 -48 -11 -119 -81 -145 -143 -26 -66 -39 -80 -54
-65 -15 15 -14 46 1 116 9 42 10 61 2 69 -28 28 -72 -37 -72 -108 0 -39 -28
-96 -45 -91 -29 10 -29 165 -1 230 7 14 3 17 -18 17 -19 0 -29 -7 -38 -27 -67
-163 -114 -233 -154 -233 -20 0 -54 37 -54 59 0 10 9 21 20 24 24 6 26 29 5
47 -8 7 -15 18 -15 24 0 19 47 59 59 51 16 -9 13 -51 -4 -65 -8 -7 -15 -23
-15 -36 0 -20 5 -24 30 -24 37 0 52 26 53 91 1 62 -14 79 -70 79 -37 0 -50 -5
-72 -29 -15 -16 -32 -45 -38 -63 -11 -32 -11 -31 -12 24 -1 76 -7 88 -43 88
-27 0 -30 -3 -24 -22z m790 -390 c-15 -50 -56 -119 -90 -154 -62 -61 -164 -99
-203 -75 -33 21 22 133 89 183 39 28 141 67 178 68 30 0 33 -2 26 -22z m133
-10 c33 -30 35 -55 6 -78 -27 -21 -68 -26 -91 -11 -11 7 -11 15 2 46 9 20 16
46 16 57 0 15 5 18 23 13 12 -4 32 -16 44 -27z"/>
<path d="M4714 3753 c-9 -21 -20 -49 -26 -63 -5 -14 -20 -50 -32 -80 -30 -78
-51 -74 -51 10 0 36 4 80 9 98 8 33 7 33 -21 30 -23 -2 -30 -10 -41 -45 -12
-38 -16 -41 -53 -45 -42 -4 -40 -7 -23 53 5 18 2 20 -27 17 -31 -3 -34 -6 -42
-48 -8 -46 -3 -173 9 -204 4 -10 18 -16 36 -16 26 0 29 3 24 23 -3 13 -8 49
-12 80 -7 56 -6 57 19 57 42 0 57 -10 57 -40 0 -46 17 -79 45 -86 40 -10 73 4
91 39 l17 32 8 -28 c4 -16 13 -35 20 -43 17 -21 69 -17 94 6 20 18 23 19 35 5
21 -25 75 -19 99 11 18 23 61 139 61 165 0 17 -41 9 -47 -8 -18 -54 -53 -123
-63 -123 -22 0 -28 45 -13 107 17 68 12 96 -14 91 -24 -4 -53 -65 -53 -111 0
-42 -28 -99 -45 -94 -29 10 -29 165 -1 230 7 14 3 17 -18 17 -22 0 -30 -7 -42
-37z"/>
<path d="M1525 2787 c-85 -33 -161 -103 -196 -180 -21 -48 -25 -142 -7 -182
22 -49 99 -69 165 -44 75 28 143 140 129 214 -16 83 -133 88 -195 9 -50 -64
-7 -88 52 -29 40 40 62 44 77 14 33 -61 -67 -182 -136 -165 -34 9 -57 59 -49
105 14 78 86 164 169 202 56 25 81 24 105 -7 27 -34 26 -58 -4 -174 -14 -52
-25 -115 -25 -140 0 -89 60 -150 148 -150 60 0 100 20 152 76 l46 49 -4 -98
c-4 -88 -2 -102 21 -150 30 -59 68 -87 120 -87 48 0 83 32 106 100 12 34 20
46 20 32 1 -36 44 -72 86 -72 49 0 90 23 125 71 l29 40 10 -38 c28 -108 35
-267 15 -340 -6 -20 -3 -23 24 -23 26 0 32 5 43 37 11 35 9 122 -8 232 l-6 44
35 -26 c62 -48 137 -28 177 47 16 29 31 25 31 -9 0 -41 11 -55 42 -55 26 0 29
3 24 23 -3 13 -8 49 -12 80 l-7 57 29 0 c42 0 50 -9 57 -60 3 -25 13 -50 23
-57 29 -21 73 -16 97 11 l21 24 27 -29 c21 -23 36 -29 69 -29 34 0 48 6 80 38
49 47 95 82 108 82 5 0 17 18 27 40 30 66 85 115 85 76 0 -8 -16 -47 -35 -87
-40 -85 -42 -102 -15 -129 33 -33 83 -26 130 16 22 20 40 31 40 25 0 -7 11
-23 25 -36 39 -40 96 -35 145 13 22 20 53 47 69 59 l29 23 10 -43 c29 -117 36
-270 16 -344 -6 -20 -3 -23 24 -23 26 0 32 5 43 37 11 35 9 122 -8 232 l-6 44
35 -26 c64 -49 129 -31 179 50 l23 37 7 -28 c4 -15 13 -34 20 -42 17 -21 69
-17 94 6 20 18 23 19 35 5 7 -8 28 -15 46 -15 25 0 39 7 55 29 l22 30 16 -32
c21 -41 71 -50 106 -17 19 18 23 19 35 5 21 -25 75 -19 99 11 18 23 61 139 61
165 0 17 -41 9 -47 -8 -18 -54 -53 -123 -63 -123 -22 0 -28 45 -13 107 17 68
12 96 -14 91 -24 -4 -53 -65 -53 -111 0 -42 -28 -99 -45 -94 -29 10 -29 164 0
230 7 16 4 18 -21 15 -24 -2 -32 -10 -45 -48 -39 -111 -76 -190 -89 -190 -22
0 -28 45 -13 107 17 68 12 96 -14 91 -24 -4 -53 -65 -53 -111 0 -42 -28 -99
-45 -94 -29 10 -29 165 -1 230 7 14 3 17 -18 17 -22 0 -30 -7 -42 -37 -48
-120 -92 -211 -113 -232 -12 -12 -29 -21 -38 -21 -13 0 -9 8 15 31 40 39 56
89 49 152 -12 98 -89 130 -162 66 l-35 -31 0 37 c0 32 -3 36 -22 33 -18 -2
-24 -10 -26 -38 -3 -41 -34 -111 -56 -129 -14 -12 -16 -10 -16 10 0 43 -21
101 -46 126 -19 19 -33 24 -66 21 -46 -3 -44 0 -98 -120 -31 -67 -78 -128 -99
-128 -18 0 -13 25 24 101 39 81 43 110 19 133 -18 19 -66 21 -97 5 -31 -16
-93 -82 -101 -106 -4 -11 -15 -28 -26 -38 -19 -18 -20 -17 -20 6 0 43 -21 101
-46 126 -19 19 -33 24 -67 21 -37 -3 -44 -7 -65 -43 -12 -22 -25 -47 -28 -55
-32 -88 -51 -125 -64 -125 -12 0 -15 14 -15 65 0 36 4 80 9 98 8 33 7 33 -21
30 -23 -2 -30 -10 -41 -45 -12 -38 -16 -41 -53 -45 -35 -3 -38 -2 -33 17 3 11
8 28 11 38 4 15 0 18 -27 15 -34 -3 -39 -10 -88 -120 -33 -72 -62 -108 -89
-108 -13 0 -9 8 15 31 40 39 56 89 49 152 -12 98 -89 130 -162 66 l-35 -31 0
37 c0 32 -3 36 -22 33 -19 -2 -24 -10 -26 -43 -2 -22 -7 -42 -10 -45 -4 -3
-18 -29 -32 -58 -23 -50 -78 -112 -100 -112 -15 0 -50 38 -50 55 0 10 10 15
34 15 59 0 105 67 89 131 -9 38 -23 49 -58 49 -42 0 -90 -39 -105 -85 -8 -23
-18 -35 -29 -35 -14 0 -20 -10 -24 -38 -9 -52 -58 -146 -79 -150 -25 -5 -65
39 -77 84 -31 112 18 352 99 486 47 79 51 108 16 108 -36 0 -46 -14 -120 -163
-99 -201 -169 -288 -245 -303 -25 -5 -36 -1 -61 24 -25 26 -30 38 -30 79 0 26
9 80 20 118 35 124 21 228 -36 254 -31 14 -100 13 -139 -2z m809 -471 c-9 -36
-30 -52 -49 -36 -16 13 -8 37 23 73 14 15 17 16 24 3 5 -8 6 -26 2 -40z m295
31 c31 -38 20 -133 -20 -160 -15 -11 -27 -12 -54 -3 -31 10 -35 15 -35 45 0
37 30 93 63 116 26 18 32 19 46 2z m560 -25 c11 -21 25 -92 18 -92 -36 0 -81
66 -71 104 5 21 9 24 25 16 10 -6 23 -18 28 -28z m510 0 c11 -21 25 -92 18
-92 -36 0 -81 66 -71 104 5 21 9 24 25 16 10 -6 23 -18 28 -28z m310 25 c31
-38 20 -133 -20 -160 -15 -11 -27 -12 -54 -3 -31 10 -35 15 -35 45 0 37 30 93
63 116 26 18 32 19 46 2z m-841 -157 c18 0 14 -20 -5 -27 -18 -7 -53 29 -53
55 0 12 5 11 23 -6 13 -12 29 -22 35 -22z m510 0 c18 0 14 -20 -5 -27 -18 -7
-53 29 -53 55 0 12 5 11 23 -6 13 -12 29 -22 35 -22z"/>
</g>
</svg>
