<?xml version="1.0" standalone="no"?>
<!DOCTYPE svg PUBLIC "-//W3C//DTD SVG 1.1//EN" "http://www.w3.org/Graphics/SVG/1.1/DTD/svg11.dtd" >
<svg xmlns="http://www.w3.org/2000/svg">
<metadata></metadata>
<defs>
<font id="teddy_bearregular" horiz-adv-x="776" >
<font-face units-per-em="2048" ascent="1638" descent="-410" />
<missing-glyph horiz-adv-x="669" />
<glyph horiz-adv-x="0" />
<glyph unicode="&#xd;" horiz-adv-x="430" />
<glyph unicode=" "  horiz-adv-x="669" />
<glyph unicode="&#x09;" horiz-adv-x="669" />
<glyph unicode="&#xa0;" horiz-adv-x="669" />
<glyph unicode="!" horiz-adv-x="536" d="M82 8q0 47 36 79t89 32q45 0 70.5 -23.5t25.5 -62.5q0 -47 -40 -79t-89 -32q-45 0 -68.5 22.5t-23.5 63.5zM174 375q10 53 19.5 121.5t13.5 142.5q6 141 -1 268t-15.5 247t-15.5 236.5t-1 237.5q4 141 42 207t93 61q25 -2 42.5 -18t21.5 -45q-33 -23 -54.5 -80 t-25.5 -141q-4 -115 2 -224.5t13 -223t12 -234.5t-1 -256q-4 -84 -10 -140.5t-20 -113.5q-16 -66 -70 -66q-29 0 -45 21z" />
<glyph unicode="&#x22;" horiz-adv-x="557" d="M82 1694q6 18 21.5 30.5t33.5 12.5q37 0 55.5 -38t18.5 -136q0 -43 -2 -89.5t-4 -88.5t-1 -77.5t5 -60.5q-12 -16 -37 -16q-23 0 -38 16.5t-19 69.5q-4 49 -4 119.5t-5 122.5q-2 35 -7 67.5t-17 67.5zM313 1714q16 39 58 39q63 0 63 -119q0 -43 -5 -94t-11 -104.5 t-10 -105.5t-2 -95q-12 -12 -35 -12t-37.5 17t-14.5 65q0 76 4.5 151.5t4.5 147.5q0 59 -15 110z" />
<glyph unicode="#" horiz-adv-x="1218" d="M41 289q0 33 27 47q51 -20 133 -25q23 66 48 137.5t52 145.5q-16 -2 -29.5 -2h-27.5q-72 0 -106 19.5t-34 47.5q0 31 29 46q18 -8 51 -12.5t68 -4.5q39 0 82 6q43 127 68.5 243t13.5 202q18 16 40.5 21t42 -2t33 -25.5t13.5 -51.5q0 -72 -25.5 -167t-62.5 -199 q63 14 127.5 30.5t128.5 32.5q35 104 64.5 204.5t49 187.5t27.5 158t-2 118q18 18 40.5 24.5t43 0t34 -27t13.5 -54.5q0 -96 -43 -250t-102 -334q82 16 145 16q84 0 119 -22.5t35 -55.5q0 -20 -11.5 -34.5t-27.5 -20.5q-33 23 -133 23q-39 0 -80 -5.5t-84 -13.5l-103 -305 q51 10 99.5 16.5t93.5 6.5q104 0 104 -72q0 -35 -28 -49q-29 12 -78 12q-51 0 -107.5 -8t-119.5 -19q-51 -166 -78 -300t-6 -203q-16 -25 -54 -25q-31 0 -53 27.5t-22 87.5q0 63 24.5 164.5t65.5 224.5q-61 -10 -124 -20.5t-128 -14.5q-23 -84 -31 -153.5t8 -116.5 q-18 -27 -53 -27q-31 0 -51.5 26.5t-20.5 92.5q0 74 31 176q-63 4 -96 25.5t-33 50.5zM317 315q66 6 129.5 18.5t126.5 26.5l105 308q-66 -16 -130.5 -31.5t-127.5 -26.5q-27 -76 -53.5 -149.5t-49.5 -145.5z" />
<glyph unicode="$" horiz-adv-x="1521" d="M61 246q0 53 36 100t94.5 82t131 55.5t144.5 20.5q76 0 76 -39q0 -23 -15 -37q-86 -2 -151.5 -18.5t-109.5 -41t-67.5 -53t-23.5 -55.5q0 -29 23.5 -56.5t74 -48t127 -32.5t183.5 -12h34q-2 117 1.5 231.5t9.5 230.5q-250 12 -361.5 60.5t-111.5 144.5q0 53 37.5 108.5 t107.5 104.5t167 88t216 62q8 70 20.5 136t23.5 121.5t22.5 97.5t17.5 63q25 80 78 79q33 0 47 -30q-12 -25 -24.5 -71t-25 -107.5t-24.5 -132t-22 -140.5q57 6 125 6q180 0 274 -52t94 -128q0 -39 -24.5 -75t-68.5 -63.5t-102.5 -44t-125.5 -16.5q-47 0 -63.5 23.5 t3.5 52.5q49 -2 95.5 6t81 23.5t55 35t20.5 42.5q0 41 -67.5 67.5t-198.5 26.5q-29 0 -57.5 -1t-55.5 -3q-25 -195 -37 -387q98 -2 201 -6.5t194 -15.5t163.5 -33.5t113.5 -61.5q25 -25 34 -51.5t9 -61.5q0 -74 -56 -144.5t-154.5 -128.5t-230.5 -100t-284 -57 q4 -98 12.5 -169.5t18.5 -121t23.5 -77t27.5 -37.5q-4 -29 -20.5 -44.5t-40.5 -17.5q-31 0 -55.5 17.5t-41 67.5t-26.5 140.5t-12 233.5h-41q-139 0 -236.5 19.5t-161 52t-92.5 78t-29 94.5zM281 795q0 -35 27.5 -56.5t74.5 -35t112.5 -20.5t139.5 -9q8 92 16 183t19 185 q-193 -35 -291 -108t-98 -139zM730 343.5q-3 -112.5 1 -226.5q141 12 253 46t189.5 78t119.5 94t42 95q0 47 -51 72.5t-135 39t-191.5 18.5t-218.5 9q-6 -113 -9 -225.5z" />
<glyph unicode="%" horiz-adv-x="1710" d="M82 1006q0 72 15.5 147.5t44 146t67.5 129t86 93.5q20 16 40.5 21t36 1t26 -16.5t8.5 -30.5q-100 -84 -154.5 -208t-54.5 -265q0 -131 50 -192.5t130 -61.5q59 0 106 36t79 91t49.5 122.5t17.5 133.5q0 68 -19 117q-66 27 -104.5 76t-38.5 96t43 47q51 0 96 -38t76 -103 q43 -8 102.5 -7.5t126 11t133 33t123.5 57.5q92 113 149.5 161t92.5 48q14 0 22.5 -10.5t6.5 -29t-17.5 -45t-48.5 -59.5q-55 -55 -115 -94q-166 -215 -291.5 -447.5t-202.5 -444.5t-100.5 -388t17.5 -278q-23 -37 -64 -37q-39 0 -62.5 43t-23.5 147q0 96 35 242.5 t103.5 322t170 366.5t236.5 378q-86 -33 -176 -48.5t-186 -17.5q4 -25 7 -50t3 -54q0 -100 -29.5 -190.5t-81 -158t-119 -106.5t-141.5 -39q-121 0 -195.5 93.5t-74.5 259.5zM905 281q0 68 10.5 138t31 137t49 126t65.5 104q29 39 64.5 34t41.5 -38q-16 -18 -31.5 -40.5 t-29.5 -47.5q53 29 109.5 45.5t115.5 16.5q133 0 215 -83t82 -239q0 -104 -31.5 -202.5t-86 -173t-128 -121t-155.5 -46.5q-68 0 -126.5 27t-102.5 77t-68.5 121.5t-24.5 164.5zM1010 319q0 -156 62.5 -236.5t166.5 -80.5q59 0 111.5 33t92.5 89t62.5 129t22.5 153 q0 123 -60.5 184t-169.5 61q-66 0 -127 -18.5t-114 -48.5q-23 -66 -35 -134t-12 -131z" />
<glyph unicode="&#x26;" horiz-adv-x="2553" d="M61 88q0 90 46.5 180t128 174t195.5 158t247 129q-131 33 -199.5 99.5t-68.5 158.5q0 104 80.5 212t233.5 197t372 145t495 56q37 0 70 -2t63 -6q33 14 58.5 9t25.5 -23q111 -29 160 -79t49 -103q0 -59 -37.5 -107.5t-99 -84.5t-137.5 -55.5t-152 -19.5q-80 0 -125 30 t-45 87q0 53 47.5 124t124.5 132h-12q-254 0 -448.5 -47t-326.5 -119.5t-199.5 -159t-67.5 -163.5q0 -96 87 -150.5t230 -66.5q111 33 226.5 51t234.5 20q82 0 114.5 -14t32.5 -33q0 -20 -36.5 -40.5t-104.5 -38t-164 -28t-213 -10.5h-61q-137 -39 -263 -105.5t-221.5 -148 t-151.5 -171t-56 -173.5q0 -139 119.5 -219t373.5 -80q186 0 367.5 56.5t346.5 156t307 238.5t251 305l10 41q-78 -14 -154.5 -26.5t-164.5 -12.5q-27 0 -55.5 3t-52 11.5t-39 23.5t-15.5 40q0 39 29 49q23 -10 53 -16t78 -6q100 0 184 15t166 32q29 92 64.5 151.5 t66.5 59.5q14 0 23.5 -17.5t9.5 -60.5q0 -25 -4.5 -51.5t-10.5 -55.5q35 4 73 8.5t79 4.5q106 0 150 -28t44 -62q0 -23 -13 -41.5t-32 -22.5q-18 16 -68 25.5t-116 9.5q-43 0 -82 -3t-76 -7q-16 -43 -47 -97q-4 -41 -6 -85t-2 -87q0 -104 10.5 -197.5t26.5 -164t35.5 -117.5 t40.5 -59q-4 -29 -23.5 -49.5t-54.5 -20.5q-33 0 -59.5 26.5t-43.5 86.5q-18 66 -32.5 181.5t-14.5 291.5v10q-98 -125 -232 -242.5t-295 -210t-345 -148.5t-383 -56q-166 0 -282.5 30.5t-191.5 84t-110 128t-35 160.5zM1538 1268q0 -49 74 -49q53 0 102 12t87 33.5t60.5 48 t22.5 55.5q0 43 -47 74t-131 47q-86 -68 -127 -127t-41 -94z" />
<glyph unicode="'" horiz-adv-x="329" d="M82 1696q8 18 24.5 29.5t34.5 11.5q66 0 66 -131q0 -45 -4 -97.5t-9.5 -101.5t-7.5 -92t2 -70q-14 -14 -36 -14q-23 0 -39.5 18.5t-16.5 71.5q0 49 2 116.5t2 123.5q0 37 -4 68.5t-14 66.5z" />
<glyph unicode="(" horiz-adv-x="665" d="M207 700q2 342 80 635t213 502q59 90 110 90q43 0 49 -41q-74 -86 -137 -211t-108 -276.5t-71 -321.5t-26 -348q0 -379 97.5 -621.5t251.5 -353.5q-2 -29 -19.5 -45t-44.5 -16q-53 0 -115 67q-137 152 -209.5 393.5t-70.5 546.5z" />
<glyph unicode=")" horiz-adv-x="663" d="M0 1866q2 29 18.5 45t41 16t56 -16.5t62.5 -50.5q137 -154 209 -395.5t72 -546.5q0 -147 -17.5 -298t-54.5 -297.5t-92 -282.5t-129 -257q-55 -90 -111 -90q-43 0 -49 41q74 86 137.5 211t108.5 276.5t70.5 321.5t25.5 348q0 170 -22.5 320.5t-66.5 275.5t-108.5 221.5 t-150.5 157.5z" />
<glyph unicode="*" horiz-adv-x="933" d="M123 1190q0 16 23.5 27.5t93.5 11.5q45 0 101 -7.5t103 -17.5q-8 43 -12 92.5t-4 102.5q0 129 24.5 203.5t53.5 74.5q37 0 37 -110q0 -63 -7.5 -135t-19.5 -144q2 -16 3 -30.5t5 -28.5q70 55 137.5 91t114.5 38q35 0 35 -27q0 -33 -68.5 -81t-197.5 -95q35 -98 86 -151.5 t98 -63.5q6 -35 -10.5 -56.5t-48.5 -21.5q-49 0 -106.5 58.5t-94.5 177.5q-23 -68 -48.5 -125.5t-51 -100.5t-50 -67.5t-45.5 -24.5q-29 0 -28 39q0 47 36.5 124t120.5 181q-49 -6 -98 -3t-90 12.5t-66.5 23.5t-25.5 33z" />
<glyph unicode="+" horiz-adv-x="1054" d="M123 547q0 39 29 49q18 -8 56 -12t73 -4q47 0 97 4t101 8q4 53 7 105.5t3 109.5q0 35 -3 65.5t-11 53.5q8 12 22.5 21t30.5 9q33 0 50.5 -28.5t17.5 -100.5q0 -59 -2 -114.5t-6 -108.5q49 4 96 8t94 4q84 0 119 -19t35 -54q0 -41 -33 -51q-45 23 -127 22q-47 0 -95 -4 t-95 -8q-2 -33 -3 -66t-1 -63q0 -150 28 -187q-6 -16 -20.5 -29.5t-36.5 -13.5q-20 0 -35.5 8.5t-26 30t-15.5 58t-5 96.5q0 39 1 77t3 76q-53 -4 -105.5 -8t-107.5 -4q-74 0 -104.5 20.5t-30.5 49.5z" />
<glyph unicode="," horiz-adv-x="344" d="M20 -377q41 41 68 111.5t27 136.5q0 59 -23.5 95t-64.5 46q0 37 20.5 60.5t56.5 23.5q45 0 81 -49t36 -137q0 -78 -30.5 -159t-84.5 -136q-27 -29 -54 -27t-32 35z" />
<glyph unicode="-" d="M123 502q0 37 64.5 63.5t222.5 26.5q203 0 202 -80q0 -18 -11.5 -33.5t-31.5 -21.5q-29 12 -80 19t-112 7q-72 0 -125 -8t-90 -18q-39 10 -39 45z" />
<glyph unicode="." horiz-adv-x="346" d="M20 16q0 47 28 79t69 32t63.5 -27.5t22.5 -72.5q0 -47 -28 -78t-69 -31q-35 0 -60.5 26.5t-25.5 71.5z" />
<glyph unicode="/" horiz-adv-x="901" d="M25 -104q0 78 33.5 190.5t89 246.5t125 283.5t141 304t139.5 307t119 293t79.5 261.5t20.5 211q18 23 49 22q59 0 60 -94q0 -113 -54.5 -276.5t-136.5 -353t-177 -391.5t-177 -387t-136.5 -343t-54.5 -260q0 -43 5.5 -73.5t19.5 -53.5q-8 -16 -24.5 -25.5t-34.5 -9.5 q-37 0 -61.5 34t-24.5 114z" />
<glyph unicode="0" horiz-adv-x="1693" d="M29 1272q0 23 14 50.5t49 59.5q100 82 238 142q25 39 47 54t43 15q23 0 33 -22q92 29 186 44t190 15q188 0 334 -61.5t246 -170t151.5 -257t51.5 -324.5q0 -221 -83 -398t-216 -303t-301 -193.5t-336 -67.5q-281 0 -437.5 182t-156.5 532q0 180 41 391t125 404 q-57 -35 -101 -71.5t-73 -73.5q-45 0 -45 53zM205 606q0 -326 132 -481.5t361 -155.5q160 0 303.5 64.5t251 177.5t171 264.5t63.5 323.5q0 156 -42 287t-128 226t-215 149.5t-303 54.5q-113 0 -217.5 -23t-196.5 -59q-49 -102 -84 -213t-56.5 -218.5t-30.5 -209t-9 -187.5z " />
<glyph unicode="1" horiz-adv-x="792" d="M-20 817q0 25 11 48.5t36 35.5q25 -18 74 -8t114.5 57t143 134t157.5 223q33 145 69 235t70 90q35 0 35 -55q0 -47 -20.5 -120t-61.5 -159q-29 -172 -43 -363.5t-14 -371.5q0 -242 23.5 -396.5t54.5 -189.5q-8 -41 -31 -61t-49 -20q-31 0 -54.5 20.5t-39 83.5t-23.5 178 t-8 303q0 150 14.5 308.5t36.5 306.5q-125 -195 -232.5 -273t-187.5 -78q-35 0 -55 18.5t-20 53.5z" />
<glyph unicode="2" horiz-adv-x="1601" d="M61 868q0 131 75 264.5t204 241t303 174t375 66.5q238 0 351.5 -107.5t113.5 -292.5q0 -96 -36 -201.5t-98.5 -212t-146.5 -209t-181 -193.5t-203.5 -166.5t-211.5 -127.5q70 -20 137.5 -43.5t138 -43t145.5 -32t159 -12.5q70 0 116 15.5t72.5 42t31.5 60.5t-9 69 q10 18 30.5 30.5t45.5 12.5q33 0 50 -22.5t17 -57.5q0 -53 -26.5 -100.5t-78 -83t-123 -56t-163.5 -20.5q-100 0 -192.5 22.5t-178.5 52t-164.5 60.5t-152.5 47q-104 -35 -195 -35q-84 0 -120.5 21.5t-36.5 48.5q0 29 36.5 53.5t120.5 24.5q92 0 180 -17q98 33 204 98.5 t206 151.5t191.5 187.5t159 208t107.5 211t40 198.5q0 147 -84 228t-277 81q-195 0 -346 -61.5t-255.5 -151.5t-159 -196.5t-54.5 -194.5q0 -186 221 -186q84 0 168 38t150.5 95t108.5 125.5t42 130.5q0 88 -84 88q-29 0 -68.5 -12.5t-80.5 -36t-77 -57t-58 -76.5 q-6 -6 -21 -6q-31 0 -38 32.5t24 77.5q27 39 67.5 74t87 59.5t96.5 38.5t97 14q82 0 123 -45t41 -127q0 -88 -53.5 -180t-139.5 -166.5t-195.5 -122t-221.5 -47.5q-154 0 -230 72t-76 184z" />
<glyph unicode="3" horiz-adv-x="1753" d="M20 160q0 84 52.5 165t145.5 145.5t222 104t285 39.5q100 0 172 -15t117 -43t66.5 -63.5t21.5 -78.5q0 -61 -42 -121t-116 -107t-173 -75.5t-214 -28.5q-49 0 -93 7t-78 20.5t-54.5 34t-20.5 49.5t22.5 51t61.5 20q12 -31 60.5 -55.5t122.5 -24.5q92 0 167.5 18.5 t128 48.5t81 67.5t28.5 76.5q0 53 -72.5 88t-220.5 35q-123 0 -224 -30.5t-172 -80t-110 -109.5t-39 -118q0 -100 99.5 -164.5t322.5 -64.5q197 0 373 55t309 142.5t212 192.5t79 206q0 70 -40 123t-109.5 88t-165 52t-207.5 17q-47 0 -98.5 -4t-100.5 -12 q-106 -53 -184 -75.5t-125 -22.5q-23 0 -34 9t-11 21q0 39 87 85t243 75q106 45 190 100.5t142.5 115t89 117.5t30.5 112q0 80 -66.5 130t-234.5 50q-156 0 -288 -40t-229 -100.5t-151.5 -130t-54.5 -129.5q0 -53 33 -80.5t113 -27.5q51 0 105 15.5t97 41t71 59t28 68.5 q0 16 -6.5 29.5t-22.5 21.5q10 25 32.5 40.5t53.5 15.5q35 0 52.5 -22.5t17.5 -57.5q0 -53 -39 -107.5t-103.5 -99.5t-148.5 -72.5t-174 -27.5q-104 0 -166 48t-62 132q0 92 74 186t195 170t278.5 124t323.5 48q209 0 307 -72.5t98 -187.5q0 -109 -93 -229.5t-257 -218.5h12 q6 0 13.5 1t17.5 1q139 0 251 -27t188.5 -74t117.5 -114.5t41 -147.5q0 -84 -41 -170t-115.5 -166t-179 -149.5t-230.5 -120.5t-269.5 -81t-294.5 -30q-127 0 -224.5 24t-163 65.5t-99.5 99t-34 125.5z" />
<glyph unicode="4" horiz-adv-x="1519" d="M2 530q141 119 254 245t190.5 243t119.5 215t42 162q0 33 -9 57.5t-32 36.5q10 29 33 48t59 19q39 0 60.5 -31.5t21.5 -90.5q0 -80 -41 -183.5t-113.5 -217t-172 -229.5t-215.5 -220q188 47 406 72.5t425 25.5q12 0 27.5 -1t32.5 -1h34q2 115 11.5 243t24 250.5t31.5 230 t36 181.5q14 53 32.5 75.5t47.5 22.5q35 1 43 -32q-20 -74 -39 -183.5t-33 -239.5t-23.5 -272.5t-9.5 -283.5q143 -16 209 -50t66 -75q0 -37 -28 -57.5t-65 -18.5q-23 55 -182 80q2 -141 8.5 -245.5t17.5 -176.5t26.5 -115t33.5 -63q-6 -35 -27.5 -54.5t-52.5 -19.5 q-33 0 -57.5 24.5t-40.5 97.5t-23.5 208t-7.5 356q-74 6 -166 6q-109 0 -221 -8t-220.5 -22.5t-208 -33t-179.5 -38.5q-72 -20 -100.5 4.5t-24.5 58.5z" />
<glyph unicode="5" horiz-adv-x="1673" d="M61 150q0 94 66 189t176.5 172t257 125t309.5 48q145 0 212 -48t67 -126q0 -59 -40 -112.5t-105.5 -94.5t-147.5 -65.5t-166 -24.5q-68 0 -96.5 15.5t-28.5 41.5q0 20 13 37q88 -14 167.5 -1t141 42t98.5 68t37 78q0 33 -37 59.5t-139 26.5q-127 0 -246 -36t-211 -93.5 t-147.5 -131t-55.5 -149.5q0 -43 18.5 -80t58.5 -64.5t105.5 -43t157.5 -15.5q117 0 231.5 24.5t219 69.5t195 105.5t156 131.5t102 149.5t36.5 158.5q0 68 -26.5 126.5t-85 101.5t-153.5 67.5t-230 24.5q-76 0 -161 -12.5t-173 -34t-176 -51t-168 -66.5q-43 -51 -75 -69.5 t-58 -18.5q-37 0 -37 39q0 23 25.5 56.5t87.5 70.5q57 78 85.5 182t28.5 205q0 96 -27.5 169.5t-82.5 110.5q6 29 21 53.5t48 24.5q23 0 67 -13t109.5 -28.5t154.5 -28t202 -12.5q186 0 307 34t158 83q37 2 55 -16.5t18 -47.5q0 -74 -127 -119.5t-399 -45.5q-94 0 -208 14 t-212 43q18 -41 27.5 -93.5t9.5 -103.5q0 -82 -21.5 -176t-62.5 -172q129 49 293 88t330 39t277.5 -32.5t179 -88t96 -130t28.5 -156.5q0 -152 -93 -289t-246.5 -241.5t-349 -167t-400.5 -62.5q-115 0 -199 21.5t-137 59.5t-79 91t-26 115z" />
<glyph unicode="6" horiz-adv-x="1646" d="M82 518q0 244 73.5 448.5t197.5 352t285 230.5t335 83q80 0 142.5 -14t105.5 -38t65.5 -53.5t22.5 -60.5q0 -39 -32 -55t-67 -8q-20 53 -82.5 87t-166.5 34q-158 0 -297.5 -82t-242 -218.5t-161.5 -313.5t-59 -367v-27q20 80 96 161t191.5 146.5t264 107.5t316.5 42 q125 0 222.5 -30t162 -84t98 -128t33.5 -160q0 -150 -74.5 -280.5t-197.5 -229t-281 -156t-323 -57.5q-133 0 -248 40t-199 123t-132 209t-48 298zM217 365q23 -109 73 -187t117.5 -128t149.5 -73.5t168 -23.5q143 0 276.5 50t234.5 133t161.5 190.5t60.5 222.5 q0 145 -102.5 231t-306.5 86q-160 0 -296.5 -40t-235.5 -99t-155.5 -125.5t-56.5 -122.5q0 -64 74 -82q10 -23 -2 -50.5t-62 -27.5q-29 0 -55.5 11.5t-42.5 34.5z" />
<glyph unicode="7" horiz-adv-x="1318" d="M0 1556q0 35 22.5 51.5t63.5 10.5q29 -51 143.5 -93t325.5 -42q86 0 178 7t181.5 20.5t168 32t140.5 38.5q41 14 66.5 2t29.5 -53q-96 -94 -183 -207t-162 -233.5t-135.5 -246.5t-103.5 -247t-66.5 -231.5t-23.5 -202.5q0 -94 18.5 -136t41.5 -61q-6 -39 -31 -56.5 t-53 -17.5q-51 0 -84 51.5t-33 174.5q0 141 48 315t131 354.5t193.5 354.5t237.5 315q-68 -18 -144.5 -34.5t-156.5 -27t-159 -16.5t-148 -6q-123 0 -217 15.5t-158.5 42t-97.5 59.5t-33 67z" />
<glyph unicode="8" horiz-adv-x="1777" d="M92 213q0 72 29 144.5t97.5 150.5t183 163t284.5 183q-111 41 -183.5 80t-115.5 79t-61.5 82t-18.5 87q0 78 57.5 157.5t152.5 143t220 103.5t260 40q154 0 223.5 -51t69.5 -129q0 -51 -34.5 -104.5t-92 -99.5t-132.5 -81t-154 -47q-55 -10 -83 4.5t-28 38.5q0 18 10 33 q68 2 137.5 25.5t125 59.5t91 78t35.5 79q0 47 -45 70.5t-143 23.5q-121 0 -222.5 -31t-174 -79t-113.5 -107.5t-41 -114.5q0 -33 15.5 -63.5t58.5 -63.5t117.5 -68.5t193.5 -74.5q266 154 399 266.5t129 206.5q10 8 24.5 12t25.5 4q35 0 52 -19.5t17 -52.5 q0 -80 -127 -190.5t-401 -263.5l24 -8q10 -4 23.5 -6.5t26.5 -6.5q195 -55 325.5 -108t209.5 -109.5t113 -119t34 -134.5q0 -104 -76 -202.5t-207 -173t-307 -119.5t-375 -45q-154 0 -271.5 27.5t-197.5 74.5t-120 112.5t-40 143.5zM217 236q0 -121 127 -198t389 -77 q184 0 336 38t260.5 98.5t169 135t60.5 148.5q0 61 -35 111.5t-110 96.5t-194.5 91t-287.5 94q-33 10 -68 19.5t-67 19.5q-164 -92 -275.5 -172t-179.5 -150.5t-96.5 -133t-28.5 -121.5z" />
<glyph unicode="9" horiz-adv-x="1640" d="M61 690q0 113 50.5 225.5t134.5 216t195.5 191.5t236.5 153.5t253 102.5t247 37q102 0 173.5 -25.5t113.5 -67.5t58.5 -97.5t8.5 -114.5q35 -4 44 -33t-13 -82q-100 -248 -151.5 -496.5t-51.5 -463.5q0 -125 25.5 -197t60.5 -88q-4 -35 -27.5 -56.5t-58.5 -21.5 q-29 0 -52.5 16.5t-41 54.5t-26.5 98t-9 148q0 68 6 144t18.5 156.5t30 161.5t41.5 159q-90 -109 -201.5 -196t-229.5 -148t-235 -94t-217 -33q-184 0 -283.5 90t-99.5 260zM186 713q0 -133 71 -195.5t214 -62.5q102 0 223 40t242 110.5t231.5 169.5t190.5 220 q-57 -59 -138 -92t-141 -33q-41 0 -59 17.5t-6 52.5q94 16 167.5 55t125 91.5t77 111.5t25.5 117q0 92 -63.5 141t-210.5 49q-102 0 -212 -33.5t-215.5 -91t-199.5 -135.5t-166 -166t-114 -182t-42 -184z" />
<glyph unicode=":" horiz-adv-x="428" d="M102 16q0 47 29 79t70 32q27 0 55.5 -23.5t28.5 -76.5q0 -47 -28 -78t-69 -31q-35 0 -60.5 26.5t-25.5 71.5zM102 471q0 43 26 73.5t65 30.5t61 -29.5t22 -74.5q0 -49 -24.5 -77.5t-63.5 -28.5q-37 0 -61.5 28.5t-24.5 77.5z" />
<glyph unicode=";" horiz-adv-x="425" d="M102 -375q41 41 68 111.5t27 136.5q0 59 -23.5 95t-64.5 46q0 37 20.5 60.5t56.5 23.5q45 0 81 -49t36 -137q0 -78 -30.5 -159t-84.5 -136q-27 -29 -54.5 -27t-31.5 35zM102 471q0 43 26 73.5t65 30.5t61 -29.5t22 -74.5q0 -49 -24.5 -77.5t-63.5 -28.5q-37 0 -61.5 28.5 t-24.5 77.5z" />
<glyph unicode="&#x3c;" horiz-adv-x="921" d="M123 563q0 29 18 51q92 12 189.5 50t180.5 87.5t140.5 101.5t71.5 93q31 6 53.5 -8t22.5 -47q0 -53 -58 -105q-37 -37 -93 -72.5t-120.5 -66.5t-133 -55.5t-132.5 -38.5q70 -14 141.5 -37.5t136 -52.5t119 -61.5t89.5 -65.5q29 -29 42 -57.5t13 -51.5q0 -35 -24.5 -52 t-57.5 -11q-12 33 -43 70.5t-90.5 79.5t-150.5 83t-222 80q-92 27 -92 86z" />
<glyph unicode="=" horiz-adv-x="968" d="M123 700q0 20 10 35t27 21q18 -10 55 -17.5t100 -7.5q100 0 193.5 14.5t202.5 14.5q80 0 107.5 -19.5t27.5 -48.5q0 -35 -29 -47q-18 8 -51 10t-68 2q-104 0 -206.5 -17t-217.5 -17q-92 0 -121.5 24.5t-29.5 52.5zM147 418q0 37 33 51q18 -10 50 -15t85 -5q51 0 99.5 5 t96.5 11t98 11t106 5q59 0 85.5 -18.5t26.5 -46.5q0 -33 -30 -47q-31 12 -84 12q-55 0 -106.5 -6t-103.5 -13.5t-105.5 -13.5t-112.5 -6q-76 0 -107 21.5t-31 54.5z" />
<glyph unicode="&#x3e;" horiz-adv-x="927" d="M123 201q0 25 12 54.5t51 68.5q37 37 90.5 70.5t116 64t132 54.5t139.5 40q-63 14 -132 38.5t-133.5 56.5t-121 68t-93.5 72q-29 27 -42 51.5t-13 45.5q0 33 21.5 50t54.5 11q12 -37 71.5 -89t142.5 -102t180 -89t187 -52q18 -23 19 -51q0 -61 -92 -86 q-117 -31 -206 -70.5t-151.5 -82.5t-99.5 -87t-49 -83q-31 -16 -57.5 -2t-26.5 49z" />
<glyph unicode="?" horiz-adv-x="1689" d="M0 1280q0 125 78 243.5t218 209t333.5 145.5t425.5 55q158 0 276.5 -30.5t198.5 -83t120 -123t40 -150.5q0 -98 -52.5 -178t-136.5 -147.5t-192.5 -125t-222 -110.5t-222 -104.5t-192.5 -107.5t-136.5 -118.5t-52.5 -136.5q0 -35 15.5 -58.5t46.5 -33.5 q4 -39 -17.5 -62.5t-58.5 -23.5q-53 0 -90 41t-37 108q0 90 52 165t138 138.5t197 120t224.5 110.5t224 109.5t196.5 117t138.5 132t52.5 156.5q0 59 -31 113.5t-95.5 95.5t-162.5 65.5t-234 24.5q-236 0 -409.5 -52t-287.5 -132t-170 -173.5t-56 -172.5q0 -88 60.5 -130 t166.5 -42q78 0 160 21.5t154.5 60t132 93t90.5 117.5q16 2 31.5 -7t21.5 -28.5t-2 -48t-39 -63.5q-53 -59 -120.5 -106.5t-142.5 -79t-154 -48t-154 -16.5q-150 0 -237 64.5t-87 185.5zM379 6q0 43 38 77t97 34q45 0 69.5 -21.5t24.5 -56.5q0 -47 -41 -80t-92 -33 q-96 0 -96 80z" />
<glyph unicode="@" horiz-adv-x="1982" d="M-33 283q0 240 74 442.5t200 348t293.5 227t356.5 81.5q174 0 324.5 -63.5t261 -177t174 -271t61.5 -348.5q0 -117 -31.5 -221t-86 -183t-128 -124t-157.5 -45q-96 0 -173 54t-120 147q-25 -49 -56.5 -94.5t-68.5 -78t-79 -52t-87 -19.5q-94 0 -157.5 90t-63.5 266 q0 111 30.5 220.5t84 196.5t125 140t153.5 53q61 0 106.5 -26.5t75 -71.5t44 -103.5t14.5 -121.5t-13.5 -89t-33.5 -30q0 -35 -7.5 -75t-19.5 -83q14 -47 40.5 -84.5t61.5 -65.5t75 -43.5t79 -15.5q61 0 114.5 31t93.5 88.5t62.5 138t22.5 181.5q0 168 -54.5 308 t-152.5 242.5t-233.5 160t-294.5 57.5q-178 0 -324.5 -74t-251 -203t-162 -304t-57.5 -378q0 -223 61.5 -394t169 -286.5t253 -175t313.5 -59.5q137 0 269 42t248.5 122t212 196.5t160.5 268.5q45 -2 48.5 -42t-43.5 -133q-66 -129 -165.5 -234t-219 -180t-256 -116 t-275.5 -41q-188 0 -351 66.5t-283 194.5t-188.5 314.5t-68.5 428.5zM608 303q0 -129 42 -198.5t104 -69.5q31 0 63.5 18.5t61 49t54 72.5t44.5 89q-6 43 -6 86q0 88 23.5 146.5t52.5 58.5q-10 88 -52.5 143.5t-111.5 55.5q-61 0 -111.5 -40t-86.5 -103.5t-56.5 -144.5 t-20.5 -163z" />
<glyph unicode="A" horiz-adv-x="2240" d="M-160 -16q0 152 44 309.5t120 303.5t177.5 275t216 225.5t236.5 152t238 55.5q115 0 179.5 -73t64.5 -208q0 -127 -52 -256t-136 -233.5t-189.5 -170t-210.5 -65.5q-92 0 -145 53.5t-53 155.5q0 90 41 188.5t133 173.5q30 25 54 25q4 0 8 -1q28 -5 32 -34 q-35 -27 -64.5 -63.5t-51 -78.5t-34 -83t-12.5 -78q0 -72 33 -103.5t92 -31.5q76 0 156 53t144.5 135t105.5 180.5t41 186.5q0 102 -44 152.5t-122 50.5q-92 0 -193.5 -49.5t-201 -135.5t-190.5 -200.5t-159.5 -243.5t-109.5 -268.5t-41 -272.5q0 -106 26.5 -185t74.5 -130 t111.5 -77t137.5 -26q119 0 231.5 61.5t215 170t192.5 260.5t168 330h-6q-61 0 -92 18.5t-31 48.5q0 33 26 47q18 -8 51 -12t68 -4h25q109 272 181.5 580.5t105.5 617.5q-7 97 -7 172q0 248 74 248q39 0 55 -81q7 -34 6 -89q0 -74 -12 -184q16 -287 57.5 -595.5 t100.5 -588.5q16 2 34.5 3t35.5 1q106 0 148 -25.5t42 -58.5q0 -23 -13.5 -39t-29.5 -20q-18 16 -68.5 25t-115.5 9h-10q25 -106 52 -193t57 -149.5t60.5 -97.5t61.5 -35q27 0 51.5 20.5t56 81t72.5 170t101 289.5q43 0 43 -42q0 -14 -5 -33q-43 -172 -84 -291t-81.5 -191.5 t-82.5 -105.5t-87 -33t-88.5 28.5t-85 98.5t-80.5 184.5t-76 284.5q0 2 -1 3t-1 3q-94 -10 -198.5 -29.5t-199.5 -29.5q-90 -229 -196.5 -407.5t-226 -301.5t-250.5 -186.5t-269 -63.5q-92 0 -170.5 38t-137 106.5t-91.5 165t-33 213.5zM1253 522q80 10 166 27t172 29 q-41 205 -70.5 419.5t-43.5 425.5q-41 -256 -97.5 -481t-126.5 -420z" />
<glyph unicode="B" horiz-adv-x="2715" d="M-184 1321q0 98 62.5 192.5t174 178.5t265 154.5t338 122.5t392 81t427.5 29q324 0 555 -53.5t378.5 -139.5t217 -195.5t69.5 -220.5q0 -109 -69.5 -217t-194.5 -205.5t-299 -178.5t-383 -134q276 -59 433 -175t157 -273q0 -117 -78 -224.5t-221.5 -189.5t-343 -131 t-443.5 -49q-158 0 -290 28.5t-226 77.5t-146 115t-52 139q0 55 27.5 108.5t80.5 99.5t131 81t178 55v131.5t-4 130.5q-86 10 -125 30t-39 40t37 35.5t121 23.5l-6 132q-78 -12 -161 -19.5t-175 -7.5q-199 0 -347 32.5t-246.5 89t-146.5 135.5t-48 171zM-55 1335 q0 -72 43 -134t129 -109.5t215 -75t301 -27.5q168 0 301 27q-10 133 -26.5 248.5t-37.5 201.5q-129 -23 -200.5 -65.5t-87.5 -75.5q-25 -2 -44.5 12.5t-19.5 46.5q0 47 85 98.5t239 78.5q-6 14 -11.5 26t-11.5 23q16 59 72 59q23 0 42 -21.5t36 -72.5q23 2 44 3t44 1 q135 0 229 -21.5t154.5 -56.5t88 -79t27.5 -89q0 -55 -33.5 -111.5t-98 -107.5t-157.5 -94t-210 -74q4 -37 6 -74.5t4 -74.5h59q92 0 176 -4.5t164 -12.5q264 37 468 112t344.5 170t213 200.5t72.5 203.5q0 92 -65.5 182.5t-200.5 163t-342 116.5t-490 44q-328 0 -606 -58.5 t-482 -150.5t-318.5 -205.5t-114.5 -222.5zM668 63q0 -70 67.5 -128t192.5 -93q12 90 19 209t9 254q-139 -33 -213.5 -98.5t-74.5 -143.5zM991 -172q59 -12 127 -19.5t146 -7.5q238 0 416 40t295.5 104.5t177 147.5t59.5 171q0 76 -52.5 145.5t-145.5 125t-222 95.5t-283 56 q-104 -16 -212.5 -24.5t-221.5 -8.5h-4q2 -53 3 -103t1 -99v-35q57 6 123 6q205 0 313.5 -48t108.5 -108q0 -28 -24 -52q-19 -19 -58 -20q-8 0 -18 1q-6 31 -37 55t-77 41.5t-104.5 28t-121.5 10.5q-55 0 -107 -6q-2 -113 -8 -214.5t-18 -181.5q-12 -86 -56 -100zM993 1479 q16 -84 31.5 -196t26.5 -241q176 47 277.5 123t101.5 146q0 29 -20.5 59.5t-63.5 55t-112 41t-165 16.5q-20 0 -39 -1t-37 -3z" />
<glyph unicode="C" horiz-adv-x="2437" d="M113 535q0 195 70.5 384t193.5 361t290 318.5t359.5 253t402 167t418.5 60.5q150 0 255.5 -30t170 -84t94 -129t29.5 -167q0 -113 -48 -233.5t-130 -235.5t-191.5 -219t-231.5 -182t-251 -124t-250 -46q-164 0 -250 79.5t-86 215.5q0 80 29 163.5t77 162.5t111.5 148.5 t135 122t145.5 82t143 29.5q102 0 149.5 -62.5t47.5 -160.5q0 -90 -29.5 -170t-77 -140.5t-106.5 -95t-119 -34.5q-86 0 -127 64.5t-41 170.5q0 43 8.5 89t24.5 89q-47 -41 -89 -90t-72.5 -104t-49 -111.5t-18.5 -109.5q0 -111 58.5 -160t174.5 -49q100 0 209 39 t212.5 104.5t196.5 153.5t163.5 187t111.5 204.5t41 206.5q0 70 -23.5 127t-72.5 98t-127 64.5t-186 23.5q-201 0 -398.5 -57.5t-377 -156.5t-333 -234.5t-266 -292t-176 -326.5t-63.5 -340q0 -164 59 -300t174 -234.5t282 -152.5t384 -54q236 0 447.5 56t382.5 157.5 t291 240t173 301.5q51 0 51 -45q0 -13 -4 -30q-33 -119 -104.5 -225.5t-174 -195.5t-230.5 -161t-268 -121t-290 -75.5t-295 -26.5q-219 0 -404.5 55t-319.5 162.5t-209.5 264.5t-75.5 360zM1399 1274q0 -84 27.5 -120t64.5 -36q33 0 64.5 18.5t58 51.5t43 78t16.5 96 q0 66 -28.5 98.5t-79.5 32.5q-59 0 -125 -35q-23 -47 -32 -93t-9 -91z" />
<glyph unicode="D" horiz-adv-x="3127" d="M-205 1184q0 109 50.5 218t146.5 208.5t233 185.5t311.5 148.5t382 98.5t443.5 36q338 0 627.5 -92.5t501.5 -257t332 -393t120 -502.5q0 -262 -100.5 -473t-275.5 -359.5t-413.5 -228.5t-515.5 -80q-109 0 -229.5 14t-245.5 37l-12 -102q-10 -72 -45 -96 q-18 -12 -39 -12q-20 0 -43 11q-2 47 -68.5 126t-171.5 165q-121 35 -225 73t-181 74.5t-122 70.5t-45 61q0 14 11 27.5t37 18.5q13 2 30 2.5t37 -2.5q41 -5 100 -28q78 -29 168 -78t176 -108q72 -23 145.5 -40.5t147.5 -33.5q4 47 4 96v103q-2 127 -8 248.5t-17 238.5 q-35 -4 -70.5 -4h-72.5q-270 0 -476 52t-345 139.5t-211 201t-72 236.5zM-82 1210q0 -115 68.5 -215t194.5 -177t303.5 -121t392.5 -44h78.5t74.5 4q-16 147 -40.5 276.5t-53.5 227.5q-90 -41 -142.5 -89t-66.5 -89q-33 2 -54.5 16.5t-21.5 49.5q0 45 63.5 105t186.5 108 q-23 63 -45 98q4 33 26.5 51.5t51.5 18.5q27 2 47 -17.5t37 -66.5l14 -43q76 20 166 31.5t195 11.5q156 0 272.5 -25t194 -67t116.5 -98t39 -118q0 -74 -61.5 -148.5t-175 -139t-272 -113.5t-351.5 -70q10 -121 16.5 -241.5t8.5 -237.5q0 -63 -2 -121.5t-7 -116.5 q127 -23 242 -34t205 -11q279 0 500 77t375.5 211t236.5 316.5t82 395.5q0 258 -108.5 473t-303 369.5t-465 241.5t-594.5 87q-322 0 -584.5 -71.5t-449 -183t-288 -247t-101.5 -264.5zM975 -215q45 -39 76 -76l6 58zM1059 1206q27 -109 48 -247t38 -291q174 18 310 58 t230.5 90t143.5 107.5t49 110.5q0 43 -31.5 82t-93 68.5t-154 47t-213.5 17.5q-96 0 -176.5 -12.5t-150.5 -30.5z" />
<glyph unicode="E" horiz-adv-x="2588" d="M-184 1130q0 162 116.5 329t335.5 304.5t534.5 225.5t715.5 90h24q235 0 418 -37q192 -39 322.5 -105.5t198 -156.5t67.5 -193q0 -82 -42 -158.5t-116 -143t-176.5 -122t-223 -95.5t-254.5 -61.5t-274 -21.5q-154 0 -270.5 23.5t-195 64.5t-117.5 94.5t-39 114.5 q0 59 43 121.5t125 113t201.5 83t273.5 32.5q86 0 161.5 -11t133 -30.5t90.5 -45t33 -52.5q0 -29 -21.5 -46t-58.5 -13q-25 37 -117 66.5t-238 29.5q-133 0 -229 -21.5t-157.5 -56.5t-91.5 -77t-30 -83q0 -43 36 -82t103.5 -68.5t164 -46t219.5 -16.5q201 0 374 41 t299.5 110.5t199.5 162t73 192.5q0 72 -59.5 141.5t-173 125t-279.5 90t-381 34.5q-371 0 -666 -74.5t-499.5 -193.5t-314 -268t-109.5 -299q0 -113 65.5 -211.5t195.5 -172t321.5 -116.5t443.5 -43q115 35 248 55.5t286 22.5q90 0 126 -15.5t36 -35.5q0 -51 -165 -85 t-496 -34h-48q-92 -33 -165.5 -79t-126 -98.5t-81 -107.5t-28.5 -106q0 -61 43 -118.5t132 -99.5q88 -42 228 -67q116 -21 271 -21q31 0 63 1q236 4 448 62t383 159.5t290.5 240t173.5 301.5q51 0 51 -45q0 -13 -4 -30q-31 -119 -103.5 -225.5t-175 -194.5t-230.5 -160 t-268.5 -121t-290 -76.5t-294.5 -27.5h-27q-202 1 -352 29q-160 30 -264.5 83.5t-154.5 128t-50 162.5q0 115 87 224.5t251 193.5q-229 18 -406.5 70.5t-297 132.5t-182 185.5t-62.5 227.5z" />
<glyph unicode="F" horiz-adv-x="2379" d="M0 369q0 113 57.5 221t165 193t260 137.5t344.5 52.5q141 0 254 -30t192 -84t121 -128t42 -160q0 -78 -38 -144.5t-107.5 -115.5t-165 -77.5t-212.5 -28.5q-72 0 -146.5 12t-134 35.5t-97 54.5t-37.5 68q0 31 24 51q19 15 52 15q10 0 20 -1q2 -27 35 -51t82 -42.5 t109.5 -29t119.5 -10.5q84 0 154.5 19.5t121 54.5t78 81t27.5 101q0 61 -34 117.5t-98.5 98.5t-158.5 66.5t-217 24.5q-164 0 -292 -41t-216 -108.5t-135 -155.5t-47 -180q0 -119 58.5 -224.5t174 -185t287.5 -127t399 -47.5q414 0 610.5 157t196.5 454q0 125 -16 245.5 t-37 239.5q-84 -16 -167 -29.5t-169 -13.5q-61 0 -93 20.5t-32 53.5q0 39 29 49q18 -8 51 -12t68 -4q74 0 147.5 11t147.5 27q-23 121 -39.5 236t-16.5 225q0 141 35 208t90 67q25 0 43.5 -16.5t22.5 -45.5q-31 -23 -50.5 -81t-19.5 -142q0 -109 14.5 -214.5t34.5 -215.5 q41 6 82 10t82 4q106 0 149.5 -24.5t43.5 -59.5q0 -23 -13.5 -41t-31.5 -22q-18 16 -68.5 25.5t-116.5 9.5q-29 0 -54.5 -2t-53.5 -7q23 -123 39 -252t16 -274q0 -164 -62.5 -293t-181 -218t-290.5 -136t-390 -47q-250 0 -443 55t-326.5 148.5t-203 215t-69.5 257.5z M76 1630q0 92 39 181.5t124 159t219 112.5t324 43q162 0 308.5 -27.5t289 -61.5t287.5 -61.5t305 -27.5q156 0 263.5 44.5t138.5 114.5q67 0 67 -61q0 -39 -28.5 -77t-87 -66.5t-146.5 -47t-205 -18.5q-168 0 -319.5 27.5t-297 60.5t-288.5 60.5t-295 27.5 q-166 0 -277.5 -33.5t-179 -88t-95 -121t-27.5 -130.5q0 -78 35.5 -142t99 -110.5t153.5 -72t199 -25.5q129 0 238.5 35t181.5 96q39 -6 39 -45q0 -25 -20.5 -46t-63.5 -48q-66 -39 -168.5 -69.5t-224.5 -30.5q-135 0 -244 33.5t-185.5 94t-117.5 142.5t-41 178z" />
<glyph unicode="G" horiz-adv-x="2914" d="M113 352q0 197 75.5 401.5t212 396t324.5 360.5t411.5 295t473.5 200t510 74q201 0 337 -33t220 -90.5t119.5 -136t35.5 -170.5q0 -109 -52 -214.5t-144 -200.5t-216 -177t-267.5 -141.5t-301 -93.5t-313.5 -34q-244 0 -364.5 79t-120.5 200q0 100 75.5 203.5 t202.5 187.5t293 136.5t346 52.5q160 0 247 -50.5t87 -138.5q0 -66 -38 -122t-98.5 -99t-137 -69.5t-156.5 -32.5q-22 -2 -39 -2q-55 0 -73 19q-12 12 -12 29q0 16 11 36q14 -1 28 -1q57 0 115 13q72 16 129.5 46t94.5 70.5t37 90.5q0 43 -53.5 72.5t-167.5 29.5 q-166 0 -306.5 -45t-242 -110.5t-157.5 -141.5t-56 -139q0 -92 92 -142.5t285 -50.5q238 0 445.5 66.5t362 172t243.5 233.5t89 251q0 72 -32.5 133.5t-104.5 105.5t-184.5 69.5t-272.5 25.5q-242 0 -473 -68.5t-438 -185.5t-381 -273.5t-300 -332.5t-196.5 -363.5 t-70.5 -363.5q0 -129 47 -234.5t145.5 -180.5t250 -116t360.5 -41q193 0 383 33t366 93.5t329.5 145.5t272.5 189q4 41 10.5 77t16.5 69h-2q-133 0 -271.5 -12.5t-272.5 -27t-261 -26.5t-236 -12q-104 0 -142 23.5t-38 58.5q0 23 15.5 43t44.5 24q16 -16 65 -22t105 -6 q100 0 222 10t257 22.5t278.5 22.5t286.5 12q33 49 80 56q23 2 35 -15.5t16 -42.5q127 -6 170 -29.5t43 -68.5q0 -43 -39 -59q-35 16 -74.5 27t-111.5 16q-27 -86 -94 -168q-3 -49 -3 -94q0 -118 20 -203q26 -117 67 -154q-4 -35 -29 -52.5t-53 -17.5q-25 0 -46.5 18.5 t-37 63.5t-23.5 118t-8 183v25q-123 -102 -291 -184t-354 -140.5t-375.5 -89t-353.5 -30.5q-233 0 -403.5 47t-281 134t-164.5 211t-54 277z" />
<glyph unicode="H" horiz-adv-x="3147" d="M0 307q0 123 63.5 239t181 205t285.5 143t377 54q141 0 255 -28.5t196 -78.5t126 -118t44 -148q0 -88 -51.5 -166.5t-141.5 -137t-213 -93.5t-268 -35q-199 0 -307.5 66.5t-108.5 167.5q0 47 25.5 91t71 78t106.5 53t133 19q66 0 90.5 -13t24.5 -36t-19 -32q-34 3 -64 3 q-39 0 -72 -6q-58 -10 -98 -32.5t-60.5 -53t-20.5 -63.5q0 -59 79 -100t240 -41q115 0 212.5 25.5t168 68.5t109.5 101.5t39 123.5q0 63 -40 115.5t-110.5 89.5t-165 56.5t-202.5 19.5q-178 0 -318.5 -45t-239 -120t-150.5 -169t-52 -193q0 -115 64.5 -213t182 -169.5 t280.5 -113.5t360 -42t349 52t256.5 151.5t160 244t55.5 330.5q0 23 -1 47.5t-1 50.5q-129 43 -196.5 115t-67.5 166q0 86 56 148.5t169 78.5q-8 84 -12 159t-4 134q0 135 13 242.5t48 185.5q-14 -2 -28.5 -2h-30.5q-109 0 -217.5 21.5t-224 46t-237.5 46t-255 21.5 q-106 0 -178 -19.5t-116 -51t-62.5 -74.5t-18.5 -88q0 -100 99.5 -170t279.5 -70q84 0 175 27.5t144 70.5q18 0 29.5 -11t11.5 -27q0 -37 -47 -70q-57 -41 -150 -66.5t-190 -25.5q-229 0 -353 93t-124 243q0 70 31 132t93 109t156.5 76t221.5 29q131 0 258 -23.5t248 -51.5 t234.5 -51.5t217.5 -23.5q53 0 92 8l21 21q76 76 137 76q39 0 39 -35q0 -18 -9 -35.5t-24 -32.5q-47 -47 -123 -71q-31 -68 -42 -164t-11 -250q0 -63 5 -147t14 -177q92 -6 194.5 -40.5t201.5 -92t190 -133.5t159 -168q10 2 20.5 3t20.5 5q0 201 10.5 386.5t25.5 341 t34.5 275.5t42.5 191q27 86 53.5 123t64.5 37q23 0 37.5 -14.5t16.5 -36.5q-33 -29 -65 -129t-57.5 -265t-42 -388.5t-16.5 -493.5q78 25 115 49q35 -4 35 -41q0 -45 -76 -78q-14 -6 -32.5 -13t-41.5 -13q0 -59 1.5 -119.5t5.5 -124.5q18 -59 33.5 -122.5t26.5 -122 t17.5 -107.5t6.5 -80q0 -74 -12.5 -106.5t-37.5 -32.5q-23 0 -44 33.5t-40.5 107.5t-34 189.5t-20.5 279.5q-16 41 -37.5 83t-50.5 83q-86 -14 -183 -22.5t-196 -8.5q-162 0 -284 25q0 -18 1 -36t1 -32q0 -209 -62.5 -374t-184.5 -278.5t-301 -174t-415 -60.5 q-205 0 -384 45t-312 128t-210 201t-77 261zM1669 940q0 -49 39 -94t117 -80q-4 72 -11.5 147.5t-13.5 149.5q-70 -10 -100.5 -42t-30.5 -81zM1911 1065q8 -88 15 -174t11 -164q125 -31 312 -31q158 0 293 19q-61 70 -136 130t-157 106t-168 76t-170 38z" />
<glyph unicode="I" horiz-adv-x="2191" d="M0 233q0 123 65.5 234t187.5 196t296 134t391 49q150 0 263.5 -27.5t191.5 -77t117.5 -114t39.5 -138.5t-42 -139t-119.5 -115.5t-187 -79t-242.5 -28.5q-74 0 -150 12.5t-137.5 34t-101.5 52t-40 67.5q0 31 25 51q19 15 49 16q11 0 23 -2q2 -29 35.5 -52t85 -41.5 t114 -29t121.5 -10.5q92 0 172 19.5t139.5 53.5t93 80t33.5 97q0 53 -30.5 101.5t-92 85t-155.5 58t-221 21.5q-197 0 -344.5 -42t-248 -110.5t-150.5 -156.5t-50 -182q0 -96 50 -178t151.5 -142.5t252 -95.5t353.5 -35q197 0 361.5 42t285.5 123t188.5 200t67.5 270 q0 123 -28.5 258t-67.5 277q-66 -20 -140.5 -31.5t-154.5 -11.5q-223 0 -343 91t-120 236q0 47 9.5 92.5t35 96.5t70.5 108.5t117 128.5q102 100 227 201.5t229 198.5q39 78 84 124t82 46q35 0 35 -37q0 -23 -19.5 -53.5t-70.5 -81.5l-33 -33q-31 -70 -42 -143.5t-11 -161.5 q0 -145 41 -308t90 -333q47 23 76 45q16 -2 24 -13.5t8 -25.5q0 -41 -84 -90q45 -150 78 -294.5t33 -273.5q0 -176 -79 -315t-219 -236.5t-333.5 -148.5t-423.5 -53h-20q-205 0 -366 39q-169 41 -285.5 112.5t-178 172t-61.5 216.5zM1110 1280q0 -123 94.5 -188.5 t282.5 -65.5q53 0 113.5 8t119.5 25q-47 172 -88 337t-41 316q0 104 23 201q-92 -84 -175 -155.5t-145 -133.5q-104 -104 -144 -185t-40 -159z" />
<glyph unicode="J" horiz-adv-x="2230" d="M-61 -123q0 147 74.5 281.5t206.5 236t313.5 161.5t394.5 60q147 0 266 -34.5t202 -94t128 -137.5t45 -164q0 -92 -48 -172t-131 -139t-197 -93t-245 -34q-109 0 -195.5 19.5t-148 55.5t-94.5 84t-33 107q0 49 27.5 98.5t79 88.5t126 63.5t167.5 24.5q124 0 124 -50 q0 -24 -18 -36q-36 3 -70 3q-56 0 -102 -8q-74 -14 -122 -40.5t-71.5 -62.5t-23.5 -75q0 -37 26.5 -68.5t75.5 -55t116 -37t146 -13.5q102 0 190.5 26t153 70t101.5 103t37 127q0 63 -33 124.5t-100.5 110t-169 77t-236.5 28.5q-166 0 -317.5 -48t-265 -132t-181 -196.5 t-67.5 -244.5q0 -133 69.5 -244.5t193.5 -191.5t295 -125t376 -45t370.5 50.5t282.5 146.5t180.5 238.5t63.5 326.5q0 125 -23 256t-56.5 267.5t-73.5 274.5t-74 277.5t-56.5 276.5t-22.5 272q0 158 41 299q-68 -37 -148.5 -77t-168.5 -82t-177 -83.5t-173 -82.5 q-127 -63 -207 -124t-126 -117t-62.5 -109.5t-16.5 -102.5q0 -113 83 -179.5t245 -66.5q86 0 165.5 25.5t131.5 72.5q35 -4 35 -40q0 -33 -39 -64q-55 -43 -141.5 -68.5t-184.5 -25.5q-96 0 -174 23.5t-132 67.5t-84 104.5t-30 134.5q0 176 147.5 322.5t405.5 268.5 q76 37 171 78t190.5 83t183.5 83t149 76q37 80 88 131q18 18 39 30.5t41 12.5q35 0 35 -41q0 -33 -18.5 -65.5t-51.5 -65.5q-18 -18 -53 -43q-29 -72 -42 -162t-13 -203q0 -125 23.5 -260t59.5 -276t78 -284.5t77.5 -283t59 -271.5t23.5 -251q0 -209 -75.5 -372.5 t-214 -276.5t-330 -172t-424.5 -59q-227 0 -418.5 51t-330 144t-216 222t-77.5 285z" />
<glyph unicode="K" horiz-adv-x="2906" d="M0 322q0 119 54.5 228t161 193t264 134.5t366.5 50.5q141 0 260 -31t206 -84t135 -124t48 -152q0 -82 -40 -158t-117.5 -133.5t-192.5 -91t-264 -33.5q-74 0 -140.5 14.5t-119 38t-83 55t-30.5 66.5q0 31 24 51q18 15 50 16q11 0 22 -2q2 -25 25.5 -49t63.5 -43.5 t93.5 -32t114.5 -12.5q113 0 200 24.5t146.5 65.5t89 94.5t29.5 112.5q0 63 -42 119.5t-113.5 96.5t-168 63.5t-204.5 23.5q-182 0 -315.5 -42t-220.5 -109.5t-130 -154.5t-43 -179q0 -115 62.5 -220.5t178 -185t279.5 -127t367 -47.5q358 0 552.5 180.5t194.5 510.5 q0 82 -11 193.5t-28 234.5q-18 -2 -36.5 -3.5t-34.5 -1.5q-88 0 -121 15.5t-33 34.5q0 18 44 38.5t165 30.5q-20 147 -35.5 279.5t-15.5 214.5q0 117 14.5 218t48.5 181q-16 -2 -30.5 -2h-30.5q-109 0 -218.5 20.5t-222 46t-227 46t-233.5 20.5q-104 0 -180 -24.5 t-123 -64.5t-70 -89t-23 -96q0 -63 31 -117.5t87.5 -94.5t135 -63.5t177.5 -23.5q84 0 175 26.5t144 69.5q41 0 41 -41q0 -37 -47 -70q-57 -41 -150.5 -66.5t-189.5 -25.5q-125 0 -223.5 32t-167 85t-104 124t-35.5 148q0 72 33.5 143.5t100 128t165 92.5t229.5 36 q117 0 236.5 -23.5t236.5 -51.5t230.5 -51.5t218.5 -23.5q53 0 92 8l20 21q76 76 137 76q39 0 39 -35q0 -18 -9 -35.5t-23 -32.5q-47 -47 -123 -71q-29 -70 -41.5 -164t-12.5 -221q0 -43 4.5 -101.5t12.5 -127t17 -144.5t20 -152h41q92 27 174 74t153 119q100 98 171 226 t129.5 257t114.5 244t130 188q41 41 81 58.5t77 17.5q41 0 58.5 -19.5t17.5 -37.5q0 -35 -27 -51q-12 2 -23 2q-26 1 -48 -9q-32 -14 -70 -53q-55 -55 -108.5 -162.5t-113 -231.5t-132 -251t-169.5 -223q-111 -111 -245 -176q168 -53 311 -208t264 -444q96 -229 184 -402 t189 -271q115 -111 225 -111q72 0 130 39t89 119h5q39 0 49 -30q3 -10 3 -22q0 -25 -16 -57q-39 -78 -111 -127q-69 -47 -160 -47h-7q-76 2 -151 35t-146 104q-49 49 -95.5 119t-93.5 160t-96 201.5t-106 244.5q-70 162 -140.5 279t-148.5 193.5t-163 115.5t-181 43l-31 -6 q16 -135 30.5 -254t14.5 -190q0 -199 -63.5 -348.5t-180 -250t-280.5 -150.5t-367 -50q-205 0 -384 51t-313 140t-212 212t-78 267z" />
<glyph unicode="L" horiz-adv-x="2291" d="M-4 229q0 84 32.5 160t98.5 134.5t166 93t235 34.5q145 0 282.5 -44t266.5 -115.5t252 -165t240 -191.5q12 43 19 90t7 99q0 117 -20.5 254t-44.5 280q-147 -53 -314 -81.5t-354 -28.5q-190 0 -349 37.5t-274.5 104t-179 156t-63.5 193.5q0 100 55 190.5t154.5 158 t239 107.5t309.5 40q139 0 247.5 -26t183.5 -72t113.5 -107.5t38.5 -130.5q0 -59 -36.5 -115.5t-103.5 -99.5t-160 -70t-203 -27q-82 0 -150 13.5t-116 35t-74.5 47t-26.5 48.5q0 20 14.5 39.5t44.5 25.5q18 -25 53 -44t79 -33.5t94.5 -21.5t97.5 -7q94 0 163.5 18.5t115 47 t67 65.5t21.5 72q0 47 -31 90t-91.5 76.5t-148.5 54t-201 20.5q-147 0 -263.5 -31.5t-197.5 -84t-124 -121t-43 -140.5q0 -86 56 -160.5t157.5 -131t244 -89t314.5 -32.5t327.5 28.5t296.5 81.5q-23 131 -40 256t-17 234q0 154 39 278.5t107.5 212.5t163 136.5t202.5 48.5 q86 0 149.5 -29t105.5 -79t63.5 -117.5t21.5 -145.5q0 -162 -74.5 -311.5t-201.5 -274.5q-160 -160 -390 -260q27 -147 49.5 -289.5t22.5 -265.5q0 -166 -49 -295q113 -96 220.5 -187t211 -162t203.5 -113t199 -42q80 0 146.5 24t115.5 71q18 0 28.5 -12.5t10.5 -28.5 q0 -35 -33 -68q-47 -47 -123 -75.5t-170 -28.5q-104 0 -210.5 43t-215.5 113.5t-219.5 161.5t-222.5 190q-98 -152 -273.5 -231t-417.5 -79q-184 0 -351 46t-293 127t-200.5 190.5t-74.5 236.5zM119 240q0 -86 55 -176.5t160.5 -164t257 -120.5t344.5 -47q211 0 357.5 74.5 t224.5 207.5q-117 100 -237 196.5t-244 171.5t-251 120t-258 45q-106 0 -184 -24.5t-128 -66.5t-73.5 -97.5t-23.5 -118.5zM1567 1466q0 -100 17.5 -219t39.5 -246q98 47 182 105.5t152 126.5q106 106 168.5 232t62.5 268q0 119 -61.5 194.5t-181.5 75.5q-80 0 -150 -37 t-120 -106.5t-79.5 -169t-29.5 -224.5z" />
<glyph unicode="M" horiz-adv-x="2838" d="M0 264q0 147 33 289.5t91 269.5t137 234.5t170 186.5t189.5 123t198.5 44q131 0 206 -93t75 -294q0 -135 -38 -265t-101.5 -232.5t-144.5 -165t-169 -62.5q-82 0 -136 66.5t-54 193.5q0 96 30.5 192.5t87.5 161.5q39 45 78 45q16 0 25.5 -11t11.5 -27 q-66 -63 -99.5 -154.5t-33.5 -169.5q0 -96 32 -139t79 -43q51 0 107 44t103.5 122.5t78 185t30.5 231.5q0 147 -52 221t-151 74q-74 0 -151.5 -37.5t-151 -104.5t-140.5 -160t-117 -202.5t-79.5 -231.5t-31.5 -249v-18q1 -118 25 -204q26 -93 73 -153.5t110.5 -88 t137.5 -27.5q123 0 259 94t267 311t246 569.5t194 868.5q4 293 28 445.5t73 152.5q25 0 39 -38t14 -130q0 -152 -59 -498q8 -182 31.5 -375.5t58.5 -371.5t78 -328.5t86 -247.5q27 -59 48 -88.5t48 -29.5q47 0 102 122q31 68 63.5 162t64.5 202.5t62.5 226.5t57.5 236 t48.5 229.5t35.5 207.5q8 274 34.5 395t69.5 121q20 0 34 -26.5t14 -100.5q0 -47 -8.5 -128t-18.5 -165q-5 -97 -5 -206q0 -36 1 -74q2 -150 11 -302.5t26.5 -299t42.5 -267.5q57 -297 131 -481t149.5 -285.5t149.5 -136.5t135 -35q76 0 141.5 41t93.5 115h5q40 -1 48 -31 q3 -10 2 -20q0 -26 -16 -60q-39 -80 -115.5 -126t-172.5 -46q-90 0 -184.5 51.5t-183.5 173t-166 325.5t-130 511q-29 174 -45 341t-20 337q-20 -115 -49 -239.5t-64 -245.5t-73 -233.5t-77 -205.5q-59 -137 -108 -192t-103 -55q-94 0 -186 211q-37 82 -71.5 199.5 t-65.5 256t-54.5 290t-35.5 302.5q-76 -418 -189.5 -712.5t-247 -482t-278.5 -273.5t-283 -86q-102 0 -184 40t-139.5 113.5t-88 180t-30.5 239.5z" />
<glyph unicode="N" horiz-adv-x="3272" d="M0 362q0 119 62.5 235t178 207t281.5 147.5t375 56.5q143 0 267 -29t214 -81t142.5 -124t52.5 -158q0 -80 -40 -149.5t-118 -119.5t-190.5 -79.5t-255.5 -29.5q-72 0 -145.5 13t-132 36.5t-95.5 56.5t-37 74q1 31 25 51q18 14 46 14q12 0 25 -2q2 -31 33 -56.5t80 -44 t107.5 -29.5t115.5 -11q106 0 190.5 20.5t142.5 55.5t89 83t31 101q0 61 -39 116.5t-111.5 97.5t-175 66.5t-229.5 24.5q-182 0 -323.5 -48t-240 -124t-149.5 -169t-51 -185q0 -109 62.5 -213.5t180 -186t286.5 -131t382 -49.5q195 0 349.5 48.5t267.5 158.5 q63 63 114.5 151.5t86 211.5t54 285.5t19.5 377.5q0 123 -6 253t-16 265q-41 139 -65.5 254t-24.5 193q0 51 14 79.5t41 28.5q55 0 92 -170q12 -63 27.5 -161.5t25.5 -196.5q74 -203 181.5 -413t225.5 -403.5t235.5 -358t213.5 -277.5q-31 98 -53 207.5t-36.5 220.5 t-21.5 219.5t-7 202.5q0 395 100 705.5t325 535.5q125 125 292 195.5t370 70.5q92 0 161.5 -20.5t118 -51t72 -68.5t23.5 -71q0 -41 -32 -55q-17 -8 -37 -8q-17 0 -36 6q-18 66 -96 111t-207 45q-84 0 -162.5 -16.5t-149.5 -46.5t-132.5 -69.5t-108.5 -87.5 q-207 -207 -295 -497.5t-88 -667.5q0 -166 20.5 -338t51.5 -315.5t64.5 -241.5t60.5 -119q-2 -45 -25.5 -68.5t-64.5 -23.5q-47 0 -99 53q-80 84 -192.5 229.5t-232 327t-234.5 384t-197 399.5q6 -147 7 -303q0 -207 -21.5 -370t-61.5 -288t-95.5 -217t-122.5 -160 q-129 -129 -310.5 -185t-410.5 -60h-15q-197 0 -373 49q-182 51 -320 142t-219 215t-81 267z" />
<glyph unicode="O" horiz-adv-x="2750" d="M-102 989q0 135 38.5 269.5t113.5 255t183.5 224t250 179.5t313 119t370.5 43q336 0 596 -92.5t438.5 -246t271.5 -354t93 -419.5q0 -176 -53 -339t-149.5 -304.5t-227.5 -257t-285.5 -198.5t-328.5 -129t-353 -46q-199 0 -363.5 54t-287.5 153.5t-198.5 239t-96.5 309.5 q-162 86 -243.5 222t-81.5 318zM18 1020q0 -135 48.5 -241.5t148.5 -176.5q2 104 20.5 212t48 207t68.5 183t86 139q27 33 56.5 34t44.5 -34q-39 -43 -76 -123.5t-66.5 -180t-48 -207t-18.5 -201.5v-51.5t4 -49.5q205 -94 512 -94q195 0 365.5 43t298.5 109.5t202 146.5 t74 152q0 78 -77 134q-74 54 -197 54h-9q-10 27 9.5 50.5t78.5 23.5q141 0 227.5 -69.5t86.5 -180.5q0 -106 -87 -208.5t-236.5 -182.5t-346.5 -129t-416 -49q-135 0 -249.5 16t-211.5 47q33 -131 103.5 -236.5t174 -179t240 -113.5t300.5 -40q176 0 337.5 41t301 114.5 t254 177t196.5 228.5t126 268.5t44 296.5q0 213 -93 399.5t-262 326t-404.5 219t-520.5 79.5q-266 0 -477 -81t-357.5 -214t-224.5 -305t-78 -354z" />
<glyph unicode="P" horiz-adv-x="2504" d="M-205 1364q0 137 109.5 265t301 228.5t449.5 161t555 60.5q303 0 528.5 -63.5t374 -165t221 -228.5t72.5 -256q0 -176 -88 -328.5t-246.5 -264t-377.5 -176.5t-482 -65q-66 0 -126 4.5t-115 12.5q2 -16 2 -31.5v-32.5q0 -74 -2 -154.5t-6 -158.5t-10.5 -148.5 t-12.5 -121.5q-8 -57 -26.5 -81t-47.5 -24q-12 0 -25.5 6.5t-21.5 18.5q8 33 15.5 95.5t12.5 144t8 177t3 195.5q0 35 -1 69t-1 68q-78 23 -138.5 52.5t-101.5 70.5q-29 29 -45 63t-16 62q1 41 27 59q17 11 37 11q12 0 24 -4q6 -53 57.5 -105.5t149.5 -89.5 q-14 205 -49 356.5t-86 239.5q10 57 61 57q33 0 54.5 -26.5t46.5 -95.5q70 -201 88 -564q55 -10 118.5 -16t135.5 -6q244 0 440.5 57.5t334.5 155.5t211.5 229t73.5 277q0 119 -71.5 231.5t-210.5 199.5t-343 139t-468 52q-256 0 -485.5 -50t-402.5 -133t-274.5 -190.5 t-101.5 -222.5q0 -55 30 -99t82 -77t121.5 -50t149.5 -17q78 0 131 16q29 -10 29 -35q0 -37 -58.5 -57.5t-144.5 -20.5q-94 0 -179 22.5t-149.5 64.5t-102.5 102.5t-38 134.5z" />
<glyph unicode="Q" horiz-adv-x="2523" d="M-102 1010q0 135 42 267t120.5 251t191.5 220t255 174t311 115t360 42q268 0 481 -85t362.5 -228.5t228.5 -330t79 -391.5q0 -211 -63.5 -400t-174.5 -345t-258 -274.5t-315 -188.5q98 -84 198.5 -165t207 -144.5t219 -103t237.5 -39.5q170 0 268 61t139 166 q37 10 57.5 -6.5t20.5 -44.5q0 -43 -26 -90q-23 -41 -61 -78t-94 -67t-130 -47t-166 -17q-158 0 -293 48t-257 125t-233.5 170t-218.5 185q-76 -23 -152.5 -34t-154.5 -11q-193 0 -352.5 83t-273.5 224q-92 -53 -158 -134t-96 -167q-12 -6 -29 -6q-35 0 -44 39q-2 8 -2 17 q0 35 28 87q39 72 99 138.5t138 115.5q-76 127 -113 273q-82 29 -151.5 84t-119.5 131t-78.5 172t-28.5 209zM16 1042q0 -168 62.5 -289.5t171.5 -187.5q-6 58 -6 121q0 113 15 215.5t43 189.5t64.5 154.5t79.5 108.5q37 37 70 37q39 0 43 -45q-45 -41 -83 -106.5 t-64.5 -146.5t-41 -173.5t-14.5 -186.5q0 -121 21 -221q57 -12 119 -12q29 0 59.5 4t54.5 10q25 -12 25 -47t-47 -59.5t-129 -24.5h-23.5t-23.5 2q39 -106 92 -186q111 41 235 41q94 0 182.5 -26t172.5 -70t163.5 -102t159.5 -122q168 55 311.5 162.5t250 251t167 315.5 t60.5 361q0 193 -74 367.5t-210 307t-330.5 210t-436.5 77.5q-248 0 -457 -78.5t-360.5 -209t-236.5 -297t-85 -345.5zM573 104q100 -113 232.5 -175t286.5 -62q88 0 182 16q-66 51 -131.5 96.5t-134 78t-140 51t-147.5 18.5q-41 0 -77 -6t-71 -17z" />
<glyph unicode="R" horiz-adv-x="3162" d="M0 145q0 90 44 173t129 147.5t209 103.5t284 39q131 0 228 -25.5t162.5 -67.5t98.5 -96t33 -110q0 -57 -31 -109.5t-87 -92t-134 -63.5t-170 -24q-121 0 -182.5 27t-61.5 68q0 29 23 45q51 -23 109.5 -32t111.5 -9q70 0 126 15.5t96 40t60.5 57t20.5 67.5q0 41 -27.5 79 t-81 66.5t-131 46t-180.5 17.5q-133 0 -232.5 -29.5t-166 -78t-100 -110t-33.5 -124.5q0 -76 45 -145.5t125 -122t189.5 -84t238.5 -31.5q180 0 311 51t215 148.5t126 238.5t44 320q-217 8 -314.5 63t-97.5 127q0 33 21.5 64.5t64.5 56.5t109 39t154 14q6 0 13 -1t11 -1h10 q-27 166 -69.5 297t-93.5 203q10 57 65 57q53 0 100 -121q33 -86 62 -200.5t47 -245.5q127 -23 230.5 -78t191.5 -131q197 43 368 119t299 173t200.5 208.5t72.5 226.5q0 109 -75 212t-225.5 183t-378.5 128t-536 48q-295 0 -535.5 -50t-410.5 -129t-263 -177t-93 -196 q0 -59 30.5 -104.5t85 -76t126 -46t151.5 -15.5q92 0 168 17.5t121 43.5q37 0 37 -32q0 -39 -60 -68q-55 -29 -132 -44t-163 -15q-104 0 -193 22.5t-154.5 65.5t-103.5 102t-38 133q0 119 101.5 239t291 216t460.5 156.5t611 60.5q297 0 539 -50t412 -139.5t263 -211 t93 -265.5q0 -131 -78 -255t-213 -230.5t-315 -191.5t-383 -136q72 -72 134 -151.5t119.5 -156.5t111 -145.5t107.5 -120.5t111.5 -83t120.5 -31q57 0 111.5 25.5t110 97.5t115 200t126.5 332q43 0 43 -43q0 -14 -4 -32q-49 -195 -102.5 -329t-117 -218t-136 -121 t-160.5 -37q-82 0 -151.5 37t-135 99.5t-126 143.5t-124 168t-131 175t-143.5 164q-90 -16 -179 -26.5t-182 -12.5q-12 -430 -217.5 -644t-599.5 -214q-141 0 -268 35.5t-222 97t-150.5 146.5t-55.5 183zM1122 739q0 -35 66.5 -66.5t220.5 -37.5q-2 47 -5 92t-9 90h-19 q-8 0 -15 1t-13 1q-125 0 -175.5 -25.5t-50.5 -54.5zM1505 801q4 -41 6 -83t5 -83q68 2 136 7t134 15q-63 49 -133 86.5t-148 57.5z" />
<glyph unicode="S" horiz-adv-x="2631" d="M-51 1212q0 147 114.5 302t326.5 280t514 205t677 80q268 0 466 -37t328 -100.5t193.5 -151.5t63.5 -188q0 -102 -75 -198.5t-207 -171.5t-312 -121t-391 -46q-262 0 -402.5 65.5t-140.5 174.5q0 53 33.5 104t100.5 92t165 65.5t229 24.5q129 0 184.5 -21.5t55.5 -53.5 q0 -10 -5 -20.5t-14 -14.5q-39 10 -92 15t-110 5q-102 0 -180 -15.5t-131.5 -41t-81 -58t-27.5 -65.5q0 -61 111.5 -107.5t324.5 -46.5q172 0 323.5 36t265.5 94.5t180.5 135t66.5 156.5q0 76 -59.5 146.5t-178.5 123t-297 84t-414 31.5q-229 0 -426.5 -32.5t-361.5 -89 t-291 -130t-215 -154.5t-133 -165t-45 -160q0 -94 47 -161.5t130 -115.5t196.5 -79t244.5 -51.5t275.5 -32.5t290.5 -23q291 -23 474 -48t294.5 -56t168 -64.5t93.5 -70.5q41 -41 60.5 -96.5t19.5 -116.5q0 -123 -79 -238t-230.5 -204t-372.5 -142t-504 -53 q-195 0 -356.5 35.5t-279.5 98t-183.5 145.5t-65.5 177q0 82 52.5 161t153.5 141.5t247.5 100.5t337.5 38q117 0 221 -18.5t181 -54.5t122 -87t45 -117q0 -59 -39 -117.5t-112.5 -105.5t-180 -76.5t-241.5 -29.5q-102 0 -178 15t-126.5 39.5t-75 55.5t-24.5 62t24 51 q18 14 47 14q12 0 25 -2q6 -31 32 -56.5t69 -45t98.5 -29.5t118.5 -10q104 0 185 18.5t137.5 49t86 69.5t29.5 78t-30.5 74.5t-91 63.5t-146.5 44t-197 16q-170 0 -293 -29.5t-202.5 -77.5t-117.5 -105.5t-38 -112.5q0 -70 51 -136.5t147.5 -118.5t237.5 -84t320 -32 q248 0 445.5 42t334.5 113.5t211 167t74 201.5q0 76 -40 134.5t-148.5 101.5t-298 73.5t-486.5 51.5q-158 12 -317.5 23.5t-306 33t-274.5 56t-222.5 90t-148.5 136.5t-54 195z" />
<glyph unicode="T" horiz-adv-x="2340" d="M-82 1604q0 113 61.5 209t170 164.5t258 107.5t325.5 39q166 0 320.5 -28t308.5 -61.5t314.5 -61t338.5 -27.5q156 0 263.5 45t138.5 114q67 0 67 -61q0 -39 -28.5 -77t-85 -66.5t-142.5 -47t-203 -18.5q-174 0 -337.5 27.5t-323.5 60.5t-318.5 60.5t-322.5 27.5 q-145 0 -270 -28.5t-218.5 -81t-146.5 -126t-53 -165.5q0 -74 38 -137.5t108.5 -111.5t171 -76t222.5 -28q117 0 207 19.5t150.5 51.5t92.5 72t32 81q0 49 -39 85t-133 38q-5 15 -5 29q0 21 13 37q20 26 68 26q86 0 144 -55.5t58 -137.5q0 -76 -43 -139.5t-120.5 -109.5 t-185 -71.5t-234.5 -25.5q-147 0 -269.5 35t-209.5 94.5t-135 141t-48 176.5zM59 266q0 117 64.5 227.5t185.5 197.5t294 139.5t390 52.5q137 0 234.5 -27t158 -72t88 -101t27.5 -116q0 -82 -44 -153.5t-124 -126t-188.5 -85t-237.5 -30.5q-68 0 -133 11.5t-117.5 33t-84 51 t-31.5 66.5q0 33 25.5 51t60.5 14q2 -25 28.5 -47t67.5 -38.5t94 -25.5t111 -9q98 0 181 21.5t144.5 57t96 84t34.5 101.5q0 49 -24.5 92t-74.5 74.5t-127 51t-179 19.5q-178 0 -324.5 -39t-252 -106.5t-163 -156.5t-57.5 -189q0 -109 55.5 -202t165 -160.5t275.5 -107.5 t387 -40q213 0 368.5 44t258 126t151.5 198.5t49 262.5q0 141 -19.5 277t-44 267t-44 257t-19.5 247q0 141 35 208t90 67q25 0 43.5 -16.5t22.5 -45.5q-31 -23 -50.5 -81t-19.5 -142q0 -125 19.5 -248t42 -253t42 -268t19.5 -294q0 -164 -64.5 -296t-187.5 -225t-301 -143.5 t-403 -50.5q-240 0 -424.5 47t-311.5 128t-192.5 189.5t-65.5 231.5z" />
<glyph unicode="U" horiz-adv-x="2635" d="M-164 930q0 137 38 276.5t105.5 268.5t159.5 240.5t199.5 194.5t226.5 130t240 47q94 0 169 -33t127 -92t79.5 -143t27.5 -187q0 -131 -32.5 -257t-83 -250t-107.5 -243.5t-107.5 -239.5t-83 -237.5t-32.5 -236.5q0 -90 24.5 -156.5t67.5 -110.5t101.5 -65.5t125.5 -21.5 q113 0 228.5 58t227.5 179t217.5 309.5t197.5 446.5q10 244 40.5 435.5t65.5 293.5q31 90 68 90q16 0 27.5 -22.5t11.5 -79.5q0 -55 -8.5 -129t-22.5 -161t-33.5 -183.5t-44.5 -194.5q-4 -41 -4 -81v-81q0 -197 19.5 -335t50 -224t69.5 -125t78 -39q37 0 75 22.5t82 87 t96.5 183.5t113.5 309q43 0 43 -43q0 -14 -4 -32q-45 -178 -95.5 -304t-103.5 -206t-108.5 -116t-110.5 -36q-61 0 -115.5 41t-95.5 127t-66.5 222t-29.5 327q-86 -221 -189.5 -386t-218.5 -275.5t-237.5 -165t-245.5 -54.5q-96 0 -176 32t-138.5 91.5t-90 145.5t-31.5 194 q0 119 33.5 236.5t85 235.5t111.5 237t111.5 241.5t85 250.5t33.5 266q0 166 -80.5 263t-230.5 97q-100 0 -201.5 -41t-193.5 -113.5t-171 -169t-137.5 -208t-91 -232.5t-32.5 -240q0 -174 62.5 -246.5t162.5 -72.5q88 0 173 55.5t152.5 145.5t109.5 206.5t42 237.5 q0 86 -34.5 132t-94.5 46q-76 0 -133 -51t-82 -119q-35 -4 -51 22q-6 11 -6 25q0 22 14 52q20 41 52 75.5t70 59t79 39t82 14.5q102 0 153.5 -74.5t51.5 -195.5q0 -141 -49.5 -283.5t-131.5 -256.5t-188.5 -185.5t-218.5 -71.5q-141 0 -232.5 102.5t-91.5 315.5z" />
<glyph unicode="V" horiz-adv-x="2523" d="M-205 827q0 137 41 282.5t114 285t173 263.5t220 217t254 148.5t275 55.5q102 0 188.5 -33t158.5 -107q102 -102 184 -277t144.5 -409.5t105.5 -521.5t67 -612q18 160 58.5 337t95.5 359t124.5 361.5t151.5 341t173.5 299t189.5 235.5q72 72 136.5 119t121.5 75.5 t108.5 40t98.5 11.5q59 0 89 -22.5t30 -61.5q0 -20 -9.5 -37.5t-27.5 -28.5q-14 10 -32.5 16.5t-53.5 6.5q-86 0 -186.5 -51.5t-215.5 -167.5q-111 -111 -211 -272.5t-187 -351t-157.5 -394.5t-120 -399.5t-77 -365.5t-27.5 -294q0 -72 8.5 -122t22.5 -75q-14 -16 -40 -25 t-46 -9q-37 0 -62.5 28.5t-32.5 120.5q-57 807 -185 1323t-324 713q-125 125 -306 125q-113 0 -224 -47t-212.5 -128t-188.5 -188.5t-151.5 -228.5t-100.5 -247t-36 -245q0 -174 71.5 -262t192.5 -88q106 0 221 71t209 186.5t154.5 261t60.5 294.5q0 96 -39 148.5t-112 52.5 q-88 0 -170 -62.5t-135 -164.5q-35 -5 -49 23q-5 10 -4 22q0 22 16 51q29 51 69.5 96t89 79t103.5 53.5t110 19.5q115 0 174.5 -79t59.5 -208q0 -119 -35 -237.5t-93 -225t-137 -199t-167 -160t-180.5 -105.5t-180.5 -38q-74 0 -138 28t-110.5 82t-73 134t-26.5 184z" />
<glyph unicode="W" horiz-adv-x="3323" d="M-164 874q0 135 44 277.5t122 276t184.5 252t230.5 206.5t261 139.5t278 51.5q172 0 272.5 -100.5t100.5 -297.5q0 -119 -33.5 -240.5t-83 -245.5t-109 -248t-108.5 -248t-82.5 -247.5t-33.5 -246.5q0 -74 20.5 -130.5t55 -94t80.5 -56t98 -18.5q74 0 154.5 43t164.5 141 t166 258.5t156 398.5q4 182 19 323.5t37.5 238t50.5 146.5t54 50q45 0 45 -125q0 -92 -22.5 -232t-81.5 -353v-22q0 -223 39 -395q41 -181 110.5 -304t157.5 -185.5t180 -62.5q113 0 225.5 101.5t203 295t146.5 475t56 641.5q0 113 -10 226.5t-32.5 215t-57.5 185.5t-84 135 q6 29 26.5 48.5t42.5 19.5q31 0 51.5 -14.5t41.5 -45.5q37 -55 64.5 -136t46 -177t27.5 -200.5t9 -209.5q0 -227 -26.5 -442t-75.5 -402.5t-120 -343t-157 -268t-187.5 -174t-213.5 -61.5q-94 0 -185.5 53t-167 156.5t-130 257t-72.5 354.5q-127 -373 -306.5 -557 t-371.5 -184q-74 0 -139.5 24.5t-113.5 72.5t-76.5 122t-28.5 172q0 125 33.5 249t85 247.5t111.5 247.5t111.5 248t85 247t33.5 246q0 82 -20.5 140t-58 95t-90 54.5t-115.5 17.5q-121 0 -240 -44t-227.5 -121t-199.5 -179.5t-158.5 -219t-105.5 -241.5t-38 -244 q0 -156 60.5 -223.5t168.5 -67.5q113 0 212.5 61.5t174 159t118.5 215t44 228.5q0 78 -25.5 123t-66.5 57q2 33 22.5 56.5t53.5 23.5q61 0 95 -63.5t34 -163.5q0 -141 -57.5 -285.5t-152.5 -262.5t-220 -192.5t-262 -74.5q-147 0 -232.5 93t-85.5 283z" />
<glyph unicode="X" horiz-adv-x="2398" d="M-41 162q0 143 37 275t98.5 245t143 205t171 156.5t181.5 100.5t176 36q129 0 199.5 -91.5t70.5 -246.5q0 -139 -43 -267.5t-112.5 -225.5t-158.5 -154.5t-181 -57.5t-148.5 57.5t-56.5 157.5q0 39 6 78t20 68q31 71 75 71h1q31 0 43 -24q-18 -39 -26.5 -81t-8.5 -73 q0 -66 36 -95.5t93 -29.5q61 0 125 45t116 121t85 175.5t33 205.5q0 117 -48 180.5t-145 63.5q-74 0 -153.5 -32t-154.5 -90t-141.5 -139t-116.5 -179.5t-79.5 -210t-29.5 -230.5q0 -102 27.5 -180t76.5 -132t117.5 -82t150.5 -28q133 0 246 51.5t211 149.5 q121 121 263 356.5t304 616.5q-55 188 -102 338.5t-93 265.5t-93.5 197.5t-100.5 136.5q-106 106 -260 106q-86 0 -155.5 -28.5t-119 -74.5t-77 -103.5t-27.5 -114.5q0 -31 8.5 -58.5t26.5 -50.5q-8 -23 -29.5 -37t-46.5 -14q-39 0 -64.5 28.5t-25.5 88.5q0 82 41 164.5 t111.5 150.5t166 111t205.5 43q100 0 185.5 -32t148.5 -97q55 -59 101.5 -138t89.5 -183.5t86 -238t94 -303.5q186 408 330.5 648.5t255.5 351.5q119 119 213 165t180 46q59 0 89 -22.5t30 -61.5q0 -20 -9.5 -37.5t-27.5 -28.5q-14 10 -32.5 16.5t-53.5 6.5q-76 0 -153 -41 t-165 -129q-127 -127 -284.5 -397.5t-331.5 -651.5q39 -135 70.5 -238.5t57 -184.5t49.5 -146.5t46 -124.5q70 -180 130.5 -260t113.5 -80q45 0 83 28.5t78 103.5t87 202t110 323q43 0 43 -43q0 -14 -4 -32q-51 -203 -97 -339t-94 -218t-100.5 -116t-113.5 -34 q-98 0 -181.5 101.5t-160.5 316.5q-23 57 -43.5 115.5t-42 127t-47 151.5t-56.5 190q-86 -203 -162.5 -354.5t-144.5 -263.5t-129 -190.5t-119 -134.5q-117 -117 -244 -170t-276 -53q-100 0 -186 35t-148.5 103.5t-97.5 168t-35 228.5z" />
<glyph unicode="Y" horiz-adv-x="2639" d="M-164 1106q0 117 42 235.5t113.5 230t167 209t204 170t222 114.5t222.5 42q143 0 218 -78.5t75 -234.5q0 -137 -34 -263t-74 -247t-73.5 -241.5t-33.5 -247.5q0 -168 78.5 -250t207.5 -82q109 0 233 62.5t248 176t239.5 273.5t205.5 354q12 104 38 201.5t60 163.5 q38 75 75 75h1q29 0 29 -59q0 -88 -32 -190.5t-77 -212.5q-2 -29 -2 -55.5v-57.5q0 -178 35 -346t78 -325.5t78 -304t35 -279.5q0 -162 -77 -311.5t-219.5 -265.5t-347 -184.5t-462.5 -68.5q-201 0 -367 41t-284.5 114.5t-184 174t-65.5 219.5q0 100 61 202.5t178 185.5 t286 134t384 51q150 0 258 -25.5t179 -69.5t103.5 -102.5t32.5 -121.5q0 -92 -54 -177t-148.5 -148.5t-219.5 -101.5t-266 -38q-195 0 -293 70.5t-98 173.5q0 68 35 112.5t72 44.5q39 1 43 -34q-37 -35 -37 -90q0 -74 74.5 -119t234.5 -45q115 0 213 28.5t171 75.5 t114 105.5t41 117.5q0 45 -27 88t-84 76t-146.5 52.5t-214.5 19.5q-193 0 -338 -41t-241 -105.5t-145.5 -144.5t-49.5 -156q0 -96 56.5 -179t159 -144.5t245.5 -96t320 -34.5q240 0 422 56t307 154.5t188.5 229.5t63.5 279q0 135 -29 267t-65.5 273.5t-68.5 297t-38 337.5 q-94 -188 -211 -333.5t-241 -246t-248.5 -151.5t-237.5 -51q-180 0 -283.5 112.5t-103.5 317.5q0 125 34.5 243.5t75.5 240.5t76 249t35 268q0 104 -50 165t-155 61q-90 0 -187 -37t-189.5 -99.5t-175.5 -146.5t-145.5 -179t-99 -196.5t-36.5 -197.5q0 -72 17.5 -120t47 -79 t69.5 -44t83 -13q86 0 171 48t153.5 123.5t110.5 170t42 188.5q0 150 -129 150q-41 0 -86 -20.5t-85 -52.5t-73 -73t-51 -82q-35 -4 -50 23q-6 12 -6 25q0 20 13 46q27 51 68 97.5t91 79t105.5 52t108.5 19.5q98 0 150.5 -57t52.5 -168q0 -119 -53.5 -241t-139.5 -221 t-195.5 -162.5t-222.5 -63.5q-63 0 -117.5 21.5t-95.5 64.5t-64.5 107.5t-23.5 152.5z" />
<glyph unicode="Z" horiz-adv-x="2717" d="M41 -193q0 20 23.5 44t65.5 45.5t102.5 38t134.5 22.5q201 88 424 220t440 286.5t414.5 321.5t347 327t238.5 300t89 241q0 66 -55 125t-165.5 104t-278.5 71.5t-394 26.5q-319 0 -551.5 -44t-384 -108.5t-225 -139t-73.5 -136.5q0 -55 38.5 -103t112.5 -82t179.5 -53.5 t238.5 -19.5q156 0 289 24.5t231 63.5t153.5 89.5t55.5 101.5q0 53 -83 90t-247 37q-80 0 -156.5 -11.5t-144 -30t-124 -43t-93.5 -50.5q-16 2 -28.5 16t-11.5 33.5t17.5 42t57.5 41.5q100 47 233 76.5t279 29.5q223 0 332.5 -60.5t109.5 -150.5q0 -76 -65.5 -148.5 t-182 -130t-278.5 -92t-354 -34.5q-174 0 -304.5 27.5t-217.5 74.5t-131 108.5t-44 127.5q0 100 90.5 200.5t264.5 181.5t430 131t590 50q264 0 458.5 -32t322.5 -89t191.5 -134t63.5 -169q0 -109 -80 -249t-217 -296.5t-321.5 -320.5t-394.5 -318.5t-434 -293t-441 -242.5 q106 -18 198 -48t180 -64t178.5 -68.5t193 -62.5t221 -45t266.5 -17q135 0 243.5 26.5t185 72.5t117.5 106t41 126q0 63 -37.5 117.5t-108.5 94.5t-170 63.5t-222 23.5q-135 0 -230.5 -20.5t-157 -51t-90 -66.5t-28.5 -66q0 -29 17.5 -57.5t58.5 -51.5t108.5 -36t165.5 -13 t180 24.5t152 65.5q34 -10 34 -40q0 -6 -2 -14q-8 -42 -79 -77q-61 -29 -143.5 -46.5t-172.5 -17.5q-98 0 -180 18.5t-140.5 50.5t-90 78t-31.5 101q0 53 41 109.5t120 102.5t194.5 75t267.5 29q172 0 299 -32t210.5 -85t124.5 -123t41 -147q0 -86 -52 -167t-148.5 -143.5 t-231.5 -101.5t-301 -39q-147 0 -280.5 23.5t-254 60.5t-231 80t-214 81t-201 65.5t-189.5 33.5q-119 -53 -198.5 -78.5t-133.5 -25.5q-57 0 -57 38z" />
<glyph unicode="[" horiz-adv-x="626" d="M205 842q0 313 17.5 554.5t45.5 377.5q20 98 69.5 144t147.5 46q72 0 104 -22.5t32 -51.5q0 -10 -3.5 -20t-11.5 -21q-23 4 -50.5 6.5t-47.5 2.5q-63 -2 -91 -21.5t-38 -64.5q-12 -59 -22.5 -154.5t-17.5 -217.5t-11 -263.5t-4 -294.5q0 -154 4 -298.5t12 -269t17.5 -223 t21.5 -157.5q8 -45 37.5 -66t99.5 -21q20 0 45 2.5t47 6.5q18 -23 19 -47q0 -29 -31 -48.5t-98 -19.5q-49 0 -88 7t-67 26.5t-46 54.5t-29 88q-14 68 -25.5 168t-19.5 225t-13 270.5t-5 301.5z" />
<glyph unicode="\" horiz-adv-x="1044" d="M41 1862q0 82 17.5 116.5t50.5 34.5q29 0 45 -22q-14 -113 2 -276t58 -351t107.5 -389t150.5 -392.5t187.5 -362.5t217.5 -296q35 -37 63.5 -56.5t54.5 -29.5q10 -25 -5 -54.5t-62 -29.5q-29 0 -62 19.5t-86 72.5q-92 100 -183 247t-173 320t-152.5 363.5t-122 381 t-80 370.5t-28.5 334z" />
<glyph unicode="]" horiz-adv-x="626" d="M0 -231q0 25 18 47q23 -4 47.5 -6.5t45.5 -2.5q70 0 99.5 20.5t37.5 66.5q12 59 21.5 157.5t17.5 223t12 269t4 298.5t-4 295t-11 263t-17.5 217t-22.5 155q-10 45 -38 64t-91 22q-20 0 -48 -2.5t-51 -6.5q-8 10 -11 20.5t-3 20.5q0 29 32 51.5t103 22.5q94 0 144.5 -43 t72.5 -147q29 -135 46.5 -377t17.5 -555q0 -156 -5 -298.5t-13.5 -264t-19.5 -220t-26 -165.5q-23 -109 -76 -151t-153 -42q-68 0 -98.5 19.5t-30.5 48.5z" />
<glyph unicode="^" horiz-adv-x="968" d="M123 1022q25 14 54.5 52t59 89t57.5 113.5t49.5 125t34.5 122t13 106.5q10 10 28.5 19.5t37.5 9.5q31 0 45 -16.5t22 -55.5q25 -125 66 -225t85 -174t88 -117t79 -55q8 -33 -8.5 -56.5t-57.5 -23.5q-35 0 -80 39t-91 111.5t-86 173t-64 223.5q-10 -61 -29.5 -124 t-44.5 -121t-50.5 -108.5t-49.5 -89.5q-47 -76 -101 -75q-25 0 -41 14t-16 43z" />
<glyph unicode="_" horiz-adv-x="1085" d="M-20 -244q0 29 27.5 47.5t92.5 28.5q63 10 162.5 17.5t241.5 7.5q279 0 448 -35q53 -10 72.5 -24.5t19.5 -37.5q0 -25 -22 -39q-25 6 -74 12.5t-111.5 12.5t-136 9t-149.5 3q-109 0 -190.5 -4t-145 -10t-111 -15.5t-84.5 -19.5q-41 10 -40 47z" />
<glyph unicode="`" horiz-adv-x="507" d="M61 1233q0 23 13.5 37t36.5 14q18 0 32 -10q14 -35 47 -70t74 -63.5t86 -48t84 -25.5q12 -12 12 -29q0 -18 -15 -31.5t-48 -13.5q-37 0 -92 21.5t-106.5 55.5t-87.5 77t-36 86z" />
<glyph unicode="a" horiz-adv-x="876" d="M-68 262q0 111 31 217.5t84 189.5t125 133t154 50q61 0 106 -23.5t75 -64.5t44 -96.5t14 -118.5t-13 -89t-36 -30q0 -82 -31 -176q20 -182 111 -182q31 0 61.5 23.5t63.5 80.5t71.5 153.5t86.5 243.5q43 0 43 -43q0 -14 -4 -32q-41 -164 -81 -271.5t-81 -172t-85 -90 t-91 -25.5q-123 0 -172 149q-47 -78 -113 -130t-141 -52q-94 0 -158 90t-64 266zM37 303q0 -129 42 -198.5t103 -69.5q53 0 107.5 51t93.5 129q-2 18 -3 38.5t-1 43.5q-1 125 27 197q23 61 56 61q6 0 13 -2q-8 88 -51 134t-113 46q-61 0 -111 -37t-86 -96t-56.5 -137 t-20.5 -160z" />
<glyph unicode="b" horiz-adv-x="958" d="M-39 571q0 78 33 142q4 57 6 111.5t8 107.5q-23 14 -33 32.5t-10 35t8.5 29.5t22.5 20q6 -8 22 -21q20 156 54 279t75 209t86.5 132t92.5 46q61 0 92 -74t31 -182q0 -109 -27 -207t-73 -172q-45 -74 -109 -116q-58 -38 -125 -38h-13q-4 -23 -5 -46t-3 -46q37 18 83 29.5 t106 11.5q88 0 162.5 -33t128 -90t83 -137t29.5 -174q0 -92 -22 -178q100 37 175.5 119.5t118.5 211.5q43 0 43 -43q0 -14 -4 -32q-18 -72 -56 -131.5t-88 -106.5t-109.5 -81t-120.5 -52q-49 -104 -128 -166.5t-169 -62.5q-119 0 -209 116.5t-117 376.5q-39 88 -39 180z M90 702q-1 -25 -1 -51q0 -53 3 -107q4 -82 10 -134q55 -88 159 -141.5t237 -53.5h27.5t37.5 4q23 68 23 150t-23.5 150.5t-70 118.5t-112 78.5t-147.5 28.5q-100 0 -143 -43zM111 999h11q45 0 82 30q42 34 72.5 92.5t48 137t17.5 166.5q0 59 -11.5 97.5t-33.5 38.5 q-18 0 -44 -40t-52.5 -114t-50 -177.5t-39.5 -230.5zM147 211q35 -98 86.5 -145.5t114.5 -47.5q90 0 158 86q-14 -2 -22.5 -2h-18.5q-90 0 -171 29t-147 80z" />
<glyph unicode="c" horiz-adv-x="716" d="M-53 297q0 106 28.5 206.5t78.5 178.5t119 126t149 48q94 0 138 -65.5t44 -167.5q0 -57 -12.5 -105.5t-32 -83.5t-44 -54.5t-46.5 -19.5q-23 0 -38.5 20.5t-17.5 61.5q-1 9 -1 17q0 55 22 114q26 68 74 111q-14 29 -38 46.5t-61 17.5q-53 0 -100 -33t-82 -89.5 t-56.5 -131t-21.5 -158.5q0 -160 59.5 -236.5t163.5 -76.5q57 0 113.5 23.5t112 85t110 168t109.5 273.5q43 0 43 -43q0 -14 -4 -32q-43 -172 -100.5 -288t-123 -185.5t-137 -98t-141.5 -28.5q-66 0 -122 24.5t-97 73.5t-64.5 124t-23.5 177z" />
<glyph unicode="d" horiz-adv-x="1030" d="M-57 274q0 127 32.5 232.5t87 180.5t126 116t149.5 41h17t18 -2q4 248 40 447.5t90 341t119.5 218t131.5 76.5q35 0 64.5 -22.5t52 -72.5t35 -131t12.5 -196q0 -174 -29 -348t-77 -337t-111.5 -308t-135.5 -262q39 -88 84 -131t82 -43q25 0 56.5 21.5t69.5 76.5t81 152.5 t92 248.5q43 0 43 -43q0 -14 -4 -32q-41 -160 -83 -267.5t-86 -172t-90 -92t-93 -27.5q-59 0 -118.5 51t-109.5 149q-78 -104 -156.5 -162.5t-148.5 -58.5q-109 0 -175 96.5t-66 259.5zM49 303q0 -135 47 -196.5t105 -61.5q53 0 117.5 51.5t130.5 143.5q-33 94 -52.5 212.5 t-23.5 266.5q-23 8 -54 8q-59 0 -108 -35t-85 -93t-56.5 -135t-20.5 -161zM475 805q25 -18 37 -41t12 -41q0 -33 -14.5 -49.5t-30.5 -26.5q4 -86 16.5 -157.5t28.5 -131.5q55 98 106.5 221t89.5 263.5t60.5 296t22.5 319.5q0 92 -6 154.5t-16.5 100.5t-25 53.5t-30.5 15.5 q-31 0 -73 -71t-81 -199t-66.5 -308t-29.5 -399z" />
<glyph unicode="e" horiz-adv-x="702" d="M-49 295q0 119 29.5 220t76.5 173t108.5 113t127.5 41q45 0 75.5 -17.5t51 -47t30 -69.5t9.5 -85q0 -74 -23.5 -135.5t-61.5 -106.5t-86 -69.5t-98 -24.5q-41 0 -82.5 15t-64.5 44v-16q0 -152 58.5 -229.5t148.5 -77.5q51 0 109.5 27.5t118 92t116.5 169.5t108 261 q43 0 43 -43q0 -14 -4 -32q-39 -154 -97 -266.5t-126.5 -186.5t-142.5 -109.5t-142 -35.5q-127 0 -204.5 98t-77.5 297zM59 465q14 -37 48 -57.5t75 -20.5q29 0 57.5 13.5t52 41t39 67.5t15.5 93t-20.5 93t-61.5 40q-31 0 -61.5 -21.5t-58 -58.5t-50 -86t-35.5 -104z" />
<glyph unicode="f" horiz-adv-x="698" d="M-114 700q0 33 34 50q18 -18 43 -31q20 197 55 364.5t78 291.5t92.5 194.5t100.5 70.5q53 0 93 -87t40 -259q0 -137 -30 -260t-81 -216t-116.5 -149.5t-139.5 -62.5q-4 -31 -5 -61.5t-3 -61.5q129 -4 233.5 -90t172.5 -233q66 41 126 137t119 276q43 0 43 -43 q0 -14 -4 -32q-43 -172 -106.5 -278.5t-141.5 -160.5q53 -160 54 -354q0 -141 -23.5 -254t-63.5 -190.5t-91.5 -118.5t-106.5 -41q-68 0 -127 63.5t-103 193.5t-70 329.5t-26 472.5v51.5t2 50.5q-8 20 -13 45t-5 49.5t5 46t20 37.5q4 47 7 92.5t7 90.5q-12 4 -33 18 q-36 24 -36 59zM37 102q2 -195 22.5 -352.5t54 -269t78 -172t95.5 -60.5q29 0 55.5 29t48 81t33.5 128t12 172q0 100 -14 187t-39 161q-47 -10 -88 -10q-76 0 -141.5 29.5t-116.5 76.5zM37 283q16 -35 47 -66t71 -53.5t86 -33.5q34 -8 68 -8q12 0 25 1q-31 61 -68 110.5 t-75.5 83t-77.5 49.5q-29 13 -54 13q-9 0 -18 -2zM63 705q53 8 99.5 58t81.5 128t54 179t19 212q0 104 -16 158.5t-39 54.5t-49.5 -59.5t-54 -165t-52 -251t-43.5 -314.5z" />
<glyph unicode="g" horiz-adv-x="870" d="M-651 -958q0 104 45 205.5t125 192.5t190.5 167t242.5 132t280.5 87t304.5 31q10 0 18 -1t16 -1h17q-25 109 -51.5 206t-42.5 177q-66 -160 -154 -245t-186 -85q-100 0 -162 85t-62 236q0 133 34 248t90.5 199t131 131t156.5 47q45 0 81 -15.5t62.5 -40t41 -56 t14.5 -64.5q0 -18 -4 -39q8 4 16 4q49 0 49 -88q0 -31 -8 -67.5t-25 -77.5q10 -100 53.5 -250t84.5 -320q152 -31 229.5 -112.5t77.5 -190.5q0 -133 -81 -254t-216 -203q-41 -119 -111.5 -209t-164 -151t-206 -92t-237.5 -31q-147 0 -267 35t-205 94.5t-131 141t-46 174.5z M-541 -930q0 -78 40 -143.5t114 -112.5t180.5 -74.5t241.5 -27.5q197 0 338 80t213 227q-66 -25 -135.5 -38t-143.5 -13q-113 0 -193 21.5t-137 62.5q-27 18 -46 41.5t-19 54.5q0 23 12.5 37t32.5 14q61 -59 145 -89t205 -30q96 0 178 17.5t148 48.5q24 88 24 194v9 q0 96 -13 193.5t-32 195.5q-29 4 -57.5 6t-60.5 2q-209 0 -397.5 -60.5t-330 -157.5t-224.5 -218t-83 -240zM41 268q0 -111 35 -171t100 -60q66 0 148 90t145 281q0 57 7.5 101t19.5 75q-27 -8 -45 4q0 23 -8.5 49.5t-25 49t-43 36.5t-61.5 14q-51 0 -100 -34.5t-87 -97 t-61.5 -148.5t-23.5 -189zM733 -289q16 -80 25.5 -158.5t9.5 -156.5q0 -47 -4 -91t-10 -85q72 59 108.5 135t36.5 156q0 66 -40 118t-126 82z" />
<glyph unicode="h" horiz-adv-x="976" d="M-102 784v6q0 30 32 48q25 -27 66 -39v26q2 260 32.5 460t80 334t114 202.5t135.5 68.5q78 0 130.5 -87t52.5 -247q0 -166 -38 -312t-99.5 -259t-138.5 -187.5t-156 -95.5q0 -86 3 -169.5t6 -154.5t6 -123t7 -73q2 -12 9 -13t12 9q23 51 50 127t58 157t63.5 156.5 t65.5 126.5q31 49 58.5 69t56.5 20q41 0 63.5 -38t34.5 -120q8 -49 14.5 -108.5t11.5 -120t11 -120t14 -108.5q12 -78 30.5 -123t51.5 -45q23 0 47.5 27.5t53 90t63.5 162t82 242.5q43 0 43 -43q0 -14 -4 -32q-76 -303 -150.5 -441.5t-158.5 -138.5q-63 0 -112.5 61.5 t-68.5 215.5q-6 55 -11 116.5t-10 122t-11 117.5t-15 102q-4 25 -14 30t-27 -26q-31 -57 -61.5 -127.5t-57 -141.5t-49 -136.5t-41.5 -110.5q-20 -53 -36.5 -83.5t-30.5 -47t-27.5 -21.5t-27.5 -5q-16 0 -29.5 7t-26 28.5t-21.5 59.5t-16 99q-4 43 -8 103.5t-7 130t-5 143.5 t-2 143q-18 4 -33.5 13.5t-32.5 19.5q-29 19 -32 53zM106 803q59 23 116 89t101 161.5t70.5 214t26.5 248.5q0 129 -26.5 183t-61.5 54t-72 -55.5t-69.5 -159.5t-55 -254.5t-26.5 -343.5q-2 -33 -2.5 -67.5t-0.5 -69.5z" />
<glyph unicode="i" horiz-adv-x="452" d="M-47 1120q0 86 55 160q-6 21 -6 39q0 49 35 77.5t113 28.5q104 0 154 -49t50 -116q0 -55 -24.5 -105.5t-62.5 -90.5t-84 -63.5t-89 -23.5q-68 0 -104.5 39t-36.5 104zM-35 289q0 43 5 95t13.5 103.5t19.5 98.5t24 80q16 37 34.5 58t47.5 21q27 0 43 -16 q-35 -100 -50.5 -203.5t-15.5 -210.5q0 -131 29.5 -190t77.5 -59q25 0 50 22.5t56 79.5t67.5 155.5t86.5 249.5q43 0 43 -43q0 -14 -4 -32q-41 -160 -81 -268.5t-81 -174t-84 -94.5t-90 -29q-82 0 -136.5 82t-54.5 275zM49 1182q0 -39 24.5 -59.5t65.5 -20.5q43 0 79 30.5 t36 75.5q0 31 -30.5 61.5t-90.5 30.5q-23 0 -47 -6q-20 -35 -28.5 -62t-8.5 -50z" />
<glyph unicode="j" horiz-adv-x="393" d="M-213 -1247q0 27 18 49q11 -1 23 -1q63 0 118 19q64 23 111 75t75 132t28 189q0 129 -28 264t-59.5 282.5t-59 310.5t-27.5 349q0 176 34.5 254t88.5 78q39 0 55 -33q-29 -41 -45.5 -113.5t-16.5 -171.5q0 -199 26 -358.5t57.5 -298.5t57 -269.5t25.5 -269.5 q0 -147 -37.5 -252.5t-96 -172t-127 -98.5t-130.5 -32q-41 0 -65.5 19.5t-24.5 48.5zM-37 1167q0 51 9 102.5t32 96.5q18 41 42 50q9 3 18 3q16 0 34 -10q47 15 86 15q43 0 76 -18q64 -34 64 -118q0 -59 -19.5 -109.5t-52.5 -89t-74 -60t-86 -21.5q-59 0 -94 44t-35 115z M68 1288q-6 -40 -6 -70q0 -46 14 -69q24 -39 57 -39q39 0 68.5 34t29.5 85q0 78 -86 78q-41 0 -77 -19z" />
<glyph unicode="k" horiz-adv-x="987" d="M-100 736q-1 4 0 8q0 30 30 49q27 -31 70 -39q6 305 46 523t97.5 357.5t125 205t126.5 65.5q88 0 137.5 -86t49.5 -258q0 -164 -43 -317.5t-112 -277.5t-154 -208t-169 -107v-43v-136t5 -144q27 100 79 194t115.5 166t132 115t129.5 43q90 0 131 -62.5t41 -154.5 q0 -90 -34.5 -168t-93 -135.5t-134.5 -89.5q-67 -28 -140 -27h-18q33 -37 73 -68.5t82 -55.5t83 -37t78 -13q45 0 85 18.5t81 75.5t86 163.5t102 280.5q43 0 43 -43q0 -14 -4 -32q-43 -170 -89 -284t-96 -182.5t-102.5 -97t-107.5 -28.5q-57 0 -128 30.5t-137.5 81t-121 114 t-78.5 130.5q-14 -47 -22.5 -96t-8.5 -98q0 -53 10 -99q-20 -16 -45 -16q-27 0 -44 20.5t-27 94.5q-8 51 -13.5 120.5t-9.5 148.5t-6 160t-2 152q-29 6 -64 31q-30 20 -34 56zM106 758q59 25 123 96.5t115 176t84 233.5t33 268q0 129 -26.5 183t-61.5 54q-39 0 -83 -67.5 t-82 -196.5t-66.5 -317.5t-35.5 -429.5zM207 367h13.5t15.5 -2q2 -23 12 -43q41 -14 92 -15q66 0 120 23.5t94 63.5t61.5 92.5t21.5 111.5q0 115 -94 115q-37 0 -82 -27t-90 -74t-88 -109.5t-76 -135.5z" />
<glyph unicode="l" horiz-adv-x="606" d="M-98 759q4 36 41 46q20 -37 53 -55q2 246 31.5 460.5t77 373.5t109.5 250t132 91q82 0 124 -114t42 -298q0 -145 -30.5 -297.5t-86 -279.5t-130.5 -212t-163 -95q6 -154 28 -262.5t50.5 -179t60 -103.5t62.5 -33q20 0 51 20.5t69 78t84 159t99 264.5q43 0 43 -43 q0 -14 -4 -32q-39 -158 -84 -267.5t-93 -180t-94 -102.5t-89 -32q-53 0 -103.5 43t-90.5 132t-65.5 226.5t-29.5 325.5q-35 14 -68 47q-27 29 -27 60q0 4 1 9zM100 731q53 10 106.5 73.5t95.5 168t68.5 243t26.5 297.5q0 57 -6 106.5t-16 86.5t-24.5 58.5t-31.5 21.5 q-31 0 -68.5 -79t-71.5 -217t-56.5 -325.5t-22.5 -404.5v-29z" />
<glyph unicode="m" horiz-adv-x="1355" d="M0 573q20 63 59 64q23 0 42.5 -27.5t31.5 -99.5q14 -76 21.5 -176t7.5 -184q0 -20 4 -17.5t8 12.5q12 45 30.5 113t39 143.5t43 150.5t43.5 134q68 193 147 193q66 0 66 -127q0 -100 2 -199.5t6 -184.5t10 -151.5t14 -101.5q4 -14 8.5 -18.5t10.5 18.5q14 49 33.5 114.5 t41 134t46 136t47.5 123.5q33 78 68.5 121.5t72.5 43.5q35 0 56.5 -33.5t25.5 -111.5q10 -172 23.5 -284.5t30 -178t36 -92.5t41.5 -27q18 0 38 18.5t47.5 74t64.5 156t90 263.5q43 0 43 -43q0 -14 -4 -32q-43 -172 -81 -283t-73 -174.5t-71.5 -88t-75.5 -24.5q-47 0 -84 32 t-64.5 108.5t-46 204.5t-27.5 321q-2 35 -10 32t-20 -32q-23 -55 -48.5 -127t-49 -147.5t-44 -147.5t-34.5 -125q-20 -76 -43 -102.5t-52 -26.5q-35 0 -62.5 35t-43.5 115q-23 123 -29 272t-6 324q0 14 -6 13t-10 -13q-14 -37 -34 -102.5t-41.5 -140.5t-43 -153t-37.5 -141 q-27 -98 -56.5 -138t-64.5 -40q-29 0 -45 27.5t-18 93.5q-4 201 -25.5 328.5t-48.5 174.5z" />
<glyph unicode="n" horiz-adv-x="923" d="M-28 228v37q0 55 4 112q4 76 14 145.5t24 112.5q12 37 32 51t42 14q23 0 37 -9t18 -21q-12 -16 -26.5 -82t-23.5 -151t-13 -171q-1 -29 -2 -54q0 -50 6 -87q4 -23 12 -26t19 22q23 49 51.5 132t61 172t66.5 171t68 133q59 90 119 90q43 0 57.5 -37t14.5 -94 q0 -145 5 -263t18.5 -201t35 -128t54.5 -45q25 0 50 24.5t55 85t66.5 161t86.5 251.5q43 0 43 -43q0 -14 -4 -32q-41 -160 -79 -270.5t-77 -179t-81 -99.5t-87 -31q-61 0 -99 53.5t-59.5 136t-30 184t-8.5 197.5q0 41 1 79t1 75q0 23 -8 26t-24 -28q-33 -59 -63 -136 t-57.5 -155t-52 -148.5t-42.5 -115.5q-35 -80 -63 -103.5t-52 -23.5q-33 0 -62.5 34t-39.5 113q-6 49 -8 122z" />
<glyph unicode="o" horiz-adv-x="804" d="M-59 295q0 88 22.5 179t67.5 161q8 92 57 149.5t135 57.5q74 0 132.5 -39t99.5 -105.5t62.5 -156.5t21.5 -193q0 -31 -2 -58.5t-7 -49.5q41 8 79 28.5t72 58.5t64.5 98t59.5 148h1q42 0 42 -43q0 -14 -4 -32q-23 -90 -59.5 -157t-82 -111t-96.5 -69.5t-104 -33.5 q-41 -111 -118 -168t-169 -57q-123 0 -198.5 98t-75.5 295zM37 330q0 -147 59.5 -225t145.5 -78q98 0 157 100q-57 10 -111.5 40t-99.5 74t-80.5 101t-56.5 121q-14 -59 -14 -133zM115 614q0 -66 27.5 -130t73.5 -116.5t104.5 -88t117.5 -43.5q8 31 8 88q0 88 -19 162.5 t-52 127t-76 82t-90 29.5q-51 0 -76 -35q12 -6 23 -24q-10 -10 -20.5 -23t-20.5 -29z" />
<glyph unicode="p" horiz-adv-x="999" d="M-12 614v23q0 116 18 182q21 72 51 72q25 0 34 -49q3 -14 3 -35q0 -49 -16 -135q2 -39 4 -79t6 -83q35 74 84 136.5t104.5 107.5t111.5 68q51 20 98 20h8q57 0 102 -30t75.5 -81t46 -119.5t15.5 -146.5q0 -188 -87 -314t-228 -159q37 -23 77 -39t87 -16t96 30.5t100 104 t106.5 195.5t114.5 306q43 0 43 -43q0 -14 -4 -32q-84 -336 -208.5 -507t-266.5 -171q-45 0 -82 12t-70.5 33.5t-70.5 52.5t-82 68q-61 8 -100 34q33 -197 60.5 -385t29.5 -346q0 -90 -9.5 -152.5t-26.5 -102.5t-39.5 -58t-47.5 -18q-16 0 -34 8t-28 28q14 20 25.5 47t20 65 t13.5 90t5 124q0 98 -9 205.5t-22.5 218.5t-30 221.5t-30.5 214.5q-31 8 -40 43q-2 9 -2 21q0 36 19 100q-10 78 -16 147.5t-8 122.5zM109 336l28 -193q14 8 41 9q35 -2 70 -27t74 -57q82 2 139 36.5t91 87t49 118t15 132.5q0 129 -43 205t-118 76q-43 0 -93.5 -28.5 t-98.5 -81t-89 -123t-65 -154.5z" />
<glyph unicode="q" horiz-adv-x="882" d="M-63 260q0 127 33.5 237.5t89 191.5t127 127t149.5 46q98 0 150 -60q49 -57 49 -145v-14q40 0 40 -74q0 -35 -8 -81t-23.5 -99t-36 -108.5t-46.5 -104.5q35 -23 78 -70q13 -3 26 -3q26 0 53 11q41 17 83 70.5t87.5 147.5t94.5 241q43 0 43 -43q0 -14 -4 -32 q-33 -129 -69 -219.5t-74 -149.5t-76.5 -91t-77.5 -44q86 -139 147.5 -341t61.5 -446q0 -141 -24 -246.5t-60.5 -174t-84 -102.5t-94.5 -34q-53 0 -104 44t-90 137.5t-62.5 240t-23.5 350.5q0 141 11 286t34 290q-41 -45 -89 -67.5t-95 -22.5q-92 0 -153.5 89t-61.5 263z M41 293q0 -133 40 -195.5t101 -62.5q35 0 71 18.5t64 52.5q-14 29 -14 64q0 23 17.5 38t58.5 5q16 68 33.5 133.5t38.5 130.5q-23 0 -39 17q22 47 22 109v5q0 66 -31.5 100.5t-83.5 34.5q-63 0 -114 -38.5t-88 -103t-56.5 -145.5t-19.5 -163zM397 -510q0 -186 17.5 -318.5 t44 -216t60.5 -122.5t65 -39q55 0 104 98t49 299q0 113 -18.5 227.5t-52 220t-80.5 195.5t-107 154l-47 18q-16 -125 -25.5 -262t-9.5 -254z" />
<glyph unicode="r" horiz-adv-x="657" d="M-37 659q0 47 7 89.5t17.5 74t25 50t30.5 18.5q41 0 41 -100q0 -33 -4 -83.5t-17 -111.5q12 -12 39 -12q43 0 90.5 53t75.5 139q10 8 29 8q49 0 65 -43q4 -10 4 -23q0 -22 -10 -54q-63 -215 -63 -402q0 -121 29.5 -167t64.5 -46q25 0 52.5 25.5t59 87t70.5 161.5t88 250 q43 0 43 -43q0 -14 -4 -32q-41 -166 -81 -277.5t-80.5 -178.5t-83.5 -95.5t-89 -28.5q-86 0 -133 81t-47 241q0 74 12.5 163t43.5 181q-31 -59 -73 -87t-81 -28q-55 0 -88 46t-33 144z" />
<glyph unicode="s" horiz-adv-x="702" d="M-125 102q0 53 31 82t80 29q39 0 87 -17.5t100 -37.5q51 -21 107 -36q44 -12 87 -12q11 0 22 1q0 59 -31.5 106t-79 88t-101.5 81t-101 84t-78 96t-31 120q0 102 26.5 164.5t59.5 62.5q47 0 47 -104q0 -39 -7 -88t-19 -96q53 -63 122.5 -109.5t132 -96.5t107.5 -112.5 t49 -156.5q51 41 103.5 139t113.5 284q43 0 43 -43q0 -14 -4 -32q-47 -184 -117.5 -304t-156.5 -167q-29 -82 -94.5 -134.5t-163.5 -52.5q-59 0 -119.5 19.5t-108 54.5t-77 83t-29.5 105zM-39 92q0 -23 21.5 -47.5t58.5 -46t86 -34.5t106 -13q76 0 117 45q-53 2 -105 20.5 t-101.5 40t-90.5 39t-67 17.5q-25 0 -25 -21z" />
<glyph unicode="t" horiz-adv-x="518" d="M-219 952q0 31 26 45q18 -8 51 -12t68 -4q23 0 45.5 2t42.5 6q18 176 51 268.5t74 92.5q16 0 29.5 -32t13.5 -118q0 -37 -3 -79t-11 -93q35 10 71.5 16.5t77.5 6.5q76 0 107 -26t31 -60q0 -23 -13.5 -39.5t-29.5 -20.5q-23 16 -53.5 25.5t-77.5 9.5q-35 0 -67 -4t-62 -12 q-10 -57 -24.5 -126t-35.5 -149v-42q0 -139 12 -239q14 -114 35 -186.5t48.5 -105.5t54.5 -33q25 0 51 22.5t59 82t73 163t93 262.5q43 0 43 -43q0 -14 -4 -32q-41 -160 -82 -272.5t-84 -183.5t-85 -102.5t-81 -31.5q-47 0 -88 38t-71.5 121t-49 215t-18.5 322q0 80 2 150.5 t6 136.5q-25 -4 -52.5 -7t-55.5 -3q-61 0 -89 19.5t-28 51.5z" />
<glyph unicode="u" horiz-adv-x="890" d="M-25 317q0 135 25 269.5t59 220.5q31 74 78 74q23 0 39 -11q-16 -35 -31.5 -91t-28 -124.5t-19.5 -142.5t-7 -143q0 -88 11.5 -149.5t27.5 -100.5t37.5 -57.5t44.5 -18.5q43 0 91 55.5t101 177.5q-2 20 -2 41v41q0 72 13.5 140.5t34 122t45 86t47.5 32.5q39 0 39 -61 q0 -59 -21.5 -159.5t-60.5 -207.5q4 -125 43 -183t86 -58q25 0 49 19.5t55 74.5t70 153t90 256q43 0 43 -43q0 -14 -4 -32q-41 -160 -79 -267.5t-76 -172t-80 -92t-87 -27.5q-72 0 -115.5 58t-66.5 144q-51 -100 -113.5 -166.5t-130.5 -66.5q-88 0 -147.5 100.5t-59.5 308.5 z" />
<glyph unicode="v" horiz-adv-x="768" d="M-59 522q0 92 19.5 146.5t47.5 54.5q47 0 47 -109q0 -61 -18 -147q12 -113 32.5 -190.5t45 -127t51 -72t51.5 -22.5q27 0 54.5 33t52 85t45 116.5t32.5 130.5q-36 84 -36 204v7q0 98 22.5 154.5t50.5 56.5q25 0 43.5 -44t18.5 -163q0 -94 -19 -195q23 -35 54.5 -53 t62.5 -18q20 0 42 8t43.5 30.5t43 62.5t41.5 103q43 0 43 -43q0 -14 -4 -32q-16 -68 -43 -113t-56.5 -72.5t-60.5 -39t-57 -11.5q-76 0 -131 66q-20 -82 -48 -158t-61 -133t-70.5 -92t-76.5 -35q-66 0 -115 58.5t-82 149.5t-49 198.5t-16 205.5z" />
<glyph unicode="w" horiz-adv-x="1142" d="M-51 436q0 152 28.5 235t65.5 83q35 0 35 -66q0 -31 -9.5 -84t-27.5 -121q0 -111 14.5 -188.5t38 -126.5t53 -71.5t58.5 -22.5q43 0 86 50t63 136q-12 82 -12 184q0 129 26.5 201t55.5 72q23 0 37 -40t14 -118q0 -57 -6 -112.5t-16 -110.5q14 -141 63 -223t105 -82 q25 0 49 23.5t45.5 65.5t38 101.5t22.5 130.5q-20 47 -31.5 109.5t-11.5 144.5q0 121 20.5 181.5t49.5 60.5t50.5 -83t20.5 -222q0 -39 -2 -80t-8 -86q39 -39 90 -39q23 0 46.5 8t47 34t47 72t48.5 121q43 0 43 -43q0 -14 -4 -32q-20 -80 -48 -131.5t-60 -82t-64.5 -42 t-63.5 -11.5q-55 0 -100 31q-14 -72 -36 -138.5t-51.5 -117.5t-68.5 -81.5t-88 -30.5q-63 0 -120.5 60t-94.5 171q-41 -98 -92 -142t-105 -44q-47 0 -90 31.5t-76.5 94t-54 155.5t-20.5 216z" />
<glyph unicode="x" horiz-adv-x="675" d="M-102 -348q0 33 8 79t28 107q27 86 64 176t82 185q-41 98 -64.5 211.5t-23.5 230.5q0 18 2 42t7 46.5t15.5 37.5t26.5 15q23 0 33 -36q5 -18 5 -44t-5 -61q4 -86 20.5 -167t42.5 -150q68 141 132.5 269t105.5 226q14 35 22.5 61.5t12.5 51.5q14 12 37 12q16 0 28 -11 t12 -36q0 -35 -26 -106q-45 -111 -122 -262.5t-153 -315.5q41 -74 89.5 -118t93.5 -44q27 0 57.5 18.5t67 74t81 157.5t99.5 272q43 0 43 -43q0 -14 -4 -32q-74 -299 -164 -439.5t-195 -140.5q-59 0 -116.5 47t-104.5 125q-29 -66 -52.5 -127t-39.5 -121q-29 -98 -35 -160 q-3 -31 -3 -53.5t3 -38.5q-15 -26 -47 -26h-2q-61 0 -61 88z" />
<glyph unicode="y" horiz-adv-x="913" d="M-356 -829q0 45 23.5 65.5t58.5 9.5q0 -68 36.5 -132t99 -114.5t144.5 -80t174 -29.5q248 0 389.5 141.5t141.5 399.5q0 137 -23.5 261t-55.5 237.5t-62.5 221t-45.5 214.5q-63 -219 -158.5 -339t-191.5 -120q-47 0 -85 20.5t-64.5 64.5t-42 114.5t-15.5 170.5 q0 57 6.5 123t17.5 130.5t27.5 126t38.5 112.5q16 39 36 55.5t44 16.5q23 0 39 -11q-51 -115 -72.5 -250t-21.5 -251q0 -86 10 -141.5t27.5 -87t38 -45t41.5 -13.5q70 0 151.5 132t161.5 411q12 53 53 53q20 0 41 -10q-6 -41 -6 -83q0 -81 20 -166q31 -130 76 -275.5 t85 -306.5t40 -339q0 -158 -48 -283.5t-135 -214.5t-208 -137.5t-264 -48.5q-111 0 -206 35t-165.5 91.5t-110.5 127t-40 144.5z" />
<glyph unicode="z" horiz-adv-x="708" d="M-43 -35q0 31 18.5 72t46 78t58.5 61.5t57 20.5q33 41 67 94t64.5 110.5t56 117t42.5 114.5q-57 -80 -138.5 -123t-144.5 -43q-59 0 -91 39t-32 131q0 111 23.5 181.5t50.5 70.5q41 0 41 -101q0 -31 -4 -91t-13 -111q14 -6 35 -6q51 0 102.5 22.5t93.5 56t70.5 74.5 t36.5 78q6 4 15.5 5t13.5 1q72 0 72 -67q0 -53 -24.5 -127t-65.5 -157t-92.5 -168t-102.5 -157q39 -35 86 -69.5t92 -34.5q31 0 63.5 19.5t70.5 76.5t83 162.5t101 277.5q43 0 43 -43q0 -14 -4 -32q-78 -311 -171.5 -450.5t-179.5 -139.5q-33 0 -65.5 15.5t-64 38t-60.5 51 t-53 53.5q-18 -23 -37 -43.5t-35 -36.5q-31 -29 -55.5 -43.5t-40.5 -14.5q-29 0 -29 37z" />
<glyph unicode="{" d="M123 721q0 25 33.5 44t107.5 19q41 0 82 -10q53 43 53 137q0 55 -21.5 122t-48 143.5t-48 163.5t-21.5 188q0 88 22.5 161.5t60.5 127t88 83t106 29.5q41 0 57 -20.5t6 -48.5q-117 -6 -176 -94.5t-59 -219.5q0 -90 21.5 -175t46 -163t46 -148.5t21.5 -133.5 q0 -59 -21.5 -105.5t-58.5 -81.5q45 -31 68.5 -77t23.5 -97q0 -68 -20.5 -139.5t-44 -145t-44 -148.5t-20.5 -146q0 -115 61.5 -163t153.5 -26q27 -35 2 -69.5t-104 -34.5q-47 0 -88 18.5t-73 52t-50.5 82t-18.5 107.5q0 80 22.5 162t49.5 160.5t49.5 149.5t22.5 130 q0 90 -70 133q-49 -18 -107 -18q-53 0 -81.5 15t-28.5 36z" />
<glyph unicode="|" horiz-adv-x="598" d="M205 1978q8 16 22.5 26.5t36.5 10.5q25 0 45.5 -16.5t33.5 -57t21.5 -112.5t8.5 -184q0 -86 -4 -200t-9.5 -244t-11.5 -269t-11 -278.5t-9 -272.5t-4 -248q0 -201 20.5 -303t48.5 -149q-10 -20 -27.5 -30.5t-39.5 -10.5q-29 0 -52.5 23.5t-40.5 88.5q-27 113 -26 332 q0 100 4 223t10 256t13.5 271.5t13.5 269.5t10 247.5t4 209.5q0 94 -4 162.5t-11 116.5t-18.5 81t-23.5 57z" />
<glyph unicode="}" horiz-adv-x="743" d="M168 1855q-8 29 8.5 50.5t61.5 21.5q43 0 92 -17.5t90 -56t67.5 -101t26.5 -150.5q0 -96 -25.5 -188.5t-56.5 -177.5t-56.5 -162t-25.5 -142q0 -53 17.5 -92t52.5 -58q23 6 47.5 10.5t52.5 4.5q55 0 78 -16.5t23 -35.5q0 -29 -36 -46t-104 -17q-33 0 -69 10 q-43 -23 -62.5 -64.5t-19.5 -92.5q0 -68 27.5 -137.5t59.5 -143.5t59.5 -150.5t27.5 -156.5q0 -123 -66.5 -190.5t-165.5 -67.5q-72 0 -95 29.5t-1 64.5q104 -16 161.5 19.5t57.5 131.5q0 70 -26.5 145t-59.5 149.5t-59.5 149.5t-26.5 142q0 59 28 117.5t81 99.5 q-39 33 -60.5 81t-21.5 108q0 63 24.5 141t55 163t55.5 172t25 171q0 129 -62.5 202.5t-179.5 79.5z" />
<glyph unicode="~" horiz-adv-x="1067" d="M123 692q0 33 15.5 66t44 58.5t69.5 40.5t92 15q66 0 121 -23.5t106.5 -51t101.5 -51t105 -23.5q43 0 67.5 26.5t14.5 77.5q41 23 62.5 2.5t21.5 -57.5q0 -57 -49 -100t-135 -43q-61 0 -115.5 22.5t-107 49t-105.5 49t-110 22.5q-61 0 -89 -40t-22 -95q-35 -18 -61.5 -3 t-26.5 58z" />
<glyph unicode="&#xa2;" horiz-adv-x="1474" d="M61 403q0 123 61.5 232.5t161 202t226.5 161t256 109.5q16 61 47 128t70 130.5t84 118.5t92 94q37 33 74 33q27 0 38 -17.5t9 -40.5q-39 -27 -82 -71.5t-82 -100t-72 -118t-51 -123.5q43 8 84 12t82 4q90 0 147.5 -14.5t89 -38t43 -52t11.5 -57.5q0 -47 -27 -88 t-73 -71.5t-107.5 -48t-130.5 -17.5q-117 0 -184.5 59.5t-73.5 161.5q-104 -35 -206 -90t-182.5 -127t-132 -158t-53.5 -180q-4 -143 94.5 -222t292.5 -95q31 33 68 33q35 0 41 -35q80 2 178 26.5t188.5 66.5t159 95t88.5 115q10 8 23.5 13t27.5 5q51 0 52 -65 q0 -37 -32 -78t-87 -83t-130 -80t-161 -66.5t-179 -46t-186 -17.5h-2q-59 -117 -90.5 -218t-36.5 -185q-4 -55 11 -88q-18 -33 -58 -33q-35 0 -55 25.5t-20 84.5q0 37 9 85t26.5 103.5t41 115t54.5 116.5q-211 23 -324 125.5t-113 269.5zM874 1018q2 -66 44.5 -106 t128.5 -38q33 0 64.5 9.5t56 23t40 29.5t15.5 35q0 29 -35 52.5t-141 23.5q-41 0 -84 -5.5t-89 -15.5v-8z" />
<glyph unicode="&#xa3;" horiz-adv-x="1374" d="M41 63q0 35 54.5 66t144.5 31q6 0 13 -1t11 -1h10q123 55 202 122.5t102 122.5q-66 -16 -132.5 -26t-132.5 -10q-72 0 -108.5 24.5t-36.5 61.5q0 20 13 37.5t42 21.5q39 -37 127 -37q45 0 94.5 7t100.5 18q-41 33 -112 64.5t-139.5 70.5t-118.5 88t-50 119 q0 66 60.5 135.5t168 125.5t253 93t317.5 37q152 0 222.5 -45t70.5 -111q0 -53 -38 -98t-94.5 -78t-120 -51.5t-112.5 -18.5q-47 0 -63.5 24t4.5 52q49 -2 101 12.5t95 38t69.5 49t26.5 48.5q0 37 -42 56t-146 19q-143 0 -262 -27.5t-205 -68.5t-133 -91t-47 -93 q0 -47 51 -87t122 -77t142.5 -74t112.5 -82q68 14 134.5 25.5t127.5 11.5q78 0 117 -23.5t39 -58.5q0 -51 -56 -65q-25 25 -61.5 32t-73.5 7q-47 0 -94 -7.5t-98 -17.5q-4 -35 -30 -73.5t-63.5 -78.5t-87 -77t-102.5 -70q66 -16 132.5 -35.5t133 -38t135 -31t140.5 -12.5 q104 0 162.5 45.5t58.5 98.5q0 23 -12 45q23 35 61 35q35 0 55.5 -23.5t20.5 -64.5q0 -53 -26.5 -96.5t-73 -75t-110 -49t-136.5 -17.5q-104 0 -195.5 19.5t-173.5 45t-156.5 50t-146.5 37.5q-53 -23 -100 -36.5t-86 -13.5q-37 0 -54.5 13.5t-17.5 31.5z" />
<glyph unicode="&#xa5;" horiz-adv-x="1970" d="M61 938q0 61 47.5 119.5t126 104.5t181 75t213.5 29q117 0 169 -38t52 -104q0 -61 -29.5 -123.5t-65.5 -125t-66 -124t-30 -120.5t38 -85t102 -26q63 0 140 31t153.5 87t144.5 134t115 174q-2 14 -2 28.5v29.5q0 100 30.5 166.5t65.5 66.5q41 0 41 -78 q0 -53 -11.5 -107.5t-29.5 -105.5q6 -55 25.5 -118.5t44 -129t48 -132t40.5 -130.5q37 -4 72.5 -11t64 -18.5t47 -30t18.5 -42.5q0 -23 -17 -38t-40 -20q-43 33 -127 48q0 -37 -4 -72t-14 -64q53 -12 83.5 -33.5t30.5 -50.5q0 -23 -16 -37t-39 -18q-23 12 -48.5 22.5 t-60.5 16.5q-84 -125 -252.5 -197.5t-394.5 -72.5q-184 0 -285.5 60.5t-101.5 148.5q0 84 74 158.5t204 131t306 90t383 33.5q-23 86 -56.5 176.5t-56.5 188.5q-53 -86 -124.5 -158t-151.5 -125t-164 -82.5t-162 -29.5q-111 0 -172 49t-61 143q0 70 30.5 137.5t68.5 131 t68.5 121t30.5 106.5q0 37 -31.5 59.5t-103.5 22.5q-90 0 -168 -21.5t-135 -54.5t-90 -70t-33 -69q0 -23 25.5 -39.5t72.5 -16.5q59 0 125 20.5t107 55.5q18 2 29.5 -7t11.5 -24q0 -33 -37 -59q-47 -35 -120 -57.5t-144 -22.5q-80 0 -132.5 32t-52.5 91zM643 51 q0 -25 15.5 -48t50 -40.5t92 -29t143.5 -11.5q162 0 291 49t201 131h-21q-10 0 -21.5 1t-25.5 1q-59 0 -108.5 -7t-83.5 -17q-31 14 -31 41q0 35 60.5 60.5t215.5 25.5q12 0 25.5 -1t23.5 -1h25q23 59 10 131h-39q-186 0 -338.5 -24.5t-260 -65.5t-166 -92.5t-58.5 -102.5z " />
<glyph unicode="&#xa7;" horiz-adv-x="1505" d="M31 -223q0 57 37.5 107t100 88t142.5 59.5t162 21.5q61 0 86 -14t25 -37q0 -18 -15 -33q-135 6 -235.5 -24.5t-151.5 -81.5q-16 -16 -25.5 -36t-9.5 -36q0 -35 29 -67.5t83 -59t134 -42t182 -15.5q145 0 254 22.5t180.5 59.5t107.5 86t36 102t-45 98t-119 87t-169 82 t-193.5 82t-193.5 86t-169 96.5t-119 112.5t-45 132q0 82 56.5 162t162.5 133q-86 61 -118.5 119.5t-32.5 122.5q0 80 60.5 157.5t167 141t253 102.5t316.5 39q186 0 288.5 -59.5t102.5 -143.5q0 -57 -37 -111t-99.5 -97t-148.5 -69t-184 -26q-72 0 -111 21.5t-39 52.5 q0 16 11.5 29.5t31.5 15.5q20 -14 52 -20t67 -6q63 0 123.5 15t107 41.5t74 61.5t27.5 72q0 45 -67.5 81t-225.5 36q-143 0 -262 -30t-204 -77t-132 -103.5t-47 -109.5q0 -45 26.5 -88t88 -89t162 -98t245.5 -116q172 -76 292 -137.5t194.5 -118.5t108.5 -115.5t34 -126.5 q-2 -92 -61.5 -168.5t-159.5 -123.5q25 -31 39 -64t14 -70q0 -78 -47 -148.5t-137.5 -123.5t-221.5 -85t-299 -32q-127 0 -227 21.5t-170 59.5t-106.5 88t-36.5 108zM223 674q0 -63 49.5 -116.5t128 -100.5t179 -90t203 -87t198.5 -89.5t166 -98.5q72 33 121 89.5t49 117.5 q0 49 -27.5 95t-91 95.5t-169 103.5t-259.5 120q-223 96 -356 174q-96 -37 -143.5 -98.5t-47.5 -114.5z" />
<glyph unicode="&#xa8;" horiz-adv-x="526" d="M61 1102q0 41 24.5 68.5t59.5 27.5q33 0 53.5 -23.5t20.5 -62.5q0 -41 -24.5 -67.5t-59.5 -26.5q-29 0 -51.5 22.5t-22.5 61.5zM307 1102q0 41 23.5 69.5t60.5 28.5q35 0 54.5 -24.5t19.5 -63.5q0 -41 -23.5 -68.5t-60.5 -27.5q-31 0 -52.5 22.5t-21.5 63.5z" />
<glyph unicode="&#xa9;" horiz-adv-x="1941" d="M184 647q0 143 43 289.5t121 275.5t188.5 230.5t243.5 156.5q72 29 112 26t46 -26q49 23 107 35.5t124 12.5q129 0 238 -52.5t186.5 -150.5t120.5 -240.5t43 -322.5q0 -213 -70.5 -399.5t-191.5 -326t-280.5 -220t-337.5 -80.5q-147 0 -273.5 53t-219.5 154.5t-146.5 249 t-53.5 335.5zM297 674q0 -168 46 -300t127 -224.5t191.5 -140.5t237.5 -48q162 0 297 76t233.5 200.5t153.5 287.5t55 337q0 158 -35.5 283t-100 211t-155 132t-196.5 46q-127 0 -206 -44t-130 -116q-25 -4 -42 8.5t-17 34.5q0 23 15 49.5t52 61.5q-119 -53 -216 -146.5 t-165.5 -209t-106.5 -244.5t-38 -254zM633 676q0 113 33.5 214t89 178t126 122t146.5 45q55 0 93 -22.5t61 -63.5q33 43 65 43q33 0 39 -37q-18 -18 -37.5 -47t-36.5 -59q2 -12 3.5 -24.5t1.5 -25.5q0 -51 -11.5 -98t-30 -84t-41 -58.5t-44.5 -21.5q-18 0 -35 21.5t-17 79.5 q0 53 19.5 115.5t56.5 109.5q-29 61 -92 61q-61 0 -112.5 -32.5t-88.5 -90t-58.5 -134t-21.5 -162.5q0 -156 68 -236t166 -80q104 0 182 79t113 216q23 8 39 -1t16 -38q0 -53 -26.5 -119.5t-75.5 -124t-118 -96.5t-151 -39q-72 0 -130 30t-101 83t-66.5 129t-23.5 168z" />
<glyph unicode="&#xab;" horiz-adv-x="819" d="M82 473q0 18 12 31q33 14 69 47t65.5 73t49 83t19.5 77q16 14 41 15q57 0 57 -66q0 -55 -50 -125.5t-161 -144.5q111 -76 161 -145.5t50 -124.5q0 -66 -57 -66q-25 0 -41 14q0 43 -32.5 106.5t-112.5 135.5q-31 29 -50.5 45t-19.5 45zM328 473q0 18 12 31q33 14 71 50 t70.5 80t54 90t21.5 81q16 14 41 14q57 0 57 -65q0 -55 -56 -135t-169 -156q113 -76 169 -156t56 -135q0 -66 -57 -66q-25 0 -41 15q0 43 -40 116.5t-120 145.5q-31 29 -50 45t-19 45z" />
<glyph unicode="&#xad;" d="M123 502q0 37 64.5 63.5t222.5 26.5q203 0 202 -80q0 -18 -11.5 -33.5t-31.5 -21.5q-29 12 -80 19t-112 7q-72 0 -125 -8t-90 -18q-39 10 -39 45z" />
<glyph unicode="&#xae;" horiz-adv-x="978" d="M61 1257q0 78 30 147t80 121t115.5 86t137.5 42q27 10 70 17t98 7q160 0 243 -82t83 -211q0 -96 -40 -178t-108 -141t-158 -93t-188 -34q-86 0 -152.5 25.5t-113.5 68.5t-72 101.5t-25 123.5zM156 1280q0 -119 76.5 -188.5t218.5 -69.5q76 0 142 23.5t116.5 67.5 t80 105.5t29.5 139.5q2 119 -66.5 183.5t-195.5 64.5q-23 0 -44 -2t-44 -7q-4 -14 -20 -20q-61 -6 -115.5 -31.5t-93.5 -64.5t-61.5 -90.5t-22.5 -110.5zM266 1393q0 20 21.5 42.5t57.5 41t80 31t89 12.5q18 0 41 -5.5t41 -16.5t30.5 -30.5t12.5 -46.5q0 -41 -37 -78.5 t-96 -56.5q57 -47 111.5 -63.5t78.5 -10.5q10 -14 11 -30q0 -23 -17.5 -39.5t-50.5 -16.5q-49 0 -110.5 38t-114.5 106q2 -35 8 -61.5t22 -39.5q-2 -18 -16 -31.5t-35 -13.5q-29 0 -46 27t-17 100q0 33 3 72t11 74l-24.5 -17.5t-16.5 -17.5q-37 -4 -37 31zM414 1319 q59 10 94 37.5t35 52.5q0 8 -10.5 19.5t-45.5 11.5q-29 0 -59 -8q-6 -27 -9 -55.5t-5 -57.5z" />
<glyph unicode="&#xb0;" horiz-adv-x="724" d="M41 1155q0 45 14.5 89t39 81t57 64.5t69.5 40.5q6 35 57.5 64.5t139.5 29.5q123 0 194.5 -70t71.5 -184q0 -80 -31.5 -145.5t-84 -112.5t-122 -73t-145.5 -26q-111 0 -185.5 63.5t-74.5 178.5zM154 1186q0 -84 47 -129t129 -45q45 0 89 16t77.5 47t54 74t20.5 94 q0 74 -52 127t-150 51q-29 0 -60 -10q2 -14 -4 -29q-78 -20 -114.5 -75.5t-36.5 -120.5z" />
<glyph unicode="&#xb4;" horiz-adv-x="507" d="M61 1047q0 12 6.5 24.5t20.5 20.5q37 0 81 17t87 46t79 62.5t58 68.5q41 8 50.5 -21.5t-13.5 -68.5q-18 -33 -53 -68.5t-78 -65.5t-89 -49.5t-87 -19.5q-27 0 -44.5 14.5t-17.5 39.5z" />
<glyph unicode="&#xb6;" horiz-adv-x="1427" d="M82 967q0 119 55.5 230.5t155.5 197.5t241.5 137t311.5 51q115 0 217 -22q20 74 58 116.5t83 42.5q25 0 38 -15t15 -38q-31 -23 -52 -58.5t-31 -80.5q82 -33 124 -70q31 -27 40.5 -52.5t3 -46t-24 -32.5t-37.5 -12q-41 55 -117 92q0 -160 27 -303t57.5 -271t56 -244 t25.5 -222q0 -113 -41 -208.5t-118.5 -164t-191.5 -106.5t-261 -38q-90 0 -169 19.5t-137.5 51.5t-93 75t-34.5 90q0 35 26.5 54.5t61.5 9.5q10 -37 39.5 -70t75.5 -59.5t108.5 -42t136.5 -15.5q229 0 354 103.5t125 289.5q-2 104 -27.5 228.5t-56 261.5t-56.5 282.5 t-26 290.5v31q-47 12 -99 19.5t-105 7.5q-160 0 -280 -45.5t-198.5 -116t-118.5 -158.5t-40 -174q0 -84 33.5 -150.5t93 -114.5t139.5 -74t170 -26q117 0 189.5 28t125.5 81q20 -4 29.5 -19.5t8.5 -36t-13 -44t-37 -41.5q-49 -41 -129 -62.5t-178 -21.5q-119 0 -220.5 35.5 t-175 98t-115.5 147.5t-42 184z" />
<glyph unicode="&#xb7;" horiz-adv-x="468" d="M123 524q0 47 27.5 79t68.5 32t63.5 -27.5t22.5 -72.5q0 -47 -27.5 -78t-68.5 -31q-35 0 -60.5 26.5t-25.5 71.5z" />
<glyph unicode="&#xb8;" horiz-adv-x="471" d="M61 -354q0 31 21.5 47t56.5 12q2 -37 28 -59.5t62 -22.5q39 0 58.5 15.5t19.5 37.5q0 25 -27.5 41.5t-59.5 31.5t-59.5 33.5t-27.5 47.5q0 33 32 81t87 89h80q-51 -49 -73.5 -86t-22.5 -57t27.5 -33.5t59 -29t59.5 -39t28 -64.5q0 -66 -57.5 -111t-141.5 -45 q-27 0 -53.5 7t-48 21.5t-35 35t-13.5 47.5z" />
<glyph unicode="&#xbb;" horiz-adv-x="819" d="M82 172q0 55 56.5 135t168.5 156q-113 76 -169 155.5t-56 135.5q0 66 57 65q25 0 41 -14q0 -35 21.5 -81t54.5 -90t71 -80t70 -50q12 -12 13 -31q0 -29 -19.5 -45t-50.5 -45q-80 -72 -120 -145.5t-40 -116.5q-16 -14 -41 -15q-57 0 -57 66zM342 193q0 55 49 124.5 t162 145.5q-113 74 -162 144.5t-49 125.5q0 66 57 66q25 0 41 -15q0 -35 19.5 -77.5t49.5 -82.5t65.5 -73t68.5 -47q12 -12 12 -31q0 -29 -19 -45t-50 -45q-80 -72 -113 -135.5t-33 -106.5q-16 -14 -41 -14q-57 0 -57 66z" />
<glyph unicode="&#x2c6;" horiz-adv-x="655" d="M66 1055q47 2 103 54t103 153q12 27 25.5 35t30.5 8q25 0 41 -15q51 -113 112.5 -173t108.5 -62q10 -33 -6.5 -58.5t-51.5 -25.5q-53 0 -110 59.5t-98 153.5q-18 -39 -41 -77t-49.5 -67.5t-55 -48t-55.5 -18.5q-35 0 -51.5 24.5t-5.5 57.5z" />
<glyph unicode="&#x2da;" horiz-adv-x="493" d="M61 1118q0 35 10.5 62.5t27 47t36 32t37.5 14.5q6 23 33.5 42t77.5 19q72 0 110.5 -42t38.5 -105q0 -47 -17.5 -86t-46 -67.5t-67.5 -45t-84 -16.5q-61 0 -108.5 38.5t-47.5 106.5zM162 1147q0 -45 23.5 -67.5t58.5 -22.5q39 0 66.5 29.5t27.5 72.5q0 35 -22.5 60.5 t-63.5 25.5q-39 0 -64.5 -28.5t-25.5 -69.5z" />
<glyph unicode="&#x2dc;" horiz-adv-x="624" d="M61 1061q0 53 36 96t100 43q37 0 66.5 -16.5t56 -35t52 -33.5t56.5 -15q61 0 61 110q31 10 52.5 -4t21.5 -59q0 -72 -40 -112t-95 -40q-35 0 -65.5 15.5t-58.5 35t-53.5 35t-49.5 15.5q-68 -1 -64 -101q-35 -12 -55.5 6.5t-20.5 59.5z" />
<glyph unicode="&#x401;" horiz-adv-x="2588" d="M-184 1130q0 162 116.5 329t335.5 304.5t534.5 225.5t715.5 90q250 2 442 -37t322.5 -105.5t198 -156.5t67.5 -193q0 -82 -42 -158.5t-116 -143t-176.5 -122t-223 -95.5t-254.5 -61.5t-274 -21.5q-154 0 -270.5 23.5t-195 64.5t-117.5 94.5t-39 114.5q0 59 43 121.5 t125 113t201.5 83t273.5 32.5q86 0 161.5 -11t133 -30.5t90.5 -45t33 -52.5q0 -29 -21.5 -46t-58.5 -13q-25 37 -117 66.5t-238 29.5q-133 0 -229 -21.5t-157.5 -56.5t-91.5 -77t-30 -83q0 -43 36 -82t103.5 -68.5t164 -46t219.5 -16.5q201 0 374 41t299.5 110.5t199.5 162 t73 192.5q0 72 -59.5 141.5t-173 125t-279.5 90t-381 34.5q-371 0 -666 -74.5t-499.5 -193.5t-314 -268t-109.5 -299q0 -113 65.5 -211.5t195.5 -172t321.5 -116.5t443.5 -43q115 35 248 55.5t286 22.5q90 0 126 -15.5t36 -35.5q0 -51 -165 -85t-496 -34h-48 q-92 -33 -165.5 -79t-126 -98.5t-81 -107.5t-28.5 -106q0 -61 43 -118.5t132 -99.5t228.5 -67t333.5 -20q236 4 448 62t383 159.5t290.5 240t173.5 301.5q66 0 47 -75q-31 -119 -103.5 -225.5t-175 -194.5t-230.5 -160t-268.5 -121t-290 -76.5t-294.5 -27.5 q-219 -2 -379 28.5t-264.5 84t-154.5 128t-50 162.5q0 115 87 224.5t251 193.5q-229 18 -406.5 70.5t-297 132.5t-182 185.5t-62.5 227.5zM1034 2361q0 86 56 160q-7 21 -7 39q0 49 35 77.5t113 28.5q104 0 154.5 -49t50.5 -116q0 -55 -25 -105.5t-62.5 -90.5t-83.5 -63.5 t-89 -23.5q-68 0 -105 39t-37 104zM1130 2423q0 -39 25 -59.5t66 -20.5q43 0 78.5 30.5t35.5 75.5q0 31 -30.5 62t-90.5 31q-23 0 -47 -7q-20 -35 -28.5 -62t-8.5 -50zM1612 2367q0 86 55 160q-6 21 -6 39q0 49 35 78t112 29q104 0 154.5 -49.5t50.5 -116.5 q0 -55 -24.5 -105.5t-62.5 -90.5t-84 -63.5t-89 -23.5q-68 0 -104.5 39t-36.5 104zM1708 2429q0 -39 24.5 -59.5t65.5 -20.5q43 0 79 30.5t36 76.5q0 31 -31 61.5t-90 30.5q-23 0 -47 -6q-20 -35 -28.5 -62.5t-8.5 -50.5z" />
<glyph unicode="&#x404;" horiz-adv-x="2217" d="M163 793q9 172 54 348q35 125 83 250t117.5 237.5t163 210.5t222.5 171t296 114t380 45q152 -2 275.5 -37t210.5 -93.5t129 -134t26 -161.5q-16 -76 -69.5 -148.5t-144.5 -128t-211 -88t-268 -30.5q-92 0 -170.5 12t-134 41t-82 78t-10.5 127q27 145 162 233t348 86 q78 -2 135.5 -20.5t91 -45t46 -59.5t8.5 -61q-6 -29 -29 -47.5t-57 -10.5q2 57 -61.5 95.5t-162.5 38.5q-82 2 -148.5 -14.5t-115.5 -44t-78.5 -61.5t-35.5 -71q-14 -72 69.5 -128t257.5 -60q131 0 227.5 25.5t161 67.5t100.5 95t44 102q14 63 -15.5 125t-96 111t-171 80 t-244.5 33q-209 4 -372.5 -45.5t-287.5 -138.5t-210 -209.5t-145.5 -258t-94.5 -282.5q-6 -14 -8 -29q51 18 141 25q23 0 63 -3.5t83 -8.5t84 -11t63 -6q74 -16 150 -25.5t158 -7.5q37 4 71.5 10.5t57.5 14.5q27 -6 22 -56q-6 -39 -43 -63.5t-102 -26.5q-94 -6 -179.5 4.5 t-175.5 28.5q-14 2 -46.5 5t-67.5 7.5t-68 4.5t-49 2q-70 -2 -125 -19q-41 -8 -63 -22q-10 -53 -19 -107q-10 -90 -2 -201.5t41 -225.5t94.5 -222.5t154.5 -191.5t222 -137t299 -58q203 8 361.5 45t270 90t176.5 125t83 147q18 82 -16.5 156t-115.5 129t-201 88t-265 27 q-184 -8 -287.5 -58.5t-118.5 -111.5q-16 -70 62 -115t250 -37q49 2 96 8.5t84 18.5q2 -4 5 -20.5t-3 -26.5q-4 -33 -58.5 -57.5t-166.5 -32.5q-113 -2 -192 20.5t-125 60t-62.5 89t-3.5 104.5q29 111 165 183.5t359 82.5q184 4 326.5 -39t236.5 -113.5t134 -165.5t14 -196 q-25 -102 -100.5 -194t-201.5 -165t-304.5 -113t-403.5 -30q-199 8 -355.5 67.5t-271 157t-188.5 231.5t-107.5 289t-24.5 327z" />
<glyph unicode="&#x406;" horiz-adv-x="2191" d="M0 233q0 123 65.5 234t187.5 196t296 134t391 49q150 0 263.5 -27.5t191.5 -77t117.5 -114t39.5 -138.5t-42 -139t-119.5 -115.5t-187 -79t-242.5 -28.5q-74 0 -150 12.5t-137.5 34t-101.5 52t-40 67.5q0 31 25 51.5t72 13.5q2 -29 35.5 -52t85 -41.5t114 -29 t121.5 -10.5q92 0 172 19.5t139.5 53.5t93 80t33.5 97q0 53 -30.5 101.5t-92 85t-155.5 58t-221 21.5q-197 0 -344.5 -42t-248 -110.5t-150.5 -156.5t-50 -182q0 -96 50 -178t151.5 -142.5t252 -95.5t353.5 -35q197 0 361.5 42t285.5 123t188.5 200t67.5 270 q0 123 -28.5 258t-67.5 277q-66 -20 -140.5 -31.5t-154.5 -11.5q-223 0 -343 91t-120 236q0 47 9.5 92.5t35 96.5t70.5 108.5t117 128.5q102 100 227 201.5t229 198.5q39 78 84 124t82 46q35 0 35 -37q0 -23 -19.5 -53.5t-70.5 -81.5l-33 -33q-31 -70 -42 -143.5t-11 -161.5 q0 -145 41 -308t90 -333q47 23 76 45q16 -2 24 -13.5t8 -25.5q0 -41 -84 -90q45 -150 78 -294.5t33 -273.5q0 -176 -79 -315t-219 -236.5t-333.5 -148.5t-423.5 -53q-217 -2 -386 39t-285.5 112.5t-178 172t-61.5 216.5zM1110 1280q0 -123 94.5 -188.5t282.5 -65.5 q53 0 113.5 8t119.5 25q-47 172 -88 337t-41 316q0 104 23 201q-92 -84 -175 -155.5t-145 -133.5q-104 -104 -144 -185t-40 -159z" />
<glyph unicode="&#x407;" horiz-adv-x="2191" d="M0 233q0 123 65.5 234t187.5 196t296 134t391 49q150 0 263.5 -27.5t191.5 -77t117.5 -114t39.5 -138.5t-42 -139t-119.5 -115.5t-187 -79t-242.5 -28.5q-74 0 -150 12.5t-137.5 34t-101.5 52t-40 67.5q0 31 25 51.5t72 13.5q2 -29 35.5 -52t85 -41.5t114 -29 t121.5 -10.5q92 0 172 19.5t139.5 53.5t93 80t33.5 97q0 53 -30.5 101.5t-92 85t-155.5 58t-221 21.5q-197 0 -344.5 -42t-248 -110.5t-150.5 -156.5t-50 -182q0 -96 50 -178t151.5 -142.5t252 -95.5t353.5 -35q197 0 361.5 42t285.5 123t188.5 200t67.5 270 q0 123 -28.5 258t-67.5 277q-66 -20 -140.5 -31.5t-154.5 -11.5q-223 0 -343 91t-120 236q0 47 9.5 92.5t35 96.5t70.5 108.5t117 128.5q102 100 227 201.5t229 198.5q39 78 84 124t82 46q35 0 35 -37q0 -23 -19.5 -53.5t-70.5 -81.5l-33 -33q-31 -70 -42 -143.5t-11 -161.5 q0 -145 41 -308t90 -333q47 23 76 45q16 -2 24 -13.5t8 -25.5q0 -41 -84 -90q45 -150 78 -294.5t33 -273.5q0 -176 -79 -315t-219 -236.5t-333.5 -148.5t-423.5 -53q-217 -2 -386 39t-285.5 112.5t-178 172t-61.5 216.5zM1110 1280q0 -123 94.5 -188.5t282.5 -65.5 q53 0 113.5 8t119.5 25q-47 172 -88 337t-41 316q0 104 23 201q-92 -84 -175 -155.5t-145 -133.5q-104 -104 -144 -185t-40 -159zM1343 2382q0 86 56 160q-6 20 -6 38q0 49 34.5 78t112.5 29q104 0 154.5 -49t50.5 -117q0 -55 -24.5 -105.5t-62.5 -90t-84 -63.5t-89 -24 q-68 0 -105 39t-37 105zM1440 2443q0 -39 24.5 -59.5t65.5 -20.5q43 0 79 31t36 76q0 31 -31 61.5t-90 30.5q-23 0 -47 -6q-20 -35 -28.5 -62.5t-8.5 -50.5zM1921 2388q0 86 55 160q-6 21 -6 39q0 49 35 77.5t113 28.5q104 0 154 -49t50 -117q0 -55 -24.5 -105t-62 -90 t-84 -63.5t-89.5 -23.5q-68 0 -104.5 38.5t-36.5 104.5zM2017 2449q0 -39 24.5 -59t65.5 -20q43 0 79 30.5t36 75.5q0 31 -30.5 61.5t-90.5 30.5q-23 0 -47 -6q-20 -35 -28.5 -62.5t-8.5 -50.5z" />
<glyph unicode="&#x40e;" horiz-adv-x="2639" d="M-164 1106q0 117 42 235.5t113.5 230t167 209t204 170t222 114.5t222.5 42q143 0 218 -78.5t75 -234.5q0 -137 -34 -263t-74 -247t-73.5 -241.5t-33.5 -247.5q0 -168 78.5 -250t207.5 -82q109 0 233 62.5t248 176t239.5 273.5t205.5 354q12 104 38 201.5t60 163.5 q39 76 76 75q29 0 29 -59q0 -88 -32 -190.5t-77 -212.5q-2 -29 -2 -55.5v-57.5q0 -178 35 -346t78 -325.5t78 -304t35 -279.5q0 -162 -77 -311.5t-219.5 -265.5t-347 -184.5t-462.5 -68.5q-201 0 -367 41t-284.5 114.5t-184 174t-65.5 219.5q0 100 61 202.5t178 185.5 t286 134t384 51q150 0 258 -25.5t179 -69.5t103.5 -102.5t32.5 -121.5q0 -92 -54 -177t-148.5 -148.5t-219.5 -101.5t-266 -38q-195 0 -293 70.5t-98 173.5q0 68 35 112.5t72 44.5q39 1 43 -34q-37 -35 -37 -90q0 -74 74.5 -119t234.5 -45q115 0 213 28.5t171 75.5 t114 105.5t41 117.5q0 45 -27 88t-84 76t-146.5 52.5t-214.5 19.5q-193 0 -338 -41t-241 -105.5t-145.5 -144.5t-49.5 -156q0 -96 56.5 -179t159 -144.5t245.5 -96t320 -34.5q240 0 422 56t307 154.5t188.5 229.5t63.5 279q0 135 -29 267t-65.5 273.5t-68.5 297t-38 337.5 q-94 -188 -211 -333.5t-241 -246t-248.5 -151.5t-237.5 -51q-180 0 -283.5 112.5t-103.5 317.5q0 125 34.5 243.5t75.5 240.5t76 249t35 268q0 104 -50 165t-155 61q-90 0 -187 -37t-189.5 -99.5t-175.5 -146.5t-145.5 -179t-99 -196.5t-36.5 -197.5q0 -72 17.5 -120t47 -79 t69.5 -44t83 -13q86 0 171 48t153.5 123.5t110.5 170t42 188.5q0 150 -129 150q-41 0 -86 -20.5t-85 -52.5t-73 -73t-51 -82q-35 -4 -50 23.5t7 70.5q27 51 68 97.5t91 79t105.5 52t108.5 19.5q98 0 150.5 -57t52.5 -168q0 -119 -53.5 -241t-139.5 -221t-195.5 -162.5 t-222.5 -63.5q-63 0 -117.5 21.5t-95.5 64.5t-64.5 107.5t-23.5 152.5zM1507 2257q6 41 42 52t75 -7q2 -88 56.5 -142.5t136.5 -66.5q78 -14 146.5 19.5t96.5 113.5q33 4 57.5 -9t20.5 -52q-8 -43 -39 -82t-79 -67.5t-107.5 -40t-134.5 0.5q-61 10 -114.5 39t-89.5 67 t-54.5 83t-12.5 92z" />
<glyph unicode="&#x410;" horiz-adv-x="2240" d="M-160 -16q0 152 44 309.5t120 303.5t177.5 275t216 225.5t236.5 152t238 55.5q115 0 179.5 -73t64.5 -208q0 -127 -52 -256t-136 -233.5t-189.5 -170t-210.5 -65.5q-92 0 -145 53.5t-53 155.5q0 90 41 188.5t133 173.5q35 29 62.5 24t31.5 -34q-35 -27 -64.5 -63.5 t-51 -78.5t-34 -83t-12.5 -78q0 -72 33 -103.5t92 -31.5q76 0 156 53t144.5 135t105.5 180.5t41 186.5q0 102 -44 152.5t-122 50.5q-92 0 -193.5 -49.5t-201 -135.5t-190.5 -200.5t-159.5 -243.5t-109.5 -268.5t-41 -272.5q0 -106 26.5 -185t74.5 -130t111.5 -77t137.5 -26 q119 0 231.5 61.5t215 170t192.5 260.5t168 330h-6q-61 0 -92 18.5t-31 48.5q0 33 26 47q18 -8 51 -12t68 -4h25q109 272 181.5 580.5t105.5 617.5q-29 420 67 420q39 0 54.5 -81t-5.5 -273q16 -287 57.5 -595.5t100.5 -588.5q16 2 34.5 3t35.5 1q106 0 148 -25.5t42 -58.5 q0 -23 -13.5 -39t-29.5 -20q-18 16 -68.5 25t-115.5 9h-10q25 -106 52 -193t57 -149.5t60.5 -97.5t61.5 -35q27 0 51.5 20.5t56 81t72.5 170t101 289.5q57 0 38 -75q-43 -172 -84 -291t-81.5 -191.5t-82.5 -105.5t-87 -33t-88.5 28.5t-85 98.5t-80.5 184.5t-76 284.5 q0 2 -1 3t-1 3q-94 -10 -198.5 -29.5t-199.5 -29.5q-90 -229 -196.5 -407.5t-226 -301.5t-250.5 -186.5t-269 -63.5q-92 0 -170.5 38t-137 106.5t-91.5 165t-33 213.5zM1253 522q80 10 166 27t172 29q-41 205 -70.5 419.5t-43.5 425.5q-41 -256 -97.5 -481t-126.5 -420z" />
<glyph unicode="&#x411;" horiz-adv-x="2887" d="M25 1622q0 92 38.5 181t123.5 159t219.5 113t324.5 43q227 8 440 -17.5t410 -61.5t377 -66.5t340 -30.5q156 0 263.5 45t137.5 114q68 0 68 -63q0 -37 -28.5 -75t-87 -66.5t-146.5 -47t-205 -18.5q-113 0 -239 14.5t-261 36t-275.5 45t-278.5 43t-270 30.5t-253 5 q-166 -8 -277.5 -43t-179 -87t-95.5 -115.5t-28 -127.5q0 -78 36 -142.5t100.5 -110.5t153.5 -71.5t198 -25.5q129 0 238.5 35t181.5 96q39 -6 39 -45q0 -25 -20.5 -46.5t-63.5 -47.5q-66 -39 -168.5 -69.5t-225.5 -30.5q-135 0 -243.5 33.5t-185.5 94t-117.5 142.5 t-40.5 178zM305 303q6 -98 65.5 -187t160 -162t235.5 -128t296 -88t341 -40t369 15q276 35 471.5 113t318.5 179t176 218t47 232q-6 111 -72.5 213t-180 187t-267.5 148.5t-336 98.5q-90 12 -161.5 16t-135 4t-120 -3t-111.5 -7h-4q2 53 1 103.5t-3 99.5v35 q-4 55 -9.5 122.5t-12.5 135t-13 127t-8 100.5q-4 47 -19.5 74.5t-35 37t-39 0t-29.5 -33.5q8 -45 15 -111.5t13.5 -142.5t10.5 -154t8 -145q2 -66 3 -131.5t-1 -132.5q-86 -16 -124 -39t-38 -43q2 -20 38 -32.5t122 -14.5l-2 -131q-78 6 -161 7t-175 -5q-172 -23 -295 -73 t-199.5 -122t-110.5 -159t-28 -181zM416 303q-6 72 24.5 142.5t99 131t175.5 104.5t254 62q164 12 303 -4q-6 -135 -19.5 -251.5t-31.5 -204.5q-129 14 -202 52t-91 68q-25 0 -43.5 -15t-18.5 -48q2 -47 88 -92t242 -62q-6 -14 -11 -26.5t-11 -22.5q18 -59 73 -55 q23 2 42.5 24.5t33.5 75.5q23 0 44.5 1t43.5 1q133 10 227.5 39t153.5 69t86 86t25 91q0 55 -36 108.5t-102.5 99.5t-161 83t-210.5 57q2 37 3 76t1 76l59 4q45 2 80 8t64.5 12t60.5 14.5t72 14.5q229 -10 402 -63.5t291 -134.5t179 -179t66 -196q6 -94 -44.5 -192.5 t-163 -185.5t-286.5 -155t-416 -98q-188 -23 -360 -15.5t-319.5 37t-268.5 77.5t-207 109.5t-136 132t-54 144.5zM1343 281q14 86 26.5 198.5t19.5 241.5q180 -33 282.5 -101.5t104.5 -138.5q0 -29 -19.5 -61.5t-61.5 -61t-109.5 -49t-164.5 -26.5q-20 -2 -40 -2h-38z" />
<glyph unicode="&#x412;" horiz-adv-x="2715" d="M-184 1321q0 98 62.5 192.5t174 178.5t265 154.5t338 122.5t392 81t427.5 29q324 0 555 -53.5t378.5 -139.5t217 -195.5t69.5 -220.5q0 -109 -69.5 -217t-194.5 -205.5t-299 -178.5t-383 -134q276 -59 433 -175t157 -273q0 -117 -78 -224.5t-221.5 -189.5t-343 -131 t-443.5 -49q-158 0 -290 28.5t-226 77.5t-146 115t-52 139q0 55 27.5 108.5t80.5 99.5t131 81t178 55v131.5t-4 130.5q-86 10 -125 30t-39 40t37 35.5t121 23.5l-6 132q-78 -12 -161 -19.5t-175 -7.5q-199 0 -347 32.5t-246.5 89t-146.5 135.5t-48 171zM-55 1335 q0 -72 43 -134t129 -109.5t215 -75t301 -27.5q168 0 301 27q-10 133 -26.5 248.5t-37.5 201.5q-129 -23 -200.5 -65.5t-87.5 -75.5q-25 -2 -44.5 12.5t-19.5 46.5q0 47 85 98.5t239 78.5q-6 14 -11.5 26t-11.5 23q16 59 72 59q23 0 42 -21.5t36 -72.5q23 2 44 3t44 1 q135 0 229 -21.5t154.5 -56.5t88 -79t27.5 -89q0 -55 -33.5 -111.5t-98 -107.5t-157.5 -94t-210 -74q4 -37 6 -74.5t4 -74.5h59q92 0 176 -4.5t164 -12.5q264 37 468 112t344.5 170t213 200.5t72.5 203.5q0 92 -65.5 182.5t-200.5 163t-342 116.5t-490 44q-328 0 -606 -58.5 t-482 -150.5t-318.5 -205.5t-114.5 -222.5zM668 63q0 -70 67.5 -128t192.5 -93q12 90 19 209t9 254q-139 -33 -213.5 -98.5t-74.5 -143.5zM991 -172q59 -12 127 -19.5t146 -7.5q238 0 416 40t295.5 104.5t177 147.5t59.5 171q0 76 -52.5 145.5t-145.5 125t-222 95.5t-283 56 q-104 -16 -212.5 -24.5t-221.5 -8.5h-4q2 -53 3 -103t1 -99v-35q57 6 123 6q205 0 313.5 -48t108.5 -108q0 -29 -23.5 -52.5t-76.5 -18.5q-6 31 -37 55t-77 41.5t-104.5 28t-121.5 10.5q-55 0 -107 -6q-2 -113 -8 -214.5t-18 -181.5q-12 -86 -56 -100zM993 1479 q16 -84 31.5 -196t26.5 -241q176 47 277.5 123t101.5 146q0 29 -20.5 59.5t-63.5 55t-112 41t-165 16.5q-20 0 -39 -1t-37 -3z" />
<glyph unicode="&#x413;" horiz-adv-x="2379" d="M0 369q0 113 57.5 221t165 193t260 137.5t344.5 52.5q141 0 254 -30t192 -84t121 -128t42 -160q0 -78 -38 -144.5t-107.5 -115.5t-165 -77.5t-212.5 -28.5q-72 0 -146.5 12t-134 35.5t-97 54.5t-37.5 68q0 31 24.5 51t71.5 14q2 -29 35 -52t82 -41.5t109.5 -29 t119.5 -10.5q84 0 154.5 19.5t121 54.5t78 81t27.5 101q0 61 -34 117.5t-98.5 98.5t-158.5 66.5t-217 24.5q-164 0 -292 -41t-216 -108.5t-135 -155.5t-47 -180q0 -119 58.5 -224.5t174 -185t287.5 -127t399 -47.5q414 0 610.5 157t196.5 454q0 129 -19.5 261t-44 264 t-44 263t-19.5 260q0 141 35 208t90 67q25 0 43.5 -16.5t22.5 -45.5q-31 -23 -50.5 -80t-19.5 -143q0 -55 7.5 -125t17.5 -142.5t21.5 -143t21.5 -126.5q23 -123 39 -250.5t16 -275.5q0 -164 -62.5 -293t-181 -218t-290.5 -136t-390 -47q-250 0 -443 55t-326.5 148.5 t-203 215t-69.5 257.5zM76 1630q0 92 39 181.5t124 159t219 112.5t324 43q162 0 308.5 -27.5t289 -61.5t287.5 -61.5t305 -27.5q156 0 263.5 44.5t138.5 114.5q68 0 67 -63q0 -37 -28.5 -75t-87 -66.5t-146.5 -47t-205 -18.5q-168 0 -319.5 27.5t-297 60.5t-288.5 60.5 t-295 27.5q-166 0 -277.5 -33.5t-179 -88t-95 -121t-27.5 -130.5q0 -78 35.5 -142t100 -110.5t153.5 -72t198 -25.5q129 0 238.5 35t181.5 96q39 -6 39 -45q0 -25 -20.5 -46t-63.5 -48q-66 -39 -168.5 -69.5t-224.5 -30.5q-135 0 -244 33.5t-185.5 94t-117.5 142.5t-41 178z " />
<glyph unicode="&#x414;" horiz-adv-x="3127" d="M-205 1184q0 109 50.5 218t146.5 208.5t233 185.5t311.5 148.5t382 98.5t443.5 36q338 0 627.5 -92.5t501.5 -257t332 -393t120 -502.5q0 -262 -100.5 -473t-275.5 -359.5t-413.5 -228.5t-515.5 -80q-109 0 -229.5 14t-245.5 37l-12 -102q-10 -72 -45 -96t-82 -1 q-2 47 -68.5 126t-171.5 165q-121 35 -225 73t-181 74.5t-122 70.5t-45 61q0 14 11 27.5t37 18.5t67 0t100 -28q78 -29 168 -78t176 -108q72 -23 145.5 -40.5t147.5 -33.5q4 47 4 96v103q-2 127 -8 248.5t-17 238.5q-35 -4 -70.5 -4h-72.5q-270 0 -476 52t-345 139.5 t-211 201t-72 236.5zM-82 1210q0 -115 68.5 -215t194.5 -177t303.5 -121t392.5 -44h78.5t74.5 4q-16 147 -40.5 276.5t-53.5 227.5q-90 -41 -142.5 -89t-66.5 -89q-33 2 -54.5 16.5t-21.5 49.5q0 45 63.5 105t186.5 108q-23 63 -45 98q4 33 26.5 51.5t51.5 18.5 q27 2 47 -17.5t37 -66.5l14 -43q76 20 166 31.5t195 11.5q156 0 272.5 -25t194 -67t116.5 -98t39 -118q0 -74 -61.5 -148.5t-175 -139t-272 -113.5t-351.5 -70q10 -121 16.5 -241.5t8.5 -237.5q0 -63 -2 -121.5t-7 -116.5q127 -23 242 -34t205 -11q279 0 500 77t375.5 211 t236.5 316.5t82 395.5q0 258 -108.5 473t-303 369.5t-465 241.5t-594.5 87q-322 0 -584.5 -71.5t-449 -183t-288 -247t-101.5 -264.5zM975 -215q45 -39 76 -76l6 58zM1059 1206q27 -109 48 -247t38 -291q174 18 310 58t230.5 90t143.5 107.5t49 110.5q0 43 -31.5 82 t-93 68.5t-154 47t-213.5 17.5q-96 0 -176.5 -12.5t-150.5 -30.5z" />
<glyph unicode="&#x415;" horiz-adv-x="2588" d="M-184 1130q0 162 116.5 329t335.5 304.5t534.5 225.5t715.5 90q250 2 442 -37t322.5 -105.5t198 -156.5t67.5 -193q0 -82 -42 -158.5t-116 -143t-176.5 -122t-223 -95.5t-254.5 -61.5t-274 -21.5q-154 0 -270.5 23.5t-195 64.5t-117.5 94.5t-39 114.5q0 59 43 121.5 t125 113t201.5 83t273.5 32.5q86 0 161.5 -11t133 -30.5t90.5 -45t33 -52.5q0 -29 -21.5 -46t-58.5 -13q-25 37 -117 66.5t-238 29.5q-133 0 -229 -21.5t-157.5 -56.5t-91.5 -77t-30 -83q0 -43 36 -82t103.5 -68.5t164 -46t219.5 -16.5q201 0 374 41t299.5 110.5t199.5 162 t73 192.5q0 72 -59.5 141.5t-173 125t-279.5 90t-381 34.5q-371 0 -666 -74.5t-499.5 -193.5t-314 -268t-109.5 -299q0 -113 65.5 -211.5t195.5 -172t321.5 -116.5t443.5 -43q115 35 248 55.5t286 22.5q90 0 126 -15.5t36 -35.5q0 -51 -165 -85t-496 -34h-48 q-92 -33 -165.5 -79t-126 -98.5t-81 -107.5t-28.5 -106q0 -61 43 -118.5t132 -99.5t228.5 -67t333.5 -20q236 4 448 62t383 159.5t290.5 240t173.5 301.5q66 0 47 -75q-31 -119 -103.5 -225.5t-175 -194.5t-230.5 -160t-268.5 -121t-290 -76.5t-294.5 -27.5 q-219 -2 -379 28.5t-264.5 84t-154.5 128t-50 162.5q0 115 87 224.5t251 193.5q-229 18 -406.5 70.5t-297 132.5t-182 185.5t-62.5 227.5z" />
<glyph unicode="&#x416;" horiz-adv-x="3766" d="M-41 150q0 143 43 275t115.5 246.5t169 207t202 158t214 101.5t206.5 36q154 0 237 -91.5t83 -251.5q0 -139 -50.5 -267t-132 -225t-187 -155.5t-214.5 -58.5t-174 57.5t-65 157.5q0 41 6 80t22 67q20 35 41 53.5t49 18.5q35 0 51 -24q-23 -39 -33 -81t-10 -75 q0 -66 44.5 -95.5t111.5 -29.5q72 0 146.5 45t136 122t100.5 175t39 207q0 121 -56.5 184.5t-170.5 63.5q-88 0 -182.5 -33t-182.5 -91.5t-167 -140t-137 -180t-93 -211t-35 -231.5q0 -102 32 -181t90 -133.5t139 -83t177 -28.5q160 0 291 51t250 152q121 104 225.5 251.5 t175.5 319.5q51 121 84 248h-32q-31 0 -66 3t-62.5 11t-46 23.5t-18.5 40.5q0 39 35 49q29 -10 64.5 -16.5t88.5 -6.5h60v4q35 186 17.5 364.5t-93.5 341.5t-223 290q-131 109 -307 108q-100 0 -183.5 -28.5t-141.5 -75.5t-90 -105.5t-32 -115.5q0 -31 9.5 -58.5t31.5 -50.5 q-10 -23 -35.5 -37t-54.5 -14q-45 0 -74.5 28.5t-29.5 88.5q0 82 48 165.5t131 152.5t195.5 112t241.5 43q119 0 219.5 -32t173.5 -97q66 -61 140.5 -172t130 -258.5t75.5 -327.5q16 -152 -10 -313q10 0 21 2q98 16 194 36q14 2 76 11q16 4 37 6v133q0 111 -6 212 t-24.5 196.5t-55.5 189.5q10 31 38.5 46t63.5 11q31 -2 53.5 -23.5t32.5 -70.5q31 -223 33 -430q2 -131 0 -242q74 12 158 25q70 12 133 20q20 121 61 230q51 137 120 251.5t146.5 207t151.5 163t135.5 118.5t97.5 75q94 59 197 84.5t196 20.5t166.5 -36.5t110.5 -87.5 q63 -100 60.5 -228t-57 -252t-149.5 -229.5t-218 -162.5q-233 -106 -351 70q-31 47 -42 105t-3.5 117.5t31 118t62.5 107.5q31 41 67.5 41t52.5 -33q-31 -37 -54 -85t-34.5 -100t-7.5 -100t27 -85q74 -115 229 -41q96 45 170 127t114 179t42 195.5t-47 176.5 q-25 39 -68 68.5t-100.5 43t-125 6t-141.5 -42.5q-119 -68 -233.5 -177t-210.5 -248.5t-168 -305.5q-57 -131 -88 -270q35 6 64 10q63 8 79 8q125 0 177.5 -27.5t52.5 -62.5q0 -23 -15.5 -43t-37.5 -24q-23 16 -81.5 27.5t-136.5 11.5q-27 0 -69 -7q-27 -4 -55 -8 q-20 -158 -7 -323q16 -188 97 -373q39 -92 91 -149.5t105 -91.5t102.5 -46t80.5 -12q53 0 111.5 29.5t121.5 104.5t133 203t146 324q70 0 45 -75q-59 -205 -128 -342.5t-141.5 -219t-148.5 -116.5t-150 -35q-57 0 -125.5 24.5t-136 77t-131 131t-108.5 187.5 q-70 205 -89 387q-14 154 -2 291q-35 -5 -53 -7q-104 -23 -225 -40v-5q-12 -248 -49 -479q-10 -63 -21.5 -120.5t-27.5 -114.5l-58 -205q-27 -72 -69.5 -90.5t-94.5 10.5q-12 33 -5 71t26.5 95t49.5 142t63 212q35 127 40 248q4 109 13 213q-72 -10 -142 -18 q-113 -14 -206 -23q-49 -197 -113 -342q-72 -160 -149.5 -273.5t-156.5 -189.5t-147 -131q-139 -117 -287.5 -170t-326.5 -53q-121 0 -221.5 35t-174 103.5t-114.5 168.5t-41 232z" />
<glyph unicode="&#x417;" horiz-adv-x="2637" d="M35 227q-6 100 62.5 193.5t194.5 163t302 107.5t387 30q262 -12 405.5 -84t149.5 -180q4 -53 -26.5 -103.5t-94 -88.5t-161 -59.5t-228.5 -15.5q-129 8 -186.5 32t-57.5 57q-2 10 3.5 20t13.5 14q39 -12 92 -19t110 -11q100 -4 177 7t129.5 34.5t79 54.5t24.5 65 q-4 61 -117.5 112.5t-328.5 61.5q-172 8 -321.5 -21.5t-259.5 -82.5t-171 -127t-55 -156q4 -76 66.5 -147.5t184 -127.5t300 -95t415.5 -51q309 -14 554 49t408 169.5t236.5 239.5t40 261t-182 233.5t-429.5 155.5q-119 23 -226 29.5t-179 2.5q-131 -6 -208 -11t-116 22 q-37 27 -33 43q12 45 112.5 64t250.5 -1q117 -4 216 16.5t189 36.5q102 18 181 63.5t132.5 100.5t81 110.5t27.5 96.5q0 115 -69.5 218t-200.5 181t-319.5 123t-424.5 45q-170 0 -303 -34.5t-225 -91t-141.5 -128t-49.5 -147.5q0 -59 37 -121.5t113 -114t192.5 -84 t278.5 -32.5q104 0 187 17t139.5 47t86 69t29.5 82t-27.5 85t-81.5 73.5t-132 52t-176 20.5q-61 0 -113.5 -11t-92.5 -31.5t-64.5 -48.5t-30.5 -61q-47 -10 -70 12.5t-23 55.5t23.5 66.5t71 60.5t120 43t168.5 16q129 0 230.5 -31.5t172 -82.5t107.5 -114.5t37 -127.5 q0 -72 -43 -127t-116.5 -93t-172 -58.5t-211.5 -20.5q-180 0 -320 41t-235.5 108.5t-145.5 152.5t-50 175q0 102 62.5 192.5t174 157t266 105.5t339.5 39q270 0 488 -58.5t367.5 -154.5t221 -221t51.5 -256q-35 -215 -192.5 -325t-407.5 -134q260 -25 433 -96.5t266.5 -173 t111.5 -221t-33 -239.5t-167.5 -230.5t-293 -192.5t-407 -126t-510.5 -32q-268 12 -466 56.5t-330 113t-199.5 157.5t-73.5 191z" />
<glyph unicode="&#x418;" horiz-adv-x="2635" d="M-164 930q0 137 38 276.5t105.5 268.5t159.5 240.5t199.5 194.5t226.5 130t240 47q94 0 169 -33t127 -92t79.5 -143t27.5 -187q0 -131 -32.5 -257t-83 -250t-107.5 -243.5t-107.5 -239.5t-83 -237.5t-32.5 -236.5q0 -90 24.5 -156.5t67.5 -110.5t101.5 -65.5t125.5 -21.5 q113 0 228.5 58t227.5 179t217.5 309.5t197.5 446.5q10 244 40.5 435.5t65.5 293.5q31 90 68 90q16 0 27.5 -22.5t11.5 -79.5q0 -55 -8.5 -129t-22.5 -161t-33.5 -183.5t-44.5 -194.5q-4 -41 -4 -81v-81q0 -197 19.5 -335t50 -224t69.5 -125t78 -39q37 0 75 22.5t82 87 t96.5 183.5t113.5 309q57 0 39 -75q-45 -178 -95.5 -304t-103.5 -206t-108.5 -116t-110.5 -36q-61 0 -115.5 41t-95.5 127t-66.5 222t-29.5 327q-86 -221 -189.5 -386t-218.5 -275.5t-237.5 -165t-245.5 -54.5q-96 0 -176 32t-138.5 91.5t-90 145.5t-31.5 194 q0 119 33.5 236.5t85 235.5t111.5 237t111.5 241.5t85 250.5t33.5 266q0 166 -80.5 263t-230.5 97q-100 0 -201.5 -41t-193.5 -113.5t-171 -169t-137.5 -208t-91 -232.5t-32.5 -240q0 -174 62.5 -246.5t162.5 -72.5q88 0 173 55.5t152.5 145.5t109.5 206.5t42 237.5 q0 86 -34.5 132t-94.5 46q-76 0 -133 -51t-82 -119q-35 -4 -51 22.5t8 76.5q20 41 52 75.5t70 59t79 39t82 14.5q102 0 153.5 -74.5t51.5 -195.5q0 -141 -49.5 -283.5t-131.5 -256.5t-188.5 -185.5t-218.5 -71.5q-141 0 -232.5 102.5t-91.5 315.5z" />
<glyph unicode="&#x419;" horiz-adv-x="2635" d="M-164 930q0 137 38 276.5t105.5 268.5t159.5 240.5t199.5 194.5t226.5 130t240 47q94 0 169 -33t127 -92t79.5 -143t27.5 -187q0 -131 -32.5 -257t-83 -250t-107.5 -243.5t-107.5 -239.5t-83 -237.5t-32.5 -236.5q0 -90 24.5 -156.5t67.5 -110.5t101.5 -65.5t125.5 -21.5 q113 0 228.5 58t227.5 179t217.5 309.5t197.5 446.5q10 244 40.5 435.5t65.5 293.5q31 90 68 90q16 0 27.5 -22.5t11.5 -79.5q0 -55 -8.5 -129t-22.5 -161t-33.5 -183.5t-44.5 -194.5q-4 -41 -4 -81v-81q0 -197 19.5 -335t50 -224t69.5 -125t78 -39q37 0 75 22.5t82 87 t96.5 183.5t113.5 309q57 0 39 -75q-45 -178 -95.5 -304t-103.5 -206t-108.5 -116t-110.5 -36q-61 0 -115.5 41t-95.5 127t-66.5 222t-29.5 327q-86 -221 -189.5 -386t-218.5 -275.5t-237.5 -165t-245.5 -54.5q-96 0 -176 32t-138.5 91.5t-90 145.5t-31.5 194 q0 119 33.5 236.5t85 235.5t111.5 237t111.5 241.5t85 250.5t33.5 266q0 166 -80.5 263t-230.5 97q-100 0 -201.5 -41t-193.5 -113.5t-171 -169t-137.5 -208t-91 -232.5t-32.5 -240q0 -174 62.5 -246.5t162.5 -72.5q88 0 173 55.5t152.5 145.5t109.5 206.5t42 237.5 q0 86 -34.5 132t-94.5 46q-76 0 -133 -51t-82 -119q-35 -4 -51 22.5t8 76.5q20 41 52 75.5t70 59t79 39t82 14.5q102 0 153.5 -74.5t51.5 -195.5q0 -141 -49.5 -283.5t-131.5 -256.5t-188.5 -185.5t-218.5 -71.5q-141 0 -232.5 102.5t-91.5 315.5zM1460 2099q0 37 33 52.5 t74 5.5q14 -78 73.5 -118t141.5 -40q78 0 138 40t79 115q31 10 56.5 1t25.5 -44q-2 -39 -25.5 -78.5t-65.5 -72.5t-98.5 -52.5t-130.5 -19.5q-61 0 -116.5 17.5t-95.5 46t-64.5 66.5t-24.5 81z" />
<glyph unicode="&#x41a;" horiz-adv-x="2906" d="M0 322q0 119 54.5 228t161 193t264 134.5t366.5 50.5q141 0 260 -31t206 -84t135 -124t48 -152q0 -82 -40 -158t-117.5 -133.5t-192.5 -91t-264 -33.5q-74 0 -140.5 14.5t-119 38t-83 55t-30.5 66.5q0 31 24.5 51.5t71.5 13.5q2 -25 25.5 -49t63.5 -43.5t93.5 -32 t114.5 -12.5q113 0 200 24.5t146.5 65.5t89 94.5t29.5 112.5q0 63 -42 119.5t-113.5 96.5t-168 63.5t-204.5 23.5q-182 0 -315.5 -42t-220.5 -109.5t-130 -154.5t-43 -179q0 -115 62.5 -220.5t178 -185t279.5 -127t367 -47.5q358 0 552.5 180.5t194.5 510.5q0 82 -11 193.5 t-28 234.5q-18 -2 -36.5 -3.5t-34.5 -1.5q-88 0 -121 15.5t-33 34.5q0 18 44 38.5t165 30.5q-20 147 -35.5 279.5t-15.5 214.5q0 117 14.5 218t48.5 181q-16 -2 -30.5 -2h-30.5q-109 0 -218.5 20.5t-222 46t-227 46t-233.5 20.5q-104 0 -180 -24.5t-123 -64.5t-70 -89 t-23 -96q0 -63 31 -117.5t87.5 -94.5t135 -63.5t177.5 -23.5q84 0 175 26.5t144 69.5q41 0 41 -41q0 -37 -47 -70q-57 -41 -150.5 -66.5t-189.5 -25.5q-125 0 -223.5 32t-167 85t-104 124t-35.5 148q0 72 33.5 143.5t100 128t165 92.5t229.5 36q117 0 236.5 -23.5 t236.5 -51.5t230.5 -51.5t218.5 -23.5q53 0 92 8l20 21q76 76 137 76q39 0 39 -35q0 -18 -9 -35.5t-23 -32.5q-47 -47 -123 -71q-29 -70 -41.5 -164t-12.5 -221q0 -43 4.5 -101.5t12.5 -127t17 -144.5t20 -152h41q92 27 174 74t153 119q100 98 171 226t129.5 257t114.5 244 t130 188q41 41 81 58.5t77 17.5q41 0 58.5 -19.5t17.5 -37.5q0 -35 -27 -51q-39 6 -71 -7.5t-70 -52.5q-55 -55 -108.5 -162.5t-113 -231.5t-132 -251t-169.5 -223q-111 -111 -245 -176q168 -53 311 -208t264 -444q96 -229 184 -402t189 -271q115 -111 225 -111q72 0 130 39 t89 119q43 2 53.5 -30t-12.5 -79q-39 -78 -110.5 -127t-167.5 -47q-76 2 -151 35t-146 104q-49 49 -95.5 119t-93.5 160t-96 201.5t-106 244.5q-70 162 -140.5 279t-148.5 193.5t-163 115.5t-181 43l-31 -6q16 -135 30.5 -254t14.5 -190q0 -199 -63.5 -348.5t-180 -250 t-280.5 -150.5t-367 -50q-205 0 -384 51t-313 140t-212 212t-78 267z" />
<glyph unicode="&#x41b;" horiz-adv-x="2240" d="M-160 -16q0 152 44 309.5t120 303.5t177.5 275t216 225.5t236.5 152t238 55.5q117 0 180.5 -73t63.5 -208q0 -127 -52 -256t-136 -233.5t-189.5 -170t-210.5 -65.5q-92 0 -145 52t-53 157q0 92 41 189.5t133 172.5q35 29 62.5 24t31.5 -34q-35 -27 -64.5 -63.5t-51 -78.5 t-34 -83t-12.5 -78q0 -72 33 -103.5t92 -31.5q76 0 156 53t144.5 135t105.5 179.5t41 187.5q0 104 -44 153.5t-122 49.5q-92 0 -193.5 -49.5t-201 -135.5t-190.5 -200.5t-159.5 -243.5t-109.5 -268.5t-41 -272.5q0 -106 26.5 -185t74.5 -130t111.5 -77t137.5 -26 q121 0 232.5 61.5t213 170t192.5 260.5t169 330q55 135 106.5 296.5t95.5 332.5t76.5 342t49.5 325q-27 420 67 420q39 0 54.5 -81t-5.5 -273q8 -143 26.5 -310.5t42 -337.5t52.5 -334.5t60 -306.5q25 -106 52 -193t57 -149.5t60.5 -97.5t61.5 -35q27 0 51.5 20.5t56 81 t72.5 170t101 289.5q57 0 38 -75q-43 -172 -84 -291t-81.5 -191.5t-82.5 -105.5t-87 -33t-88.5 28.5t-85 98.5t-80.5 184.5t-76 284.5q-20 102 -42 224t-40.5 248t-33.5 250t-21 228q-20 -129 -51 -265t-67 -267t-73 -252t-72 -219q-90 -229 -196.5 -407.5t-226 -301.5 t-250.5 -186.5t-269 -63.5q-92 0 -170.5 38t-137 106.5t-91.5 165t-33 213.5z" />
<glyph unicode="&#x41c;" horiz-adv-x="2838" d="M0 264q0 147 33 289.5t91 269.5t137 234.5t170 186.5t189.5 123t198.5 44q131 0 206 -93t75 -294q0 -135 -38 -265t-101.5 -232.5t-144.5 -165t-169 -62.5q-82 0 -136 66.5t-54 193.5q0 96 30.5 192.5t87.5 161.5q39 45 78 45q16 0 25.5 -11t11.5 -27 q-66 -63 -99.5 -154.5t-33.5 -169.5q0 -96 32 -139t79 -43q51 0 107 44t103.5 122.5t78 185t30.5 231.5q0 147 -52 221t-151 74q-74 0 -151.5 -37.5t-151 -104.5t-140.5 -160t-117 -202.5t-79.5 -231.5t-31.5 -249q-2 -129 24.5 -222t73.5 -153.5t110.5 -88t137.5 -27.5 q123 0 259 94t267 311t246 569.5t194 868.5q4 293 28 445.5t73 152.5q25 0 39 -38t14 -130q0 -152 -59 -498q8 -182 31.5 -375.5t58.5 -371.5t78 -328.5t86 -247.5q27 -59 48 -88.5t48 -29.5q47 0 102 122q31 68 63.5 162t64.5 202.5t62.5 226.5t57.5 236t48.5 229.5 t35.5 207.5q8 274 34.5 395t69.5 121q20 0 34 -26.5t14 -100.5q0 -47 -8.5 -128t-18.5 -165q-6 -129 -4 -279.5t11 -303t26.5 -299t42.5 -267.5q57 -297 131 -481t149.5 -285.5t149.5 -136.5t135 -35q76 0 141.5 41t93.5 115q43 2 52.5 -30.5t-13.5 -80.5 q-39 -80 -115.5 -126t-172.5 -46q-90 0 -184.5 51.5t-183.5 173t-166 325.5t-130 511q-29 174 -45 341t-20 337q-20 -115 -49 -239.5t-64 -245.5t-73 -233.5t-77 -205.5q-59 -137 -108 -192t-103 -55q-94 0 -186 211q-37 82 -71.5 199.5t-65.5 256t-54.5 290t-35.5 302.5 q-76 -418 -189.5 -712.5t-247 -482t-278.5 -273.5t-283 -86q-102 0 -184 40t-139.5 113.5t-88 180t-30.5 239.5z" />
<glyph unicode="&#x41d;" horiz-adv-x="3147" d="M0 307q0 123 63.5 239t181 205t285.5 143t377 54q141 0 255 -28.5t196 -78.5t126 -118t44 -148q0 -88 -51.5 -166.5t-141.5 -137t-213 -93.5t-268 -35q-199 0 -307.5 66.5t-108.5 167.5q0 47 25.5 91t71 78t106.5 53t133 19q66 0 90.5 -13t24.5 -36t-19 -32 q-78 8 -136 -2.5t-98 -33t-60.5 -53t-20.5 -63.5q0 -59 79 -100t240 -41q115 0 212.5 25.5t168 68.5t109.5 101.5t39 123.5q0 63 -40 115.5t-110.5 89.5t-165 56.5t-202.5 19.5q-178 0 -318.5 -45t-239 -120t-150.5 -169t-52 -193q0 -115 64.5 -213t182 -169.5t280.5 -113.5 t360 -42t349 52t256.5 151.5t160 244t55.5 330.5q0 23 -1 47.5t-1 50.5q-129 43 -196.5 115t-67.5 166q0 86 56 148.5t169 78.5q-8 84 -12 159t-4 134q0 135 13 242.5t48 185.5q-14 -2 -28.5 -2h-30.5q-109 0 -217.5 21.5t-224 46t-237.5 46t-255 21.5q-106 0 -178 -19.5 t-116 -51t-62.5 -74.5t-18.5 -88q0 -100 99.5 -170t279.5 -70q84 0 175 27.5t144 70.5q18 0 29.5 -11t11.5 -27q0 -37 -47 -70q-57 -41 -150 -66.5t-190 -25.5q-229 0 -353 93t-124 243q0 70 31 132t93 109t156.5 76t221.5 29q131 0 258 -23.5t248 -51.5t234.5 -51.5 t217.5 -23.5q53 0 92 8l21 21q76 76 137 76q39 0 39 -35q0 -18 -9 -35.5t-24 -32.5q-47 -47 -123 -71q-31 -68 -42 -164t-11 -250q0 -63 5 -147t14 -177q92 -6 194.5 -40.5t201.5 -92t190 -133.5t159 -168q10 2 20.5 3t20.5 5q0 201 10.5 386.5t25.5 341t34.5 275.5 t42.5 191q27 86 53.5 123t64.5 37q23 0 37.5 -14.5t16.5 -36.5q-33 -29 -65 -129t-57.5 -265t-42 -388.5t-16.5 -493.5q78 25 115 49q35 -4 35 -41q0 -45 -76 -78q-14 -6 -32.5 -13t-41.5 -13q0 -59 1.5 -119.5t5.5 -124.5q18 -59 33.5 -122.5t26.5 -122t17.5 -107.5 t6.5 -80q0 -74 -12.5 -106.5t-37.5 -32.5q-23 0 -44 33.5t-40.5 107.5t-34 189.5t-20.5 279.5q-16 41 -37.5 83t-50.5 83q-86 -14 -183 -22.5t-196 -8.5q-162 0 -284 25q0 -18 1 -36t1 -32q0 -209 -62.5 -374t-184.5 -278.5t-301 -174t-415 -60.5q-205 0 -384 45t-312 128 t-210 201t-77 261zM1669 940q0 -49 39 -94t117 -80q-4 72 -11.5 147.5t-13.5 149.5q-70 -10 -100.5 -42t-30.5 -81zM1911 1065q8 -88 15 -174t11 -164q125 -31 312 -31q158 0 293 19q-61 70 -136 130t-157 106t-168 76t-170 38z" />
<glyph unicode="&#x41e;" horiz-adv-x="2750" d="M-102 989q0 135 38.5 269.5t113.5 255t183.5 224t250 179.5t313 119t370.5 43q336 0 596 -92.5t438.5 -246t271.5 -354t93 -419.5q0 -176 -53 -339t-149.5 -304.5t-227.5 -257t-285.5 -198.5t-328.5 -129t-353 -46q-199 0 -363.5 54t-287.5 153.5t-198.5 239t-96.5 309.5 q-162 86 -243.5 222t-81.5 318zM18 1020q0 -135 48.5 -241.5t148.5 -176.5q2 104 20.5 212t48 207t68.5 183t86 139q27 33 56.5 34t44.5 -34q-39 -43 -76 -123.5t-66.5 -180t-48 -207t-18.5 -201.5v-51.5t4 -49.5q205 -94 512 -94q195 0 365.5 43t298.5 109.5t202 146.5 t74 152q0 78 -77 134t-206 54q-10 27 9.5 50.5t78.5 23.5q141 0 227.5 -69.5t86.5 -180.5q0 -106 -87 -208.5t-236.5 -182.5t-346.5 -129t-416 -49q-135 0 -249.5 16t-211.5 47q33 -131 103.5 -236.5t174 -179t240 -113.5t300.5 -40q176 0 337.5 41t301 114.5t254 177 t196.5 228.5t126 268.5t44 296.5q0 213 -93 399.5t-262 326t-404.5 219t-520.5 79.5q-266 0 -477 -81t-357.5 -214t-224.5 -305t-78 -354z" />
<glyph unicode="&#x41f;" horiz-adv-x="3084" d="M-43 369q25 113 105.5 221t206.5 193t291 137.5t358 52.5q141 0 246.5 -30t172 -84t92 -128t5.5 -160q-16 -78 -69.5 -144.5t-133.5 -115.5t-182.5 -77.5t-219.5 -28.5q-72 0 -143.5 12t-125.5 35.5t-85 54.5t-22 68q6 31 34.5 51t75.5 14q-4 -29 22.5 -52t73 -41.5 t103.5 -29t117 -10.5q84 0 158.5 19.5t133 54.5t96.5 81t50 101q14 61 -7.5 117.5t-76.5 98.5t-143.5 66.5t-210.5 24.5q-164 0 -301.5 -41t-241 -108.5t-170 -155.5t-86.5 -180q-27 -119 8 -224.5t132 -185t259 -127t389 -47.5q414 0 645.5 157t298.5 454 q29 129 40.5 275.5t18.5 294.5t18.5 293.5t39.5 274.5q31 141 81.5 208t105.5 67q25 0 39 -16.5t12 -45.5q-35 -23 -68 -80t-53 -143q-12 -55 -21.5 -139t-17.5 -174t-13 -174t-7 -140q-4 -123 -16.5 -250.5t-47.5 -275.5q-37 -164 -128 -293t-230.5 -218t-321.5 -136 t-399 -47q-250 0 -430.5 55t-292 148.5t-153.5 215t-11 257.5zM408 1704q8 96 57 186t145.5 158t243.5 103.5t350 23.5q172 -12 350.5 -51t356.5 -83t354 -82t346 -48q186 -12 311 37q33 14 62 38.5t52.5 53t38.5 58.5t20 54q14 72 -4.5 128.5t-56.5 95.5t-88 59.5t-99 19.5 t-90 -24t-62 -70q-16 -39 -10 -71.5t28.5 -54t59.5 -29.5t86 -2q2 -14 -4 -36t-22.5 -39.5t-48 -25.5t-83.5 4q-59 29 -90 68t-40 81t-1 84t29 77q39 68 105.5 102.5t140 37.5t147.5 -21.5t129 -76t84 -127t12 -173.5q-6 -37 -21 -78t-38 -81t-54.5 -74.5t-68.5 -59.5 q-63 -39 -170.5 -63.5t-261.5 -14.5q-178 12 -361.5 50t-364.5 82t-355 82t-336 48q-178 10 -299 -16.5t-198 -76.5t-111.5 -116.5t-40.5 -134.5q-8 -80 24.5 -148.5t97 -121t157.5 -85t208 -40.5q139 -10 258 19.5t203 88.5q39 -8 37 -51q-6 -41 -99 -92q-37 -16 -84 -32.5 t-101 -27t-115.5 -15.5t-125.5 -1q-145 8 -257.5 51t-189.5 109.5t-114 155t-28 188.5zM2314 647q4 297 35 489t66 294q31 90 67 90q16 0 27.5 -22.5t11.5 -80.5q0 -55 -14.5 -119.5t-32.5 -145.5t-36.5 -180.5t-24.5 -221.5q-4 -41 -4.5 -81t-0.5 -81q0 -104 19 -242 q23 -141 51 -223q31 -86 70 -125t78 -39q35 0 73.5 22.5t82.5 87t96.5 183.5t113.5 309q57 0 39 -76q-45 -178 -95 -304t-103.5 -205.5t-108.5 -115.5t-111 -36q-94 0 -165.5 92t-112.5 297q-25 133 -21 434z" />
<glyph unicode="&#x420;" horiz-adv-x="2504" d="M-205 1364q0 137 109.5 265t301 228.5t449.5 161t555 60.5q303 0 528.5 -63.5t374 -165t221 -228.5t72.5 -256q0 -176 -88 -328.5t-246.5 -264t-377.5 -176.5t-482 -65q-66 0 -126 4.5t-115 12.5q2 -16 2 -31.5v-32.5q0 -74 -2 -154.5t-6 -158.5t-10.5 -148.5 t-12.5 -121.5q-8 -57 -26.5 -81t-47.5 -24q-12 0 -25.5 6.5t-21.5 18.5q8 33 15.5 95.5t12.5 144t8 177t3 195.5q0 35 -1 69t-1 68q-78 23 -138.5 52.5t-101.5 70.5q-29 29 -45 63t-16 62q0 41 26.5 58.5t61.5 7.5q6 -53 57.5 -105.5t149.5 -89.5q-14 205 -49 356.5 t-86 239.5q10 57 61 57q33 0 54.5 -26.5t46.5 -95.5q70 -201 88 -564q55 -10 118.5 -16t135.5 -6q244 0 440.5 57.5t334.5 155.5t211.5 229t73.5 277q0 119 -71.5 231.5t-210.5 199.5t-343 139t-468 52q-256 0 -485.5 -50t-402.5 -133t-274.5 -190.5t-101.5 -222.5 q0 -55 30 -99t82 -77t121.5 -50t149.5 -17q78 0 131 16q29 -10 29 -35q0 -37 -58.5 -57.5t-144.5 -20.5q-94 0 -179 22.5t-149.5 64.5t-102.5 102.5t-38 134.5z" />
<glyph unicode="&#x421;" horiz-adv-x="2437" d="M113 535q0 195 70.5 384t193.5 361t290 318.5t359.5 253t402 167t418.5 60.5q150 0 255.5 -30t170 -84t94 -129t29.5 -167q0 -113 -48 -233.5t-130 -235.5t-191.5 -219t-231.5 -182t-251 -124t-250 -46q-164 0 -250 79.5t-86 215.5q0 80 29 163.5t77 162.5t111.5 148.5 t135 122t145.5 82t143 29.5q102 0 149.5 -62.5t47.5 -160.5q0 -90 -29.5 -170t-77 -140.5t-106.5 -95t-119 -34.5q-86 0 -127 64.5t-41 170.5q0 43 8.5 89t24.5 89q-47 -41 -89 -90t-72.5 -104t-49 -111.5t-18.5 -109.5q0 -111 58.5 -160t174.5 -49q100 0 209 39 t212.5 104.5t196.5 153.5t163.5 187t111.5 204.5t41 206.5q0 70 -23.5 127t-72.5 98t-127 64.5t-186 23.5q-201 0 -398.5 -57.5t-377 -156.5t-333 -234.5t-266 -292t-176 -326.5t-63.5 -340q0 -164 59 -300t174 -234.5t282 -152.5t384 -54q236 0 447.5 56t382.5 157.5 t291 240t173 301.5q66 0 47 -75q-33 -119 -104.5 -225.5t-174 -195.5t-230.5 -161t-268 -121t-290 -75.5t-295 -26.5q-219 0 -404.5 55t-319.5 162.5t-209.5 264.5t-75.5 360zM1399 1274q0 -84 27.5 -120t64.5 -36q33 0 64.5 18.5t58 51.5t43 78t16.5 96q0 66 -28.5 98.5 t-79.5 32.5q-59 0 -125 -35q-23 -47 -32 -93t-9 -91z" />
<glyph unicode="&#x422;" horiz-adv-x="3387" d="M-35 336q20 113 99 221.5t203 193.5t288 137t356 52q141 0 248 -29.5t174.5 -84t95 -128t9.5 -159.5q-16 -78 -67.5 -144.5t-130.5 -116t-180.5 -78t-217.5 -28.5q-72 0 -143.5 12.5t-127 36t-87 54t-23.5 67.5q6 31 34.5 51.5t75.5 14.5q-4 -29 24 -52.5t74 -42t103 -29 t117 -10.5q84 0 158.5 19.5t131 54.5t94.5 81t48 101q12 61 -10.5 118t-78.5 98.5t-145.5 66.5t-212.5 25q-164 0 -300 -41t-237 -108.5t-166 -156t-83 -180.5q-25 -119 13 -224t137.5 -185t262.5 -127t390 -47q414 0 642 156.5t288 453.5q25 129 33 280.5t12 306t11 305 t34 279.5q29 141 77 208t103 67q25 0 39 -16.5t12 -45.5q-35 -23 -65.5 -80t-46.5 -143q-10 -55 -18.5 -144t-14.5 -185.5t-10.5 -185.5t-4.5 -144q-2 -123 -12 -251t-39 -276q-33 -164 -121 -293t-225 -218t-318.5 -136t-398.5 -47q-250 0 -432 55.5t-295.5 148.5 t-157.5 215t-18 257zM410 1708q8 96 61 187.5t156.5 159t261.5 103t377 23.5q186 -12 376.5 -51t383 -84t382 -83t371.5 -48q98 -6 184 3t152 36q35 14 65.5 38.5t55 53.5t41 58.5t22.5 54.5q14 72 -5 128t-60 96t-94.5 60.5t-106.5 20.5t-97 -23.5t-67 -70.5 q-16 -39 -10 -72t29.5 -54.5t63.5 -30.5t93 -3q2 -14 -4 -36t-24.5 -39t-52 -25.5t-89.5 4.5q-63 29 -96 67.5t-43 81.5t-1 85t32 77q43 68 113.5 102.5t150.5 38.5t159 -21.5t138 -76.5t90 -128t12 -175q-6 -37 -22.5 -78t-41 -82t-58 -75.5t-72.5 -59.5 q-68 -39 -183.5 -63.5t-281.5 -14.5q-193 12 -389.5 51t-392 83t-383 82t-361.5 48q-190 10 -321 -17.5t-212 -77.5t-120 -116.5t-45 -134.5q-8 -80 26.5 -149.5t104.5 -123t171 -86t224 -40.5q147 -10 275.5 20.5t218.5 89.5q43 -10 41 -51q-4 -25 -29 -46t-78 -48 q-78 -35 -197.5 -60.5t-261.5 -15.5q-156 8 -277.5 51t-203.5 111t-121 156t-30 190zM2130 53q23 -2 38 47.5t24.5 136.5t12.5 205.5t1 257.5q2 152 6 268.5t18 194.5q18 104 41 148.5t64 50.5q25 2 41 -11.5t20 -39.5q-23 2 -37 -47.5t-23 -136.5t-12.5 -206.5t-1.5 -256.5 q-2 -152 -6 -270t-20 -193q-18 -104 -42 -148.5t-63 -50.5q-25 -2 -41 10.5t-20 40.5zM2568 631q4 293 35 484.5t66 293.5q31 90 67 90q16 0 27.5 -22.5t11.5 -79.5q0 -55 -14.5 -120t-32.5 -145.5t-36.5 -180t-25.5 -218.5q-4 -41 -4 -81v-81q0 -104 19 -241 q23 -141 51 -224q31 -86 70 -124.5t77 -38.5q35 0 74 22.5t83 87t96.5 183t113.5 309.5q57 0 39 -76q-45 -178 -95 -304t-103.5 -206t-109 -116t-110.5 -36q-94 0 -165.5 92.5t-112.5 297.5q-25 133 -21 434z" />
<glyph unicode="&#x423;" horiz-adv-x="2639" d="M-164 1106q0 117 42 235.5t113.5 230t167 209t204 170t222 114.5t222.5 42q143 0 218 -78.5t75 -234.5q0 -137 -34 -263t-74 -247t-73.5 -241.5t-33.5 -247.5q0 -168 78.5 -250t207.5 -82q109 0 233 62.5t248 176t239.5 273.5t205.5 354q12 104 38 201.5t60 163.5 q39 76 76 75q29 0 29 -59q0 -88 -32 -190.5t-77 -212.5q-2 -29 -2 -55.5v-57.5q0 -178 35 -346t78 -325.5t78 -304t35 -279.5q0 -162 -77 -311.5t-219.5 -265.5t-347 -184.5t-462.5 -68.5q-201 0 -367 41t-284.5 114.5t-184 174t-65.5 219.5q0 100 61 202.5t178 185.5 t286 134t384 51q150 0 258 -25.5t179 -69.5t103.5 -102.5t32.5 -121.5q0 -92 -54 -177t-148.5 -148.5t-219.5 -101.5t-266 -38q-195 0 -293 70.5t-98 173.5q0 68 35 112.5t72 44.5q39 1 43 -34q-37 -35 -37 -90q0 -74 74.5 -119t234.5 -45q115 0 213 28.5t171 75.5 t114 105.5t41 117.5q0 45 -27 88t-84 76t-146.5 52.5t-214.5 19.5q-193 0 -338 -41t-241 -105.5t-145.5 -144.5t-49.5 -156q0 -96 56.5 -179t159 -144.5t245.5 -96t320 -34.5q240 0 422 56t307 154.5t188.5 229.5t63.5 279q0 135 -29 267t-65.5 273.5t-68.5 297t-38 337.5 q-94 -188 -211 -333.5t-241 -246t-248.5 -151.5t-237.5 -51q-180 0 -283.5 112.5t-103.5 317.5q0 125 34.5 243.5t75.5 240.5t76 249t35 268q0 104 -50 165t-155 61q-90 0 -187 -37t-189.5 -99.5t-175.5 -146.5t-145.5 -179t-99 -196.5t-36.5 -197.5q0 -72 17.5 -120t47 -79 t69.5 -44t83 -13q86 0 171 48t153.5 123.5t110.5 170t42 188.5q0 150 -129 150q-41 0 -86 -20.5t-85 -52.5t-73 -73t-51 -82q-35 -4 -50 23.5t7 70.5q27 51 68 97.5t91 79t105.5 52t108.5 19.5q98 0 150.5 -57t52.5 -168q0 -119 -53.5 -241t-139.5 -221t-195.5 -162.5 t-222.5 -63.5q-63 0 -117.5 21.5t-95.5 64.5t-64.5 107.5t-23.5 152.5z" />
<glyph unicode="&#x424;" horiz-adv-x="3616" d="M223 627q-8 111 28 221t106.5 207.5t173 177.5t228.5 132t269 68.5t299 -10.5q201 -33 296 -105.5t114 -176.5q10 -51 -5.5 -102.5t-57.5 -99.5t-109.5 -89t-163.5 -72q-123 -41 -243 -45t-214 25q-41 8 -59.5 28.5t-23.5 43t2 42t20 27.5q39 -23 92 -34t115.5 -13t130 6 t135.5 29q141 47 203.5 111.5t54.5 127.5q-6 33 -38 63t-79 53.5t-103.5 40t-111.5 22.5q-168 20 -313.5 -11.5t-259 -101.5t-193.5 -168t-119 -207.5t-32.5 -221.5t62.5 -211t168 -176t286 -114q123 -27 264 4t271 111t234.5 203t151.5 282q0 111 -4 224.5t4 228.5 q2 35 9.5 84t16.5 98t19.5 93t20.5 71q-41 4 -70 6q-31 4 -49 6q-211 23 -360.5 66t-243.5 98t-133 118.5t-29 129.5q2 39 33 79t84 70.5t125.5 48t158.5 11.5q55 -2 73 -20.5t5 -49.5q-86 6 -152.5 -4t-112.5 -30.5t-71.5 -48t-31.5 -54.5q-8 -47 23.5 -96t113.5 -93 t218 -80t339 -57q33 -4 61.5 -7t63.5 -5q57 119 147 211t201 151.5t238 84t258 12.5q147 -14 205.5 -70.5t41.5 -126.5q-12 -86 -102 -153.5t-231.5 -111.5t-320.5 -66.5t-365 -20.5q-6 -14 -14.5 -44t-18.5 -69t-18.5 -84t-14.5 -88q-10 -106 -10 -213q68 102 153 178 q119 102 254 162t274.5 78.5t260.5 1.5q197 -25 322.5 -86t196.5 -152.5t93.5 -204t14.5 -237.5q-6 -158 -85 -294t-208 -232t-294 -144.5t-341 -29.5q-100 8 -172 32.5t-120 60.5t-76 81t-36 98q-10 51 5.5 102.5t56.5 99.5t109.5 89t164.5 72q123 41 243 45t214 -25 q39 -10 58.5 -29.5t24.5 -42t-2 -42t-20 -27.5q-39 20 -92 32.5t-115.5 14.5t-130 -6t-135.5 -29q-141 -47 -203.5 -111.5t-54.5 -128.5q6 -33 34 -62.5t69 -53t93 -40t107 -22.5q141 -20 265 14.5t223.5 105.5t170 169t103.5 206.5t23.5 217.5t-69.5 200t-175 156.5 t-295 85.5q-125 14 -266.5 -17.5t-270.5 -107t-231 -194.5q-82 -94 -129 -213q4 -43 8 -84q12 -129 29.5 -251t30.5 -228q27 -186 30 -346q-4 -137 -54 -250t-134 -193t-195.5 -122t-240.5 -38q-119 14 -193 77t-103.5 141.5t-18 157.5t64.5 126q47 39 110.5 61.5t128 19.5 t120 -32.5t85.5 -93.5q20 -55 15 -85t-22 -43t-40.5 -14t-38.5 3q4 61 -17.5 103t-58 58.5t-85 6.5t-97.5 -55q-35 -37 -41 -91.5t14.5 -106.5t70.5 -91t130 -43q117 -4 207 49t150.5 134t91 176t30.5 175q0 98 -9 206t-27 218q-12 84 -27 183q-2 10 -2 22 q-45 -100 -107 -182q-68 -88 -151.5 -152.5t-176.5 -108.5t-188.5 -69t-187.5 -30t-172 5q-297 55 -457 227.5t-170 422.5zM2023 1581q168 -4 322 15.5t270.5 55.5t189 86t83.5 107q8 33 -27 61t-127 38q-119 14 -225.5 -6.5t-196.5 -67.5t-163.5 -121t-125.5 -168z" />
<glyph unicode="&#x425;" horiz-adv-x="2398" d="M-41 162q0 143 37 275t98.5 245t143 205t171 156.5t181.5 100.5t176 36q129 0 199.5 -91.5t70.5 -246.5q0 -139 -43 -267.5t-112.5 -225.5t-158.5 -154.5t-181 -57.5t-148.5 57.5t-56.5 157.5q0 39 6 78t20 68q31 72 76 71q31 0 43 -24q-18 -39 -26.5 -81t-8.5 -73 q0 -66 36 -95.5t93 -29.5q61 0 125 45t116 121t85 175.5t33 205.5q0 117 -48 180.5t-145 63.5q-74 0 -153.5 -32t-154.5 -90t-141.5 -139t-116.5 -179.5t-79.5 -210t-29.5 -230.5q0 -102 27.5 -180t76.5 -132t117.5 -82t150.5 -28q133 0 246 51.5t211 149.5 q121 121 263 356.5t304 616.5q-55 188 -102 338.5t-93 265.5t-93.5 197.5t-100.5 136.5q-106 106 -260 106q-86 0 -155.5 -28.5t-119 -74.5t-77 -103.5t-27.5 -114.5q0 -31 8.5 -58.5t26.5 -50.5q-8 -23 -29.5 -37t-46.5 -14q-39 0 -64.5 28.5t-25.5 88.5q0 82 41 164.5 t111.5 150.5t166 111t205.5 43q100 0 185.5 -32t148.5 -97q55 -59 101.5 -138t89.5 -183.5t86 -238t94 -303.5q186 408 330.5 648.5t255.5 351.5q119 119 213 165t180 46q59 0 89 -22.5t30 -61.5q0 -20 -9.5 -37.5t-27.5 -28.5q-14 10 -32.5 16.5t-53.5 6.5q-76 0 -153 -41 t-165 -129q-127 -127 -284.5 -397.5t-331.5 -651.5q39 -135 70.5 -238.5t57 -184.5t49.5 -146.5t46 -124.5q70 -180 130.5 -260t113.5 -80q45 0 83 28.5t78 103.5t87 202t110 323q57 0 39 -75q-51 -203 -97 -339t-94 -218t-100.5 -116t-113.5 -34q-98 0 -181.5 101.5 t-160.5 316.5q-23 57 -43.5 115.5t-42 127t-47 151.5t-56.5 190q-86 -203 -162.5 -354.5t-144.5 -263.5t-129 -190.5t-119 -134.5q-117 -117 -244 -170t-276 -53q-100 0 -186 35t-148.5 103.5t-97.5 168t-35 228.5z" />
<glyph unicode="&#x426;" horiz-adv-x="2996" d="M47 930q0 137 38 276.5t105.5 268.5t159.5 240.5t199.5 194.5t226.5 130t240 47q94 0 169 -33t127 -92t79.5 -143t27.5 -187q0 -131 -32.5 -257t-83 -250t-107.5 -243.5t-107.5 -239.5t-83 -237.5t-32.5 -236.5q0 -90 24.5 -156.5t67.5 -110.5t101.5 -65.5t125.5 -21.5 q113 0 228.5 58t227.5 179t217.5 309.5t197.5 446.5q10 246 40.5 435.5t65.5 293.5q31 90 68 90q16 0 27.5 -22.5t11.5 -79.5q0 -55 -8.5 -129t-21.5 -161t-33.5 -183.5t-45.5 -194.5q-4 -41 -4 -82v-80q0 -197 19.5 -335t50 -224t69.5 -125t78 -39q37 0 92 43q18 14 39 33 q-23 98 -43 189q-23 102 -21.5 182t36 130t120.5 56q35 4 62.5 -4t46 -23.5t30 -33t13.5 -31.5q12 -82 0 -164t-43 -157.5t-76 -141.5l-12 -18q18 -59 33 -121q25 -94 39 -183t8 -159q-4 -137 -53.5 -250t-131.5 -192.5t-192.5 -121.5t-239.5 -38q-119 14 -192.5 76.5 t-103 141.5t-18.5 157.5t64 126.5q47 39 110.5 61t128.5 19t120 -32.5t86 -93.5q20 -55 15 -84.5t-22.5 -43t-41 -14.5t-37.5 3q4 61 -17.5 103.5t-58.5 58.5t-85 6t-97 -55q-35 -37 -41 -91.5t14.5 -106.5t70.5 -91t130 -43q117 -4 206 49t148.5 134t89 176.5t31.5 175.5 q2 98 -21 208q-12 63 -26 125q-45 -43 -88 -67q-47 -29 -84 -29q-61 0 -115.5 41t-95.5 127t-66.5 222t-29.5 327q-86 -221 -189.5 -386t-218.5 -275.5t-237.5 -165t-245.5 -54.5q-96 0 -176 32t-138.5 91.5t-90 145.5t-31.5 194q0 119 33.5 236.5t85 235.5t111.5 237 t111.5 241.5t85 251.5t33.5 265q0 166 -80.5 263t-230.5 97q-102 0 -202.5 -41t-192.5 -113.5t-171 -169t-137.5 -208t-91 -232.5t-32.5 -240q0 -174 62.5 -246.5t162.5 -72.5q88 0 173 55.5t152.5 145.5t109.5 206.5t42 237.5q0 86 -35 132t-94 46q-76 0 -133 -51t-82 -119 q-35 -4 -51.5 22.5t8.5 76.5q20 41 52 75.5t70 59t79 39t82 14.5q104 0 154 -73.5t50 -196.5q0 -141 -49 -283.5t-131 -256.5t-188.5 -185.5t-218.5 -71.5q-141 0 -232.5 102.5t-91.5 315.5zM2642.5 397.5q3.5 -55.5 21.5 -133.5q12 -53 29 -112q34 59 57 131q27 90 5 182 q-16 37 -46 37t-47 -29q-23 -20 -19.5 -75.5z" />
<glyph unicode="&#x427;" horiz-adv-x="2916" d="M-39 1079q-14 115 16.5 236t93 233.5t151.5 213t195.5 175t223.5 120.5t231 50q154 4 237 -72.5t112 -232.5q14 -80 11 -158.5t-18.5 -156.5t-38 -154t-42.5 -147q-33 -106 -44.5 -222t14 -213.5t96.5 -160t206 -64.5q113 0 223.5 73t225 218.5t238.5 363.5t265 511 q41 121 81 194.5t76 111.5t67.5 48t54.5 4q20 -8 31.5 -30.5t-15.5 -80.5q-14 -27 -38.5 -61.5t-56.5 -81.5t-69 -110.5t-75 -145.5q-43 -106 -79 -225t-64.5 -240t-52.5 -236.5t-40 -215.5q-8 -61 -11 -143.5t5 -169.5t28.5 -172t58.5 -151.5t96.5 -106.5t142.5 -38 q37 2 75.5 25.5t78.5 90.5t81 185.5t84 309.5q33 0 42 -19.5t3 -58.5q-27 -178 -64.5 -303t-84 -205t-100.5 -118t-113 -40q-117 -4 -212.5 64.5t-157 193.5t-83 300t9.5 384q16 72 29.5 135.5t28 124t33 121t44.5 125.5q-84 -160 -173 -299t-186 -240.5t-203.5 -160 t-225.5 -58.5q-193 0 -316.5 112t-140.5 316q-12 100 14.5 221t61.5 247t62.5 248t15.5 226q-14 104 -73.5 164t-170.5 56q-96 -4 -195.5 -43t-190.5 -104.5t-170 -151.5t-134 -183.5t-83 -199t-15 -197.5q8 -70 32.5 -118t60.5 -77.5t79 -42t90 -10.5q92 2 177 53.5 t148.5 129t97 173t23.5 189.5q-18 145 -155 143q-43 -2 -88.5 -23.5t-84 -55t-69.5 -74.5t-45 -84q-39 -4 -58.5 23.5t0.5 70.5q23 51 61 98t87 82t105.5 56.5t113.5 23.5q215 6 244 -219q14 -117 -28 -241t-122 -226t-189.5 -169t-228.5 -71q-68 -2 -128 18.5t-108 61.5 t-80 105.5t-42 152.5z" />
<glyph unicode="&#x428;" horiz-adv-x="4126" d="M-164 930q0 137 38 276.5t105.5 268.5t159.5 240.5t199.5 194.5t226.5 130t240 47q94 0 169 -33t127 -92t79.5 -143t27.5 -187q0 -131 -32.5 -257t-83 -250t-107.5 -243.5t-107.5 -239.5t-83 -237.5t-32.5 -236.5q0 -90 24.5 -156.5t67.5 -110.5t101.5 -65.5t125.5 -21.5 q113 0 228.5 58t227.5 179t217.5 309.5t197.5 446.5q10 246 40.5 435.5t65.5 293.5q31 90 68 90q16 0 27.5 -22.5t11.5 -79.5q0 -55 -8.5 -129t-21.5 -161t-33.5 -183.5t-45.5 -194.5q-4 -41 -4 -81v-81q0 -76 3 -162t16.5 -171t39 -161.5t68.5 -136t107.5 -95.5t156.5 -36 q113 0 229.5 57.5t229.5 177.5t219.5 305t198.5 441q10 242 40.5 429.5t65.5 291.5q31 88 68 88q16 0 27.5 -22.5t11.5 -77.5q0 -53 -8.5 -127t-21.5 -160t-33.5 -181t-45.5 -191q-4 -41 -4 -80v-80q0 -195 19.5 -331t50.5 -221t69.5 -124t79.5 -39q35 0 74 22.5t84 87 t97 180.5t114 304q57 0 39 -74q-45 -176 -95.5 -301t-104.5 -202.5t-109.5 -113.5t-110.5 -36q-61 0 -116.5 40t-96.5 126t-67.5 220t-30.5 323q-86 -219 -190.5 -382t-219.5 -271.5t-238.5 -163t-248.5 -54.5q-131 0 -223.5 66.5t-148.5 175t-79.5 244t-17.5 274.5 q-86 -221 -189.5 -386t-218.5 -275.5t-237.5 -165t-245.5 -54.5q-96 0 -176 32t-138.5 91.5t-90 145.5t-31.5 194q0 119 33.5 236.5t85 235.5t111.5 237t111.5 241.5t85 251.5t33.5 265q0 166 -80.5 263t-230.5 97q-102 0 -202.5 -41t-192.5 -113.5t-171 -169t-137.5 -208 t-91 -232.5t-32.5 -240q0 -174 62.5 -246.5t162.5 -72.5q88 0 173 55.5t152.5 145.5t109.5 206.5t42 237.5q0 86 -34.5 132t-94.5 46q-76 0 -133 -51t-82 -119q-35 -4 -51 22.5t8 76.5q20 41 52 75.5t70 59t79 39t82 14.5q104 0 154.5 -73.5t50.5 -196.5 q0 -141 -49.5 -283.5t-131.5 -256.5t-188.5 -185.5t-218.5 -71.5q-141 0 -232.5 102.5t-91.5 315.5z" />
<glyph unicode="&#x429;" horiz-adv-x="4110" d="M-164 930q0 137 38 276.5t105.5 268.5t159.5 240.5t199.5 194.5t226.5 130t240 47q94 0 169 -33t127 -92t79.5 -143t27.5 -187q0 -131 -32.5 -257t-83 -250t-107.5 -243.5t-107.5 -239.5t-83 -237.5t-32.5 -236.5q0 -90 24.5 -156.5t67.5 -110.5t101.5 -65.5t125.5 -21.5 q113 0 228.5 58t227.5 179t217.5 309.5t197.5 446.5q10 246 40.5 435.5t65.5 293.5q31 90 68 90q16 0 27.5 -22.5t11.5 -79.5q0 -55 -8.5 -129t-21.5 -161t-33.5 -183.5t-45.5 -194.5q-4 -41 -4 -82v-80q0 -76 3 -162t16.5 -171t39 -161.5t68.5 -136t107.5 -95.5t156.5 -36 q113 0 229.5 57.5t229.5 177.5t219.5 305t198.5 441q10 242 40.5 429.5t65.5 291.5q31 88 68 88q16 0 27.5 -22.5t11.5 -77.5q0 -53 -8.5 -127t-21.5 -160t-33.5 -181t-45.5 -191q-4 -41 -4 -80v-80q0 -197 22.5 -351.5t57.5 -260t77 -161t81 -55.5q37 0 92 43q18 14 39 33 q-23 98 -43 189q-23 102 -22 182t36 130t121 56q35 4 62.5 -4t46 -23.5t29.5 -33t14 -31.5q12 -82 -0.5 -164t-43 -157.5t-75.5 -141.5l-13 -18q18 -59 33 -121q25 -94 39 -183t8 -159q-4 -137 -53 -250t-131 -192.5t-192.5 -121.5t-239.5 -38q-119 14 -192.5 76.5 t-103.5 141.5t-18.5 158t64.5 126q47 39 110.5 61.5t128 19t120 -33t85.5 -92.5q20 -55 15.5 -85t-22 -43.5t-41 -14.5t-38.5 3q4 61 -17.5 103.5t-58 58.5t-84.5 6t-98 -55q-35 -37 -41 -91t14.5 -106.5t71 -91.5t129.5 -43q117 -4 206 49.5t148.5 134t89.5 176t32 175.5 q2 98 -21 209q-12 63 -27 125q-45 -43 -88 -68q-47 -29 -84 -29q-61 0 -122.5 52.5t-109.5 156t-75.5 258t-21.5 357.5q-86 -219 -190.5 -382t-219.5 -271.5t-238.5 -163t-248.5 -54.5q-131 0 -223.5 66.5t-148.5 175t-79.5 244t-17.5 274.5q-86 -221 -189.5 -386 t-218.5 -275.5t-237.5 -165t-245.5 -54.5q-96 0 -176 32t-138.5 91.5t-90 145.5t-31.5 194q0 119 33.5 236.5t85 235.5t111.5 237t111.5 241.5t85 251.5t33.5 265q0 166 -80.5 263t-230.5 97q-102 0 -202.5 -41t-192.5 -113.5t-171 -169t-137.5 -208t-91 -232.5t-32.5 -240 q0 -174 62.5 -246.5t162.5 -72.5q88 0 173 55.5t152.5 145.5t109.5 206.5t42 237.5q0 86 -34.5 132t-94.5 46q-76 0 -133 -51t-82 -119q-35 -4 -51 22.5t8 76.5q20 41 52 75.5t70 59t79 39t82 14.5q104 0 154.5 -73.5t50.5 -196.5q0 -141 -49.5 -283.5t-131.5 -256.5 t-188.5 -185.5t-218.5 -71.5q-141 0 -232.5 102.5t-91.5 315.5zM3820.5 401.5q3.5 -55.5 21.5 -133.5q12 -53 29 -112q34 59 57 131q27 90 4 182q-16 37 -46 37t-46 -29q-23 -20 -19.5 -75.5z" />
<glyph unicode="&#x42a;" horiz-adv-x="2277" d="M89 1308.5q-3 69.5 22.5 151.5t78.5 168q80 139 177.5 239.5t199 159t198.5 70.5t177 -24q92 -43 141.5 -141.5t52.5 -237t-42.5 -309.5t-143.5 -357q-66 -125 -124 -235.5t-102 -207t-71.5 -181.5t-29.5 -158q-6 -131 38 -237.5t166 -194.5q154 -104 355.5 -95 t412.5 150q184 123 291 273.5t142.5 297t1 272.5t-135.5 199q-68 49 -163 36t-190 -65.5t-180 -133t-133 -166.5t-48 -168t73 -135q47 -35 109.5 -39t132.5 43q33 20 70 55t59 74q35 10 64 -11q37 -29 -5 -100q-18 -29 -53 -58.5t-76 -58.5q-104 -70 -212.5 -74t-190.5 56 q-78 57 -99.5 135t1 165t81 175t140.5 166t178 139.5t194.5 93t190.5 27.5t164 -55q74 -53 120 -137t59 -187.5t-8.5 -220.5t-81.5 -234.5t-163.5 -232.5t-251.5 -213q-133 -90 -265 -136t-258 -53.5t-239.5 24.5t-205.5 97q-135 98 -196.5 215t-45.5 275q12 111 39.5 207 t73 197.5t108 218t145.5 264.5q68 113 108 252t46 267t-22.5 227.5t-94.5 131.5q-55 25 -121.5 18t-139 -50.5t-148.5 -126t-150 -207.5q-49 -80 -71.5 -148.5t-24.5 -122t16.5 -89.5t53.5 -50q33 -14 80 -7t97 36.5t102 82t97 128.5q57 96 57.5 174t-46.5 110 q12 37 41.5 47.5t56.5 -0.5q27 -12 47.5 -40.5t24.5 -74.5t-12.5 -107.5t-61.5 -137.5q-59 -98 -134 -165.5t-153 -103.5t-149.5 -43t-120.5 13q-57 25 -87 77t-33 121.5z" />
<glyph unicode="&#x42b;" horiz-adv-x="2963" d="M88 1597q8 82 58.5 166t129 153t178 113t210.5 46q205 4 319 -123q53 -59 76.5 -127t23.5 -145.5t-19.5 -163.5t-49.5 -183q-82 -180 -159 -334.5t-138.5 -286.5t-100 -243t-43.5 -203q-4 -129 36 -234.5t153 -191.5q70 -51 151.5 -75.5t173 -19.5t186.5 42t191 107 q168 121 266.5 270t131 294.5t1 270.5t-123.5 197q-47 37 -108.5 38t-128 -24t-132 -71t-121 -104t-97.5 -122.5t-58.5 -128t-5 -120t62.5 -95.5q45 -35 101.5 -39t119.5 43q29 20 62.5 55t56.5 72q31 10 57 -10q35 -25 -4 -98q-16 -29 -48 -59t-69 -56q-96 -70 -195 -74 t-175 55q-72 57 -91.5 134t1 162t75 173t129 165t162.5 137.5t177 92t174 27.5t151 -55q68 -53 110 -136t54 -185.5t-7.5 -217t-74.5 -231.5t-149.5 -229.5t-229.5 -210.5q-121 -88 -242.5 -134.5t-236.5 -53.5t-218.5 24t-189.5 96q-125 96 -180 213t-41 270 q12 123 43 229.5t82 223.5t124 257t169 329q33 82 55.5 159.5t30.5 153.5t-2 147.5t-45 139.5q-35 66 -103.5 85t-146.5 17q-86 -2 -158.5 -31.5t-127 -75.5t-88.5 -104.5t-40 -116.5q-6 -66 25 -108q-10 -23 -33.5 -37t-48.5 -16q-39 0 -61.5 28.5t-16.5 87.5zM2187 702.5 q4 139.5 14.5 279.5t25 263t32 217.5t31.5 139.5q31 90 67 90q16 0 27.5 -22.5t11.5 -80.5q0 -55 -13 -119.5t-30.5 -145.5t-35 -180.5t-23.5 -221.5q-2 -98 -5 -199.5t0 -203t16 -200t48 -192.5q31 -86 70 -125t78 -39q35 0 73.5 22.5t82.5 87t96.5 183.5t113.5 309 q53 0 39 -76q-33 -180 -82 -306t-105.5 -204.5t-115.5 -114.5t-115 -36q-94 0 -165.5 92t-112.5 297q-16 94 -21.5 220t-1.5 265.5z" />
<glyph unicode="&#x42c;" horiz-adv-x="2105" d="M88 1597q8 82 58.5 166t129 153t178 113t210.5 46q205 4 319 -123q53 -59 76.5 -127t23.5 -145.5t-19.5 -163.5t-49.5 -183q-82 -180 -159 -334.5t-138.5 -286.5t-100 -243t-43.5 -203q-4 -129 36 -234.5t153 -191.5q70 -51 151.5 -75.5t173 -19.5t186.5 42t191 107 q168 121 266.5 270t131 294.5t1 270.5t-123.5 197q-47 37 -108.5 38t-128 -24t-132 -71t-121 -104t-97.5 -122.5t-58.5 -128t-5 -120t62.5 -95.5q45 -35 101.5 -39t119.5 43q29 20 62.5 55t56.5 72q31 10 57 -10q35 -25 -4 -98q-16 -29 -48 -59t-69 -56q-96 -70 -195 -74 t-175 55q-72 57 -91.5 134t1 162t75 173t129 165t162.5 137.5t177 92t174 27.5t151 -55q68 -53 110 -136t54 -185.5t-7.5 -217t-74.5 -231.5t-149.5 -229.5t-229.5 -210.5q-121 -88 -242.5 -134.5t-236.5 -53.5t-218.5 24t-189.5 96q-125 96 -180 213t-41 270 q12 123 43 229.5t82 223.5t124 257t169 329q33 82 55.5 159.5t30.5 153.5t-2 147.5t-45 139.5q-35 66 -103.5 85t-146.5 17q-86 -2 -158.5 -31.5t-127 -75.5t-88.5 -104.5t-40 -116.5q-6 -66 25 -108q-10 -23 -33.5 -37t-48.5 -16q-39 0 -61.5 28.5t-16.5 87.5z" />
<glyph unicode="&#x42d;" horiz-adv-x="2586" d="M258 231q-4 100 53.5 194.5t165 165.5t258 110.5t330.5 31.5q223 -12 345 -87t128 -185q2 -53 -23.5 -104.5t-80 -89.5t-137.5 -59.5t-193 -14.5q-111 8 -160 33.5t-49 58.5q-2 10 3 26.5t11 20.5q33 -12 79 -19.5t93 -11.5q172 -10 257 34t83 114q-4 61 -96 113t-274 63 q-145 8 -270.5 -22t-216.5 -84t-140 -128t-45 -155q2 -78 53 -150t151.5 -129t251 -96t351.5 -51q170 2 309 54t248.5 136t190.5 191.5t136.5 221t85 225.5t35.5 202q4 53 4 106q-20 14 -59 25q-51 14 -121 18q-16 0 -49 -1t-68.5 -4t-69.5 -5t-48 -4q-92 -16 -179.5 -25.5 t-179.5 -3.5q-66 4 -97.5 29.5t-29.5 64.5q4 49 33 56q20 -10 54 -17.5t71 -9.5q78 -4 156 4t155 23q23 2 64 7t85 9t85 6t63 2q88 -6 135 -26q0 14 -2 28q-6 147 -38.5 285.5t-96 260.5t-170 213t-259 143.5t-361.5 50.5q-139 0 -249 -30t-186.5 -77t-117.5 -108.5 t-41 -124.5q0 -51 25.5 -104.5t82 -96.5t147.5 -70.5t222 -27.5q174 0 268 55t94 127q0 37 -22.5 71.5t-66.5 62.5t-107.5 45.5t-145.5 17.5q-98 0 -167.5 -36t-79.5 -93q-37 -8 -55.5 10t-18.5 47t19.5 61.5t58.5 59t98 44t137 17.5q213 0 331 -90t118 -236q0 -78 -36 -127 t-96.5 -77.5t-141.5 -38.5t-173 -10q-147 0 -260.5 34.5t-192.5 92t-119 130t-40 148.5q0 86 56.5 162t153.5 133t228 90t283 33q211 -6 369.5 -50t272.5 -119t188.5 -174.5t121.5 -214t70.5 -239.5t34.5 -252q14 -176 -10.5 -348t-88 -326.5t-163 -287.5t-233.5 -231.5 t-301 -156t-366 -61.5q-227 -6 -396 37t-281.5 117t-170 170t-63.5 198z" />
<glyph unicode="&#x42e;" horiz-adv-x="4724" d="M0 248q0 123 63.5 238.5t181 204.5t285.5 143.5t377 54.5q141 0 255 -29t196 -79t126 -117.5t44 -147.5q0 -88 -51.5 -167t-141.5 -137t-214 -93t-267 -35q-199 0 -307.5 66.5t-108.5 166.5q0 47 25.5 91.5t71 78t106.5 53t133 19.5q66 0 90.5 -13.5t24.5 -35.5 q0 -25 -19 -33q-78 8 -136 -2t-98 -32.5t-60.5 -53.5t-20.5 -63q0 -59 79 -100.5t240 -41.5q115 0 212.5 26t168 69t109.5 101t39 124q0 63 -40 115.5t-110.5 89t-165 56t-202.5 19.5q-178 0 -318.5 -45t-239 -119.5t-150.5 -169t-52 -192.5q0 -115 64.5 -213t182 -170 t280.5 -114t360 -42t349 52.5t256.5 152t160 243.5t55.5 331q-2 37 -6 106.5t-10 145.5q-2 49 -7 94q-66 -2 -131 2q-66 4 -97.5 29.5t-29.5 64.5q4 49 33 55q20 -10 54 -17t71 -9q45 -2 90 -2v37q-4 43 -8 98l-8 110q-4 55 -6 104.5t-2 80.5q0 135 13 242.5t48 185.5 q-14 -2 -29 -2h-30q-109 0 -217.5 21.5t-224 46t-237.5 46t-255 21.5q-106 0 -178 -19.5t-116 -51.5t-62.5 -75t-18.5 -88q0 -100 99.5 -169.5t279.5 -69.5q43 0 88 7t87 20.5t80 31t64 39.5q41 0 41 -39q0 -35 -47 -69q-57 -41 -149 -67t-191 -26q-229 0 -353 93.5 t-124 242.5q0 70 31 132.5t93 109.5t156.5 75.5t221.5 28.5q131 0 258 -23.5t248 -51t234.5 -51t217.5 -23.5q57 0 92 8l21 21q76 76 137 75q39 0 39 -34q0 -18 -9 -36t-24 -32q-47 -47 -123 -72q-31 -68 -42 -164t-11 -249q0 -31 3 -84.5t7 -113.5t8.5 -121.5t8.5 -106.5 q0 -14 2 -29q53 8 108 18q23 2 64 7.5t84 9.5q31 2 59 4q8 37 19 74q45 180 127 334.5t194.5 277.5t245.5 194q129 70 194.5 71t69.5 -38q2 -35 -33.5 -81t-97.5 -68q-33 -12 -58.5 -4t-35.5 36q-125 -80 -222.5 -195.5t-165 -251.5t-102.5 -286q-8 -31 -14 -63 q88 -10 125 -35q45 -31 43 -72q-2 -29 -17.5 -48t-33.5 -25q-18 23 -72 34q-29 8 -61 13q-4 -51 -4 -101q0 -152 56 -288t153.5 -249.5t225.5 -198.5t271 -132q102 -20 225 -20q272 0 495.5 90t382.5 246.5t245 370.5t86 460q0 211 -50.5 386t-131 300t-182 191.5 t-206.5 62.5q-176 -8 -311 -86t-227 -192.5t-138.5 -245.5t-40 -243t66 -185.5t175.5 -73.5q86 0 171 48t153.5 124t110.5 170t42 188q0 150 -129 150q-41 0 -86 -20.5t-85 -52.5t-72.5 -73t-50.5 -82q-35 -4 -50.5 24t6.5 71q27 51 68 97t91 79t104.5 52t109.5 19 q98 0 150.5 -57t52.5 -168q0 -119 -53.5 -240.5t-139.5 -221t-195.5 -163t-221.5 -63.5q-137 0 -216 55.5t-109 145.5t-14.5 204.5t66.5 234.5t133 234.5t187.5 203.5t227.5 142.5t255 51.5q119 -2 237.5 -77t215 -210t157 -324.5t60.5 -418.5q0 -203 -49 -381 t-139.5 -326.5t-214.5 -265.5t-274.5 -198t-321.5 -124t-353 -43q-53 0 -102 4.5t-97 10.5q-182 47 -336.5 136t-268 212t-178 276.5t-64.5 327.5q0 80 8 160q-27 -2 -56 -4q-35 -2 -68.5 -4.5t-47.5 -4.5q-59 -10 -117 -18q4 -37 6 -74q6 -61 10.5 -118.5t6.5 -96.5 q0 -18 1 -35.5t1 -31.5q0 -209 -62.5 -374t-184.5 -278.5t-301 -174t-415 -60.5q-205 0 -384 45t-312 128t-210 199.5t-77 262.5z" />
<glyph unicode="&#x42f;" horiz-adv-x="2983" d="M-19.5 46q15.5 130 75 250t156.5 216t220 143t245 45t217 -51t148.5 -143t38.5 -230q-10 -100 -63 -159.5t-126 -85t-153 -22.5t-145.5 26.5t-103 62.5t-25.5 86q4 16 13 30.5t20 21.5q72 -61 144.5 -92t135 -27t109.5 47t65 131q20 104 -15.5 170.5t-105 97.5t-161.5 29 t-187 -33q-115 -37 -198.5 -113.5t-132 -172t-57.5 -201t27 -200.5t119 -171t220 -111q193 -51 338 -26.5t256.5 99.5t198.5 188.5t164 241.5t152 261t161 244q-209 49 -395.5 135t-326 193.5t-221 230.5t-81.5 248q0 143 93 269t263 220.5t411.5 148.5t538.5 54 q238 2 441.5 -52t352 -147.5t231.5 -217.5t79 -261q-2 -94 -42 -161.5t-99.5 -108.5t-130 -56.5t-136 -6t-115 42.5t-67.5 90q-12 35 -13 75.5t15.5 80.5t51 74t94.5 56q51 8 78.5 -1t40 -27.5t13.5 -40t-3 -33.5q-43 10 -79 4t-60.5 -25.5t-35 -50.5t-1.5 -67 q10 -47 42.5 -72t75.5 -29t91.5 12.5t88.5 51.5t65.5 87t25.5 122q0 96 -75 194.5t-211 177t-329.5 128t-429.5 49.5q-274 -4 -486 -55.5t-356.5 -133.5t-219 -186.5t-74.5 -212.5q0 -109 81.5 -215.5t218 -201.5t310.5 -173t358 -127q78 86 173.5 141.5t217.5 71.5 q18 131 47 245.5t62 200.5q47 121 100 121q57 0 66 -57q-51 -72 -94 -203t-70 -297h10q4 0 11.5 1t13.5 1q178 0 263 -53t85 -121q0 -72 -97.5 -127t-314.5 -63q-4 -49 -1 -108.5t12.5 -120t21.5 -117t27 -97.5q31 -86 69.5 -125t77.5 -39q35 0 74 23t83 87.5t96 183 t114 309.5q57 0 39 -76q-45 -178 -95.5 -304t-103.5 -206t-108.5 -116t-110.5 -36q-94 0 -166 92.5t-113 296.5q-4 27 -7 67t-5 88t-4 99.5t-2 98.5q-84 2 -164 10t-162 22q-84 -109 -158.5 -244.5t-157.5 -274t-182.5 -264.5t-231.5 -213t-304 -119.5t-399 14.5 q-172 35 -272.5 124t-139.5 204.5t-23.5 245.5zM1919 653q63 -10 127 -13t127 -5q2 41 4 83t6 83q-78 -10 -142.5 -49t-121.5 -99zM2279 635q154 6 220.5 38t66.5 66q0 29 -50 54.5t-175 25.5q-6 0 -13.5 -1t-15.5 -1h-18q-6 -45 -9.5 -90t-5.5 -92z" />
<glyph unicode="&#x430;" horiz-adv-x="876" d="M-68 262q0 111 31 217.5t84 189.5t125 133t154 50q61 0 106 -23.5t75 -64.5t44 -96.5t14 -118.5t-13 -89t-36 -30q0 -82 -31 -176q20 -182 111 -182q31 0 61.5 23.5t63.5 80.5t71.5 153.5t86.5 243.5q57 0 39 -75q-41 -164 -81 -271.5t-81 -172t-85 -90t-91 -25.5 q-123 0 -172 149q-47 -78 -113 -130t-141 -52q-94 0 -158 90t-64 266zM37 303q0 -129 42 -198.5t103 -69.5q53 0 107.5 51t93.5 129q-2 18 -3 38.5t-1 43.5q0 125 27.5 197.5t68.5 58.5q-8 88 -51 134t-113 46q-61 0 -111 -37t-86 -96t-56.5 -137t-20.5 -160z" />
<glyph unicode="&#x431;" horiz-adv-x="804" d="M-59 295q0 88 22.5 179t67.5 161q8 92 57 149.5t135 57.5q23 0 42.5 -4t37.5 -11q-57 88 -114.5 177.5t-93.5 177.5t-40 172t45 164q41 66 117 113.5t166 80.5t188.5 52.5t186.5 29.5t157.5 11t104.5 -3q20 2 32.5 -10t12.5 -28.5t-10.5 -31t-30.5 -16.5 q-37 -4 -102.5 -6t-146.5 -9t-169 -21.5t-167 -43t-141 -72.5t-91 -110q-39 -74 -30 -145.5t46 -146.5t91.5 -157.5t103.5 -176t84 -202t35 -237.5q2 -10 2 -20.5v-20.5q0 -31 -2 -58.5t-7 -49.5q41 8 79 28.5t72 58.5t64.5 98t59.5 148q57 1 39 -75q-23 -90 -59.5 -157 t-82 -111t-96.5 -69.5t-104 -33.5q-41 -111 -118 -168t-169 -57q-123 0 -198.5 98t-75.5 295zM37 330q0 -147 59.5 -225t145.5 -78q98 0 157 100q-57 10 -111.5 40t-99.5 74t-80.5 101t-56.5 121q-14 -59 -14 -133zM115 614q0 -66 27.5 -130t73.5 -116.5t104.5 -88 t117.5 -43.5q8 31 8 88q0 88 -19 162.5t-52 127t-76 82t-90 29.5q-51 0 -76 -35q12 -6 23 -24q-10 -10 -20.5 -23t-20.5 -29z" />
<glyph unicode="&#x432;" horiz-adv-x="958" d="M-39 571q0 78 33 142q4 57 6 111.5t8 107.5q-23 14 -33 32.5t-10 35t8.5 29.5t22.5 20q6 -8 22 -21q20 156 54 279t75 209t86.5 132t92.5 46q61 0 92 -74t31 -182q0 -109 -27 -207t-73 -172t-109.5 -116t-137.5 -38q-4 -23 -5 -46t-3 -46q37 18 83 29.5t106 11.5 q88 0 162.5 -33t128 -90t83 -137t29.5 -174q0 -92 -22 -178q100 37 175.5 119.5t118.5 211.5q57 0 39 -75q-18 -72 -56 -131.5t-88 -106.5t-109.5 -81t-120.5 -52q-49 -104 -128 -166.5t-169 -62.5q-119 0 -209 116.5t-117 376.5q-39 88 -39 180zM90 702q-2 -76 2 -157.5 t10 -134.5q55 -88 159 -141.5t237 -53.5h27.5t37.5 4q23 68 23 150t-23.5 150.5t-70 118.5t-112 78.5t-147.5 28.5q-100 0 -143 -43zM111 999q51 -4 93 30t72.5 92.5t48 137t17.5 166.5q0 59 -11.5 97.5t-33.5 38.5q-18 0 -44 -40t-52.5 -114t-50 -177.5t-39.5 -230.5z M147 211q35 -98 86.5 -145.5t114.5 -47.5q90 0 158 86q-14 -2 -22.5 -2h-18.5q-90 0 -171 29t-147 80z" />
<glyph unicode="&#x433;" horiz-adv-x="794" d="M-53 391q74 244 191.5 353.5t258.5 109.5q88 -23 117 -71t21.5 -109.5t-37 -129t-60.5 -130.5q-27 -53 -56.5 -105.5t-47.5 -99.5q-31 -76 -21.5 -123t46 -58.5t95 19.5t126.5 111q55 66 111.5 168t103.5 247q57 0 39 -75q-41 -160 -100.5 -271.5t-125 -180.5t-128 -99.5 t-109.5 -28.5q-92 2 -137.5 37t-54.5 90t11.5 124t61.5 140q31 53 64.5 115.5t56 122t23.5 107.5t-31 75q-59 6 -108.5 -16.5t-93.5 -73.5t-85 -132t-86 -192q-29 0 -42 18.5t-3 57.5z" />
<glyph unicode="&#x434;" horiz-adv-x="870" d="M-651 -958q0 35 19.5 61.5t42 34.5t38.5 -6.5t10 -61.5q0 -78 40 -143.5t114 -112.5t180.5 -74.5t241.5 -27.5q199 0 339 80t212 227q43 102 56 205.5t8 208t-23.5 210t-38.5 212.5q-25 111 -51.5 207t-42.5 176q-66 -160 -154 -245t-186 -85q-100 0 -162 84t-62 237 q0 133 34 248t90.5 199t131 131t156.5 47q45 0 81 -15.5t62.5 -40t41 -56t14.5 -64.5q0 -10 -1 -19.5t-3 -19.5q12 4 16 4q49 0 49 -88q0 -66 -33 -145q6 -49 24.5 -133t42 -181.5t50.5 -198t47 -186.5q35 -164 35 -315q0 -174 -50 -320.5t-147.5 -253t-241 -166 t-331.5 -59.5q-147 0 -267 35t-205 94.5t-131 141t-46 174.5zM41 268q0 -111 35 -171t100 -60q66 0 148 89t145 282q0 57 7.5 101t19.5 75q-27 -8 -45 4q0 23 -8.5 49.5t-26 49t-43 36.5t-60.5 14q-51 0 -100 -34.5t-87 -97t-61.5 -148.5t-23.5 -189z" />
<glyph unicode="&#x435;" horiz-adv-x="702" d="M-49 295q0 119 29.5 220t76.5 173t108.5 113t127.5 41q45 0 75.5 -17.5t51 -47t30 -69.5t9.5 -85q0 -74 -23.5 -135.5t-61.5 -106.5t-86 -69.5t-98 -24.5q-41 0 -82.5 15t-64.5 44v-16q0 -152 58.5 -229.5t148.5 -77.5q51 0 109.5 27.5t118 92t116.5 169.5t108 261 q57 0 39 -75q-39 -154 -97 -266.5t-126.5 -186.5t-142.5 -109.5t-142 -35.5q-127 0 -204.5 98t-77.5 297zM59 465q14 -37 48 -57.5t75 -20.5q29 0 57.5 13.5t52 41t39 67.5t15.5 93t-20.5 93t-61.5 40q-31 0 -61.5 -21.5t-58 -58.5t-50 -86t-35.5 -104z" />
<glyph unicode="&#x436;" horiz-adv-x="1708" d="M-135 254q43 172 100.5 287.5t123 185.5t136 98.5t142.5 28.5q66 0 122 -24.5t97 -73.5t64.5 -125t23.5 -176v-15q14 2 27.5 4t27.5 7h15.5t27.5 2v122.5t-5 116t-18.5 108.5t-39.5 105q8 18 29.5 27.5t47.5 5.5q23 0 40.5 -13.5t21.5 -41.5q20 -113 24.5 -220.5 t-0.5 -197.5q23 2 44.5 3t44.5 5q18 80 52 151.5t80 126t102 85t122 30.5q94 0 138 -64.5t44 -168.5q0 -57 -9 -110.5t-27.5 -95.5t-43 -68.5t-55.5 -28.5q-23 -2 -40 4t-26.5 20.5t-7.5 39t19 59.5q57 47 78.5 114.5t15.5 126.5q-14 29 -38 46.5t-60 17.5q-84 0 -151 -78 t-95 -199h35q53 -10 70.5 -37.5t11.5 -58.5q-4 -20 -13.5 -35.5t-21.5 -17.5q-4 16 -26.5 29.5t-55.5 23.5h-15v-39q0 -160 59.5 -236.5t164.5 -76.5q57 0 113.5 23.5t111.5 85t109.5 168t109.5 274.5q57 0 39 -76q-43 -172 -100.5 -288t-123 -185.5t-137 -98t-141.5 -28.5 q-66 0 -122 24.5t-97 73.5t-64.5 124t-23.5 177v33.5t2 34.5q-8 -2 -15 -2h-11q-12 -4 -25.5 -5t-26.5 -6q-6 -59 -14 -118.5t-21 -118.5q-12 -76 -34 -141l-41 -121q-20 -43 -51 -53.5t-70 6.5q-10 20 -5 42.5t20.5 56.5t37 84t43.5 126q20 59 26.5 115.5t10.5 111.5 q-27 -4 -52.5 -4t-49.5 -2q-12 -90 -46 -172t-82.5 -143.5t-108.5 -98t-130 -36.5q-94 0 -138 64.5t-44 168.5q0 57 13 103.5t32.5 79t43 53t46.5 26.5q27 8 46 2t27.5 -20.5t4.5 -31.5t-23 -32q-47 -35 -67.5 -69.5t-27.5 -66.5t-4 -59.5t5 -45.5q14 -29 37.5 -46.5 t60.5 -17.5q47 0 90 26.5t77 73t57.5 109.5t31.5 135q-25 2 -37 6q-12 2 -26.5 7.5t-24.5 15.5t-15 24.5t-1 34.5q6 35 22 41q18 -25 62 -33q16 -4 24 -4q-4 147 -63 218t-160 71q-57 0 -113.5 -23.5t-111.5 -85t-109.5 -168t-109.5 -274.5q-57 0 -39 76z" />
<glyph unicode="&#x437;" horiz-adv-x="886" d="M-550 -1024q7 68 36 139q37 90 100.5 175t145.5 160t178 136.5t196 104.5q147 63 330 94q115 18 240 14q6 104 -19 185q-29 96 -107.5 143t-217.5 14q-29 -20 -57.5 -59t-63.5 -53q-20 -10 -44 -8t-42 26q-10 14 -3 31.5t23.5 35t42 34t52.5 26.5q23 10 36 17.5t23 11.5 q49 35 85 90t57.5 114.5t27.5 117t-4 98.5q-35 53 -75 68.5t-83 3t-86 -49.5t-81 -84t-69.5 -102.5t-50.5 -104.5q-14 -37 -38.5 -56t-44 -18t-27.5 22.5t12 68.5q59 135 146.5 237.5t180.5 152.5t183 36.5t154 -111.5q18 -39 15 -99.5t-22.5 -125t-52 -125t-73.5 -103.5 q111 8 179 -21.5t99 -70.5q51 -98 66 -217q8 -66 4 -133q12 -2 26 -4q90 -16 165 -52t130.5 -83t89 -100.5t43.5 -104.5q12 -57 -1 -112.5t-55 -99.5t-110.5 -71.5t-166.5 -29.5q-23 0 -48.5 2t-50 7t-45 9t-33.5 8q-25 8 -42 24.5t-19 31t14.5 20.5t59.5 -4q10 -4 35.5 -8 t70.5 -2q166 2 239 61.5t52 151.5q-16 92 -104 162q-84 68 -258 94q0 -4 -2 -10q-18 -127 -70.5 -253t-130.5 -241t-181.5 -211t-226.5 -161.5t-264 -94.5t-295 -8q-66 12 -105.5 50t-57 92t-10.5 122zM-429 -1131q15 -49 81 -63q125 -25 265 11t272.5 125t243 228.5 t175.5 321.5q37 102 56 203q-140 -2 -267 -29q-176 -37 -315 -102q-86 -41 -167 -97.5t-148.5 -130t-117.5 -161.5t-77 -189q-16 -68 -1 -117z" />
<glyph unicode="&#x438;" horiz-adv-x="890" d="M-25 317q0 135 25 269.5t59 220.5q31 74 78 74q23 0 39 -11q-16 -35 -31.5 -91t-28 -124.5t-19.5 -142.5t-7 -143q0 -88 11.5 -149.5t27.5 -100.5t37.5 -57.5t44.5 -18.5q43 0 91 55.5t101 177.5q-2 20 -2 41v41q0 72 13.5 140.5t34 122t45 86t47.5 32.5q39 0 39 -61 q0 -59 -21.5 -159.5t-60.5 -207.5q4 -125 43 -183t86 -58q25 0 49 19.5t55 74.5t70 153t90 256q57 0 39 -75q-41 -160 -79 -267.5t-76 -172t-80 -92t-87 -27.5q-72 0 -115.5 58t-66.5 144q-51 -100 -113.5 -166.5t-130.5 -66.5q-88 0 -147.5 100.5t-59.5 308.5z" />
<glyph unicode="&#x439;" horiz-adv-x="890" d="M-25 317q0 135 25 269.5t59 220.5q31 74 78 74q23 0 39 -11q-16 -35 -31.5 -91t-28 -124.5t-19.5 -142.5t-7 -143q0 -88 11.5 -149.5t27.5 -100.5t37.5 -57.5t44.5 -18.5q43 0 91 55.5t101 177.5q-2 20 -2 41v41q0 72 13.5 140.5t34 122t45 86t47.5 32.5q39 0 39 -61 q0 -59 -21.5 -159.5t-60.5 -207.5q4 -125 43 -183t86 -58q25 0 49 19.5t55 74.5t70 153t90 256q57 0 39 -75q-41 -160 -79 -267.5t-76 -172t-80 -92t-87 -27.5q-72 0 -115.5 58t-66.5 144q-51 -100 -113.5 -166.5t-130.5 -66.5q-88 0 -147.5 100.5t-59.5 308.5zM152 1323 q6 41 41.5 52t74.5 -7q2 -88 56.5 -142.5t136.5 -66.5q78 -14 146.5 19.5t97.5 113.5q33 4 57 -9t20 -52q-8 -43 -38.5 -82t-79 -67.5t-107.5 -40t-135 0.5q-61 10 -114.5 39t-89.5 67t-54.5 83t-11.5 92z" />
<glyph unicode="&#x43a;" horiz-adv-x="987" d="M-8 600q2 55 8 86q6 39 23.5 55.5t39.5 20.5q45 6 60 -23q-10 -18 -14.5 -80.5t-4.5 -144.5q0 -31 -1 -39t-1 -12v-14.5t2 -47.5q31 59 61 133t70.5 142.5t97 126t140.5 84.5q98 31 169 2t106.5 -89.5t35.5 -136t-43 -137.5q-18 -27 -45.5 -50t-64.5 -32.5t-83 1 t-102 49.5q-23 25 -22.5 41t10.5 25t24.5 10t24.5 -5q27 -25 54.5 -33t52 -5t44 14.5t32.5 29.5q25 39 24.5 84t-24 80t-67.5 51.5t-105 -2.5q-43 -14 -78 -41.5t-69 -74.5t-67.5 -117t-70.5 -164q111 -2 173 -28.5t93 -65.5t41 -84t19.5 -83t24.5 -64.5t58 -28.5 q45 -2 87.5 16.5t85.5 76.5t91 164.5t105 282.5q57 0 39 -75q-43 -170 -89 -282t-94 -178.5t-100.5 -92t-107.5 -25.5q-84 2 -125 32t-61.5 73t-30.5 89t-33 81q-29 41 -81 72.5t-138 21.5q-14 -47 -22.5 -109.5t-8.5 -111.5q0 -47 10 -99q-23 -16 -45 -16q-27 0 -44 20.5 t-27 94.5q-8 49 -14.5 95t-11.5 95t-7 105.5t-2 128.5q-4 53 -2 108z" />
<glyph unicode="&#x43b;" horiz-adv-x="839" d="M-117 193.5q0 66.5 13 128.5q6 31 17 63.5t27.5 62t34 53t35.5 36.5q16 14 36 14t32 -8t16 -24t-10 -32q-6 -8 -16.5 -25.5t-20.5 -40t-19.5 -46t-15.5 -41.5q-16 -66 -18 -140.5t31 -127.5q33 -20 64.5 5t60 74.5t56 110.5t52.5 113q12 27 32.5 69.5t44 91t50.5 97.5 t52.5 89t49 64.5t41.5 24.5q27 0 43 -17q-4 -8 -5 -14t-5 -14l10 4q-4 -4 -7 -10t-7 -11q-29 -98 -40 -209.5t-11 -205.5q0 -131 29.5 -190.5t76.5 -59.5q25 0 50.5 22.5t56.5 80t67.5 155.5t85.5 250q57 0 39 -76q-41 -160 -80.5 -268.5t-80.5 -174t-84 -94t-91 -28.5 q-82 0 -136 82t-54 274q0 29 2 64.5t6 76.5q-20 -39 -38.5 -76.5t-35.5 -72.5q-25 -53 -54 -113.5t-63 -112t-74 -86t-89 -34.5q-57 0 -91 35.5t-49.5 90t-15.5 121z" />
<glyph unicode="&#x43c;" horiz-adv-x="1273" d="M-117 193.5q0 66.5 13 128.5q6 31 17 63.5t27.5 62t34 53t35.5 36.5q16 14 36 14t32 -8t16 -24t-10 -32q-6 -8 -16.5 -25.5t-20.5 -40t-19.5 -46t-15.5 -41.5q-16 -66 -18 -140.5t31 -127.5q33 -20 64.5 5t60 74.5t56 110.5t52.5 113q25 49 56.5 116.5t65.5 135t67.5 126 t58.5 89.5q12 14 26.5 17t26.5 -3t17.5 -20.5t-1.5 -38.5q-2 -8 -4 -14.5t-4 -12.5h4q-4 -4 -4 -6q-20 -90 -27.5 -183.5t-6 -175.5t9.5 -147.5t16 -97.5q4 -14 8 -18.5t11 18.5q4 16 28.5 71.5t58 128t74.5 151.5t79 145.5t69 109.5t47 43q27 0 43 -17q-35 -100 -50.5 -227 t-15.5 -233q0 -131 30 -190.5t77 -59.5q25 0 50.5 22.5t56 80t67.5 155.5t86 250q57 0 39 -76q-41 -160 -81 -268.5t-81 -174t-84 -94t-90 -28.5q-82 0 -136 81.5t-54 274.5q0 29 2 62.5t6 72.5q-47 -100 -90 -194.5t-60 -153.5q-20 -76 -42.5 -102.5t-51.5 -26.5 q-35 0 -62.5 35t-43.5 114q-16 78 -17.5 194t6.5 230q-31 -59 -60.5 -119.5t-58.5 -117.5q-25 -53 -54 -113.5t-63 -112t-74 -86t-89 -34.5q-57 0 -91 35.5t-49.5 90t-15.5 121z" />
<glyph unicode="&#x43d;" horiz-adv-x="905" d="M-21.5 320.5q1.5 72.5 7.5 121.5q4 53 13 107.5t19 85.5q12 37 32 51t42 14q23 0 37 -9t18 -21q-12 -16 -25.5 -77.5t-23.5 -143.5q-2 -10 -4 -21h8q35 8 80 12t96.5 4t94.5 -2q31 -2 55 -6q4 27 8 51q8 51 19.5 98.5t23.5 80.5q16 37 34.5 58t47.5 21q27 0 43 -16 q-35 -100 -50 -203.5t-15 -210.5q0 -131 29.5 -190t76.5 -59q25 0 50.5 22.5t56 79.5t67.5 155.5t86 249.5q57 0 39 -75q-41 -160 -81 -268.5t-81 -174t-84 -94.5t-90 -29q-82 0 -136 82t-54 275v49h-21q-43 2 -94 2h-102h-90h-21q2 -16 2 -37q2 -90 11.5 -179t21.5 -158.5 t25 -86.5q-4 -12 -18.5 -21.5t-37.5 -9.5t-42 14.5t-32 51.5q-14 43 -23 112.5t-14.5 145.5t-4 148.5z" />
<glyph unicode="&#x43e;" horiz-adv-x="804" d="M-59 295q0 88 22.5 179t67.5 161q8 92 57 149.5t135 57.5q74 0 132.5 -39t99.5 -105.5t62.5 -156.5t21.5 -193q0 -61 -9 -108q41 8 79 28.5t72 58.5t64.5 98t59.5 148q57 1 39 -75q-23 -90 -59.5 -157t-82 -112t-96.5 -69.5t-104 -32.5q-41 -109 -118 -167t-169 -58 q-121 0 -197.5 99t-76.5 294zM37 330q0 -147 59.5 -225t145.5 -78q47 0 88 25.5t69 74.5q-57 10 -111.5 40t-100.5 75t-80.5 101t-55.5 120q-8 -33 -11 -65.5t-3 -67.5zM115 614q0 -66 28.5 -130t73.5 -116.5t102.5 -88t118.5 -43.5q8 35 8 88q0 88 -19 162.5t-52 127 t-76 82t-90 29.5q-51 0 -76 -35q14 -6 23 -24q-21 -21 -41 -52z" />
<glyph unicode="&#x43f;" horiz-adv-x="923" d="M-27.5 228q-1.5 73 3 149t14.5 145.5t24 112.5q12 37 32 51t42 14q23 0 37 -9t18 -21q-12 -16 -26.5 -82t-23.5 -151t-13 -171t4 -141q4 -23 12 -26t19 22q23 49 51.5 132t61 172t66.5 171t68 133q59 90 119 90q43 0 57.5 -37t14.5 -94q0 -145 5 -263t18.5 -201t35 -128 t54.5 -45q25 0 50 24.5t55 85t66.5 161t86.5 251.5q57 0 39 -75q-41 -160 -79 -270.5t-77 -179t-81 -99.5t-87 -31q-61 0 -99 53.5t-59.5 136t-30 184t-8.5 197.5q0 41 1 79t1 75q0 23 -8 26t-24 -28q-33 -59 -63 -136t-57.5 -155t-52 -148.5t-42.5 -115.5 q-35 -80 -63 -103.5t-52 -23.5q-33 0 -62.5 34t-39.5 113q-6 49 -7.5 122z" />
<glyph unicode="&#x440;" horiz-adv-x="999" d="M-12 614q-2 133 18.5 205t50.5 72q25 0 34 -49t-13 -170q2 -39 4 -79t6 -83q35 74 84 136.5t104.5 107.5t111.5 67.5t106 20.5q57 0 102 -30t75.5 -81t46 -119.5t15.5 -146.5q0 -188 -87 -314t-228 -159q37 -23 77 -39t87 -16t96 30.5t100 104t106.5 195.5t114.5 306 q57 0 39 -75q-84 -336 -208.5 -507t-266.5 -171q-45 0 -82 12t-70.5 33.5t-70.5 52.5t-82 68q-61 8 -100 34q33 -197 60.5 -385t29.5 -346q0 -90 -9.5 -152.5t-26.5 -102.5t-39.5 -58t-47.5 -18q-16 0 -34 8t-28 28q14 20 25.5 47t20 65t13.5 90t5 124q0 98 -9 205.5 t-22.5 218.5t-30 221.5t-30.5 214.5q-31 8 -40 43t17 121q-10 78 -16 147.5t-8 122.5zM109 336l28 -193q14 8 41 9q35 -2 70 -27t74 -57q82 2 139 36.5t91 87t49 118t15 132.5q0 129 -43 205t-118 76q-43 0 -93.5 -28.5t-98.5 -81t-89 -123t-65 -154.5z" />
<glyph unicode="&#x441;" horiz-adv-x="716" d="M-53 297q0 106 28.5 206.5t78.5 178.5t119 126t149 48q94 0 138 -65.5t44 -167.5q0 -57 -12.5 -105.5t-32 -83.5t-44 -54.5t-46.5 -19.5q-23 0 -38.5 20.5t-17.5 61.5q-4 63 21.5 131t73.5 111q-14 29 -38 46.5t-61 17.5q-53 0 -100 -33t-82 -89.5t-56.5 -131 t-21.5 -158.5q0 -160 59.5 -236.5t163.5 -76.5q57 0 113.5 23.5t112 85t110 168t109.5 273.5q57 0 39 -75q-43 -172 -100.5 -288t-123 -185.5t-137 -98t-141.5 -28.5q-66 0 -122 24.5t-97 73.5t-64.5 124t-23.5 177z" />
<glyph unicode="&#x442;" horiz-adv-x="1355" d="M0 573q20 63 59 64q23 0 42.5 -27.5t31.5 -99.5q14 -76 21.5 -176t7.5 -184q0 -20 4 -17.5t8 12.5q12 45 30.5 113t39 143.5t43 150.5t43.5 134q68 193 147 193q66 0 66 -127q0 -100 2 -199.5t6 -184.5t10 -151.5t14 -101.5q4 -14 8.5 -18.5t10.5 18.5q14 49 33.5 114.5 t41 134t46 136t47.5 123.5q33 78 68.5 121.5t72.5 43.5q35 0 56.5 -33.5t25.5 -111.5q10 -172 23.5 -284.5t30 -178t36 -92.5t41.5 -27q18 0 38 18.5t47.5 74t64.5 156t90 263.5q57 0 39 -75q-43 -172 -81 -283t-73 -174.5t-71.5 -88t-75.5 -24.5q-47 0 -84 32t-64.5 108.5 t-46 204.5t-27.5 321q-2 35 -10 32t-20 -32q-23 -55 -48.5 -127t-49 -147.5t-44 -147.5t-34.5 -125q-20 -76 -43 -102.5t-52 -26.5q-35 0 -62.5 35t-43.5 115q-23 123 -29 272t-6 324q0 14 -6 13t-10 -13q-14 -37 -34 -102.5t-41.5 -140.5t-43 -153t-37.5 -141 q-27 -98 -56.5 -138t-64.5 -40q-29 0 -45 27.5t-18 93.5q-4 201 -25.5 328.5t-48.5 174.5zM160 985.5q4 22.5 17 38.5t31.5 26.5t33.5 14.5q49 18 143 20t203.5 0t214 0t178.5 23q41 20 70.5 43.5t29.5 52.5q51 -14 75 -42.5t19.5 -61.5t-38 -63.5t-95.5 -47.5 q-84 -23 -186 -24.5t-205.5 -0.5t-199 -3.5t-164.5 -30.5q-33 -8 -51.5 -23.5t-28.5 -36.5q-29 6 -39 60q-12 33 -8 55.5z" />
<glyph unicode="&#x443;" horiz-adv-x="825" d="M-356 -829q0 45 23.5 65.5t58.5 9.5q0 -68 36.5 -132t99 -114.5t144.5 -80t174 -29.5q248 0 389.5 141.5t141.5 399.5q0 137 -23.5 261t-55.5 237.5t-62.5 221t-45.5 214.5q-63 -219 -158.5 -339t-191.5 -120q-47 0 -85 20.5t-64.5 64.5t-42 114.5t-15.5 170.5 q0 57 6.5 123t17.5 130.5t27.5 126t38.5 112.5q16 39 36 55.5t44 16.5q23 0 39 -11q-51 -115 -72.5 -250t-21.5 -251q0 -86 10 -141.5t27.5 -87t38 -45t41.5 -13.5q70 0 151.5 132t161.5 411q12 53 53 53q20 0 41 -10q-16 -119 14.5 -249t75.5 -275.5t85 -306.5t40 -339 q0 -158 -48 -283.5t-135 -214.5t-208 -137.5t-264 -48.5q-111 0 -206 35t-165.5 91.5t-110.5 127t-40 144.5z" />
<glyph unicode="&#x444;" horiz-adv-x="1525" d="M-20 385q0 174 62 281.5t155 148.5q84 35 170 21q63 -10 116 -54q-14 156 -10 305q4 145 38 265.5t92.5 212.5t138 154.5t171.5 95.5q80 27 150 25.5t126 -27t94 -73.5t52 -118q20 -92 -4 -182t-77.5 -165t-125 -130t-145.5 -80q-113 -39 -182.5 -12.5t-83.5 102.5 q-6 43 8 89t41 86t61.5 71t67.5 43q27 8 48 -3.5t11 -54.5q-31 -12 -58.5 -36.5t-47 -52t-29.5 -54t-6 -41.5q6 -25 40 -42t116 11q78 29 135 74t93 99.5t48 113t2 111.5q-10 49 -37.5 85t-70.5 54t-99.5 18t-119.5 -22q-68 -25 -129.5 -74t-108.5 -124.5t-79 -179 t-40 -236.5q2 -61 7 -148.5t14.5 -179.5t21.5 -178t31 -148q78 190 178 298t211 108q49 0 90 -28t72 -77t47 -117.5t16 -150.5q0 -119 -30.5 -207t-82 -145.5t-114.5 -82t-131 -14.5q45 -37 89 -52t87 -15q53 0 105.5 22.5t106.5 89t112.5 188.5t124.5 320q57 0 38 -75 q-47 -184 -105 -310.5t-123.5 -203t-135.5 -110.5t-137 -34q-80 0 -158 39t-147 133q57 -205 101 -387t44 -336q0 -164 -52 -240.5t-118 -76.5q-45 0 -87 33.5t-75 108.5t-52 197t-19 300q0 180 22.5 344t63.5 305q-20 -35 -46 -65q-49 -66 -103 -106t-111.5 -58.5 t-112.5 -18.5q-49 0 -90 28t-72 77t-47 117.5t-16 150.5zM96 412q0 -125 42 -203t108 -78q35 0 80 20.5t92 66.5t90 118q20 31 37 67q-25 123 -45 252q-10 16 -21 27q-25 27 -51.5 42t-54 20.5t-51.5 5.5q-98 0 -162 -86t-64 -252zM594 -311q0 -170 15.5 -283t37 -180.5 t47 -95t43.5 -27.5q20 0 37 26.5t17 108.5q0 174 -51.5 381t-112.5 447q-16 -86 -24.5 -179.5t-8.5 -197.5zM676 281q8 -29 15 -54.5t14 -52.5q10 25 49 23q23 -45 65.5 -69t89.5 -24q98 0 162 86t64 252q0 125 -42 203t-108 78q-35 0 -76 -30.5t-83 -88t-80.5 -139.5 t-69.5 -184z" />
<glyph unicode="&#x445;" horiz-adv-x="675" d="M-102 -348q0 33 8 79t28 107q27 86 64 176t82 185q-41 98 -64.5 211.5t-23.5 230.5q0 18 2 42t7 46.5t15.5 37.5t26.5 15q23 0 33 -35.5t0 -105.5q4 -86 20.5 -167t42.5 -150q68 141 132.5 269t105.5 226q14 35 22.5 61.5t12.5 51.5q14 12 37 12q16 0 28 -11t12 -36 q0 -35 -26 -106q-45 -111 -122 -262.5t-153 -315.5q41 -74 89.5 -118t93.5 -44q27 0 57.5 18.5t67 74t81 157.5t99.5 272q57 0 39 -75q-74 -299 -164 -439.5t-195 -140.5q-59 0 -116.5 47t-104.5 125q-29 -66 -52.5 -127t-39.5 -121q-29 -98 -35 -159.5t0 -92.5 q-16 -27 -49 -26q-61 0 -61 88z" />
<glyph unicode="&#x446;" horiz-adv-x="972" d="M-25 317q0 68 6.5 136.5t17.5 133t26.5 121t33.5 99.5q31 74 78 74q23 0 39 -11q-16 -35 -31.5 -91t-28 -124.5t-19.5 -142.5t-7 -143q0 -88 11.5 -149.5t27.5 -100.5t37.5 -57.5t44.5 -18.5q43 0 91 55.5t101 177.5q-2 10 -2 20.5v20.5v41q0 72 13.5 140.5t34 122t45 86 t47.5 32.5q39 0 39 -61q0 -59 -21.5 -159.5t-60.5 -207.5q4 -125 40.5 -190.5t84.5 -65.5q33 0 75 19l17 8l-39 121q-35 100 -9.5 175t136.5 85q31 2 54.5 -7.5t39.5 -22.5t25.5 -28.5t11.5 -27.5q18 -92 -12.5 -172t-83.5 -142q-2 -2 -3 -4t-4 -4l31 -80q23 -63 28 -124.5 t-1 -112.5q-4 -102 -46 -189.5t-114 -151t-169 -96t-210 -24.5q-104 10 -168.5 59.5t-90 110.5t-15.5 121.5t57 95.5q45 41 101.5 58.5t110.5 13.5t101.5 -32t73.5 -75q18 -41 13 -62.5t-20 -31.5t-35.5 -11t-33.5 3q4 45 -14 76.5t-51 44t-75 4.5t-85 -41q-29 -27 -35 -67 t12.5 -78.5t61.5 -67.5t113 -31q102 -4 180 35t130 99.5t78.5 130t26.5 128.5q4 72 -18 150q-6 23 -12 43t-13 41q-18 -16 -36 -25q-64 -35 -111 -35q-72 0 -109.5 60.5t-60.5 146.5q-51 -100 -113.5 -166.5t-130.5 -66.5q-88 0 -147.5 100.5t-59.5 308.5zM751 297 q5 -37 21 -88q6 -16 12.5 -34.5t14.5 -39.5q33 33 49 86q18 53 0 121q-14 29 -41 28t-41 -22q-20 -14 -15 -51z" />
<glyph unicode="&#x447;" horiz-adv-x="657" d="M-37 659q0 47 7 89.5t17.5 74t25 50t30.5 18.5q41 0 41 -100q0 -33 -4 -83.5t-17 -111.5q12 -12 39 -12q43 0 90.5 53t75.5 139q10 8 29 8q49 0 65 -43q10 -25 -6 -77q-63 -215 -63 -402q0 -121 29.5 -167t64.5 -46q25 0 52.5 25.5t59 87t70.5 161.5t88 250q57 0 39 -75 q-41 -166 -81 -277.5t-80.5 -178.5t-83.5 -95.5t-89 -28.5q-86 0 -133 81t-47 241q0 74 12.5 163t43.5 181q-31 -59 -73 -87t-81 -28q-55 0 -88 46t-33 144z" />
<glyph unicode="&#x448;" horiz-adv-x="1277" d="M-25 317q0 68 6.5 136.5t17.5 133t26.5 121t33.5 99.5q31 74 78 74q23 0 39 -11q-16 -35 -31.5 -91t-28 -124.5t-19.5 -142.5t-7 -143q0 -88 11.5 -149.5t27.5 -100.5t37.5 -57.5t44.5 -18.5q43 0 91 55.5t101 177.5q-2 20 -2 41v41q0 72 13.5 140.5t34 122t45 86 t47.5 32.5q39 0 39 -61q0 -59 -21.5 -159.5t-60.5 -207.5q4 -125 43 -183t86 -58q33 0 75.5 49t94.5 172q-2 20 -2 40.5v41.5q0 72 13 140.5t33.5 121.5t45 86t47.5 33q39 0 39 -62q0 -59 -21.5 -159.5t-60.5 -206.5q4 -125 43 -183.5t86 -58.5q25 0 49.5 19.5t55 74.5 t69.5 153.5t90 256.5q57 0 39 -76q-41 -160 -79 -267.5t-76 -172t-78.5 -92t-88.5 -27.5q-37 0 -67.5 21.5t-53 54t-36 71.5t-15.5 74q-27 -72 -52 -118t-52 -71.5t-55.5 -35.5t-61.5 -10q-72 0 -115.5 58t-66.5 144q-51 -100 -113.5 -166.5t-130.5 -66.5 q-88 0 -147.5 100.5t-59.5 308.5z" />
<glyph unicode="&#x449;" horiz-adv-x="1363" d="M-25 317q0 68 6.5 136.5t17.5 133t26.5 121t33.5 99.5q31 74 78 74q23 0 39 -11q-16 -35 -31.5 -91t-28 -124.5t-19.5 -142.5t-7 -143q0 -88 11.5 -149.5t27.5 -100.5t37.5 -57.5t44.5 -18.5q43 0 91 55.5t101 177.5q-2 10 -2 20.5v20.5v41q0 72 13.5 140.5t34 122t45 86 t47.5 32.5q39 0 39 -61q0 -59 -21.5 -159.5t-60.5 -207.5q4 -125 43 -183t86 -58q33 0 75.5 49t94.5 172q-2 10 -2 20.5v20.5v41q0 72 13 140.5t33.5 121.5t45 86t47.5 33q39 0 39 -62q0 -59 -18.5 -159.5t-57.5 -206.5q4 -125 38 -190.5t81 -65.5q33 0 76 18l16 8l-39 121 q-16 49 -22.5 94t5 81t42 58.5t86.5 26.5q31 2 55.5 -7t42.5 -22.5t29.5 -29t13.5 -27.5q18 -92 -12.5 -172t-83.5 -141q-2 -2 -3 -4t-3 -4l30 -80q23 -63 31 -125t2 -113q-4 -102 -46 -189t-113.5 -150.5t-169 -96.5t-210.5 -25q-104 10 -168.5 59.5t-90 111t-15.5 122 t57 94.5q45 41 101.5 58.5t111 13.5t101.5 -31.5t73 -74.5q18 -41 13.5 -62.5t-20 -32t-36 -11.5t-32.5 3q4 45 -14.5 77t-51.5 44t-75 4t-85 -41q-29 -27 -35 -66.5t12.5 -78.5t61.5 -67.5t113 -30.5q102 -4 180 34.5t130 99t79 130t27 129.5q4 72 -19 149q-6 23 -12 42.5 t-10 39.5q-10 -4 -19.5 -10t-19.5 -12q-63 -35 -111 -35q-37 0 -63.5 19.5t-45 50t-31 71.5t-20.5 84q-27 -72 -52 -118t-52 -71.5t-55.5 -35.5t-61.5 -10q-72 0 -115.5 58t-66.5 144q-51 -100 -113.5 -166.5t-130.5 -66.5q-88 0 -147.5 100.5t-59.5 308.5zM1138 311 q5 -37 21 -88q6 -16 12.5 -34.5t14.5 -38.5q33 33 49 86q18 53 0 120q-14 29 -41 28t-41 -22q-20 -14 -15 -51z" />
<glyph unicode="&#x44a;" horiz-adv-x="944" d="M-39 637q0 111 23.5 181.5t50.5 70.5q41 0 41 -101q0 -31 -4 -91t-13 -111q14 -6 35 -6q51 0 102.5 22.5t93.5 56t70.5 74.5t36.5 78q6 4 15.5 5t13.5 1q72 0 72 -67q0 -53 -34 -123t-77 -149t-80 -162t-43 -160q-2 -61 34 -101.5t88 -57.5t109.5 -9t100.5 41 q39 31 63 94q12 31 19 61q-45 -14 -90 -20q-66 -6 -113 8q-31 8 -54.5 34.5t-35.5 62.5t-11 75t19.5 73t58.5 59.5t103 33.5q70 2 120 -28.5t79 -82.5q18 -33 28 -69q33 25 64 53q66 63 108 156q8 6 18.5 -8.5t16.5 -36t5 -44t-15 -30.5q-47 -80 -115 -133q-33 -29 -69 -49 q0 -41 -11 -84q-14 -63 -53 -122t-102 -98q-70 -43 -152 -55t-153.5 7.5t-124 71.5t-64.5 140q-6 47 -3 93.5t26 97.5q27 66 82 155q51 86 118 179q-55 -74 -131 -113q-80 -43 -143 -43q-59 0 -91 39t-32 131zM358 623l2 2zM480 317.5q5 -26.5 24 -43.5q27 -27 84 -22 q47 2 100 24q-4 52 -24 95q-27 51 -91 57q-39 0 -61.5 -17.5t-29.5 -42t-2 -51z" />
<glyph unicode="&#x44b;" horiz-adv-x="1210" d="M-34 210q-3 54 0 111.5t7 112.5q4 47 9.5 98.5t12.5 98.5t15 86t17 61q16 37 34.5 58.5t47.5 21.5q27 0 43 -16q-2 -33 -14.5 -95.5t-26 -138.5t-23.5 -158.5t-8 -157.5t21.5 -134.5t64.5 -89.5q55 -37 131 -36t131 42q29 23 49.5 61.5t30.5 85.5q-119 -41 -209 -4 q-43 18 -72.5 68.5t-27.5 107t43 103.5t137 59q92 4 149.5 -43t81.5 -119q45 35 86 84t70 111q6 23 11 40t11 34q16 37 35 58t47 21q27 0 43 -16q-35 -100 -50 -203.5t-15 -210.5q0 -131 29.5 -190.5t76.5 -59.5q25 0 50.5 22.5t56.5 80t67.5 156t85.5 249.5q57 0 39 -75 q-41 -160 -80.5 -268.5t-80.5 -174t-84 -94.5t-90 -29q-82 0 -136.5 82t-54.5 275q0 49 6 108q-51 -63 -106 -104q0 -88 -40 -173t-126 -136q-53 -33 -113.5 -47.5t-119 -9.5t-112 29.5t-89.5 72.5q-31 37 -44.5 84t-16.5 101zM308 403.5q-15 -49.5 20 -84.5 q25 -25 76 -21.5t110 32.5q-4 57 -33 98t-84 45q-74 -20 -89 -69.5z" />
<glyph unicode="&#x44c;" horiz-adv-x="774" d="M-39 261q6 87 12 175q4 47 9.5 98.5t12.5 98.5t15 85t17 60q16 37 34.5 58.5t47.5 21.5q27 0 43 -16q-2 -33 -14.5 -95.5t-26 -138.5t-23.5 -158.5t-8 -157.5t21.5 -134.5t64.5 -89.5q55 -37 131 -36t131 42q29 23 48.5 60.5t29.5 84.5q-57 -18 -110.5 -19t-96.5 17 t-72.5 68.5t-27.5 107t43 103.5t137 59q96 4 154.5 -46t80.5 -128q47 35 90.5 86t73.5 117q8 6 18.5 -8.5t16.5 -36t5 -44t-15 -30.5q-35 -59 -80 -105.5t-96 -80.5q-2 -86 -42 -168t-124 -131q-61 -37 -134 -50.5t-140.5 0t-123 56.5t-81.5 116q-27 72 -21 159zM308 403.5 q-15 -49.5 20 -84.5q25 -25 76 -23.5t110 28.5q-4 59 -32 102t-85 47q-74 -20 -89 -69.5z" />
<glyph unicode="&#x44d;" horiz-adv-x="784" d="M-69 345.5q-13 19.5 3 55.5q51 123 104.5 207t109 135.5t116 74t125.5 24.5q66 2 124 -22.5t102 -75t70 -126t26 -176.5q0 -106 -29 -204.5t-84 -174t-134 -121.5t-179 -48q-49 0 -92 16t-74 44t-49.5 63.5t-18.5 72.5q0 41 13.5 74t35 56.5t46 37.5t47.5 18q29 8 49 4 t28.5 -14t4 -23.5t-22.5 -23.5q-49 -25 -70.5 -50.5t-29 -48t-4 -42t5.5 -33.5q31 -47 78 -59.5t98 1t100 48.5t82 84q31 45 51.5 104.5t26.5 124.5q-10 4 -20.5 7t-20.5 7q-6 2 -22.5 2.5t-34 0.5t-34 -1.5t-24.5 -1.5q-45 -8 -87 -10t-85 8q-31 6 -44 29t-9 55 q10 37 22 43q8 -10 23.5 -17t32.5 -11q39 -8 75.5 -6t75.5 10q10 2 30.5 3t42 2t42 0t31.5 -3q2 -2 8 -2q-8 137 -65.5 206.5t-155.5 69.5q-41 0 -81 -15t-86 -60.5t-101.5 -126t-129.5 -211.5q-29 0 -42 19.5z" />
<glyph unicode="&#x44e;" horiz-adv-x="1175" d="M-21.5 320.5q1.5 72.5 7.5 121.5q4 53 13 107.5t19 85.5q12 37 32 51t42 14q23 0 37 -9t18 -21q-12 -16 -25 -78t-24 -143q-2 -14 -4 -29h8q37 4 83 6t96 4q25 0 43 2q4 20 10 41q23 92 67 162q8 92 57.5 149.5t135.5 57.5q74 0 132 -39t99 -105.5t62.5 -156.5t21.5 -193 q0 -31 -2 -58.5t-6 -49.5q41 8 79 28.5t71.5 58.5t64.5 98t60 148q56 1 38 -75q-23 -90 -59.5 -157t-81.5 -111t-96 -69.5t-105 -33.5q-41 -111 -117.5 -168t-168.5 -57q-123 0 -199 98t-76 295v45q-29 0 -61 -2h-111q-27 2 -49 2q2 -18 2 -37q2 -90 11.5 -179t21.5 -158.5 t25 -86.5q-4 -12 -18.5 -21.5t-37.5 -9.5t-42 14.5t-32 51.5q-14 43 -23 112.5t-14.5 145.5t-4 148.5zM408 330q0 -147 59 -225t145 -78q98 0 158 100q-57 10 -111.5 40t-99.5 74t-81 101t-56 121q-14 -59 -14 -133zM485 614q0 -66 28 -130t74 -116.5t104.5 -88t117.5 -43.5 q8 31 8 88q0 88 -19.5 162.5t-52 127t-75.5 82t-90 29.5q-51 0 -76 -35q12 -6 22 -24q-10 -10 -20.5 -23t-20.5 -29z" />
<glyph unicode="&#x44f;" horiz-adv-x="1069" d="M-117 194.5q0 65.5 13 127.5q6 31 17 63.5t27.5 62t34 53t35.5 36.5q16 14 36 14t32 -8t16 -23.5t-10 -32.5q-6 -8 -16.5 -25.5t-20.5 -40t-19.5 -46t-15.5 -41.5q-16 -66 -18 -140.5t31 -127.5q55 -18 114.5 14.5t112.5 92.5t96 133t66 132q-86 10 -145.5 35t-96.5 61.5 t-53.5 82t-18.5 96.5q-2 55 18.5 112.5t61.5 103.5t101.5 72.5t140.5 20.5q29 -2 59.5 -13.5t56 -36t44 -64.5t20.5 -101q2 -82 -13.5 -151.5t-47.5 -155.5h26q6 14 13 26q14 25 43 31q14 2 28.5 0t24.5 -8q-2 -14 -6 -44t-9.5 -63.5t-8.5 -65.5t-3 -48q0 -131 32 -190.5 t79 -59.5q25 0 50.5 22.5t56 80t67.5 155.5t86 250q57 0 39 -76q-41 -160 -81 -268.5t-81 -174t-84 -94t-90 -28.5q-82 0 -136.5 82t-54.5 274q0 12 3.5 35.5t7.5 48.5q2 20 6 39q-14 2 -27 2q-16 0 -18 -4q-41 -98 -93.5 -184t-112.5 -152t-127 -102.5t-132 -36.5 q-57 0 -91 35.5t-49.5 91t-15.5 121zM224 745.5q-3 -51.5 19.5 -99.5t70.5 -85t126 -47q35 92 46.5 157.5t9.5 137.5q-2 66 -23.5 88.5t-50.5 26.5q-59 6 -103.5 -18.5t-68 -66.5t-26.5 -93.5z" />
<glyph unicode="&#x451;" horiz-adv-x="702" d="M-96 1081q0 86 55 160q-6 21 -6 39q0 49 35 77.5t112 28.5q104 0 154.5 -49t50.5 -116q0 -55 -24.5 -105.5t-62.5 -90.5t-84 -63.5t-89 -23.5q-68 0 -104.5 39t-36.5 104zM-49 295q0 119 29.5 220t76.5 173t108.5 113t127.5 41q45 0 75.5 -17.5t51 -47t30 -69.5t9.5 -85 q0 -74 -23.5 -135.5t-61.5 -106.5t-86 -69.5t-98 -24.5q-41 0 -82.5 15t-64.5 44v-16q0 -152 58.5 -229.5t148.5 -77.5q51 0 109.5 27.5t118 92t116.5 169.5t108 261q57 0 39 -75q-39 -154 -97 -266.5t-126.5 -186.5t-142.5 -109.5t-142 -35.5q-127 0 -204.5 98t-77.5 297z M0 1143q0 -39 24.5 -59.5t65.5 -20.5q43 0 79 30.5t36 75.5q0 31 -31 62t-90 31q-23 0 -47 -7q-20 -35 -28.5 -62t-8.5 -50zM59 465q14 -37 48 -57.5t75 -20.5q29 0 57.5 13.5t52 41t39 67.5t15.5 93t-20.5 93t-61.5 40q-31 0 -61.5 -21.5t-58 -58.5t-50 -86t-35.5 -104z M358 1087q0 86 56 160q-6 21 -6 39q0 49 34.5 78t112.5 29q104 0 154.5 -49.5t50.5 -116.5q0 -55 -24.5 -105.5t-62.5 -90.5t-84 -63.5t-89 -23.5q-68 0 -105 39t-37 104zM455 1149q0 -39 24.5 -59.5t65.5 -20.5q43 0 78.5 30.5t35.5 76.5q0 31 -30.5 61.5t-89.5 30.5 q-23 0 -47 -6q-20 -35 -28.5 -62.5t-8.5 -50.5z" />
<glyph unicode="&#x454;" horiz-adv-x="716" d="M-53 297q0 78 16.5 154.5t44.5 144.5q55 111 140 182.5t186 73.5q49 0 93 -16.5t78 -43t52 -61.5t16 -72q-4 -53 -29.5 -85.5t-70.5 -41.5q-29 -8 -49.5 1.5t-29.5 24.5t-5 29.5t25 16.5q27 2 40 11.5t18 21.5t4 27.5t-3 27.5q-31 45 -83 62.5t-111.5 -5t-118 -90 t-97.5 -190.5q-4 -10 -5 -18.5t-3 -16.5q29 2 70 3t57 -5q53 -6 109.5 -6t97.5 35q12 -2 25 -41q6 -33 -7.5 -55.5t-44.5 -28.5q-43 -12 -84.5 -11t-87.5 7q-6 2 -27.5 2h-45t-43 -1t-25.5 -3q2 -158 60.5 -232.5t162.5 -74.5q57 0 113.5 23.5t112 85t110 168t109.5 273.5 q57 0 39 -75q-43 -172 -100.5 -288t-123 -185.5t-137 -98t-141.5 -28.5q-66 0 -122 24.5t-97 73.5t-64.5 124t-23.5 177z" />
<glyph unicode="&#x456;" horiz-adv-x="452" d="M-47 1120q0 86 55 160q-6 21 -6 39q0 49 35 77.5t113 28.5q104 0 154 -49t50 -116q0 -55 -24.5 -105.5t-62.5 -90.5t-84 -63.5t-89 -23.5q-68 0 -104.5 39t-36.5 104zM-35 289q0 43 5 95t13.5 103.5t19.5 98.5t24 80q16 37 34.5 58t47.5 21q27 0 43 -16 q-35 -100 -50.5 -203.5t-15.5 -210.5q0 -131 29.5 -190t77.5 -59q25 0 50 22.5t56 79.5t67.5 155.5t86.5 249.5q57 0 39 -75q-41 -160 -81 -268.5t-81 -174t-84 -94.5t-90 -29q-82 0 -136.5 82t-54.5 275zM49 1182q0 -39 24.5 -59.5t65.5 -20.5q43 0 79 30.5t36 75.5 q0 31 -30.5 61.5t-90.5 30.5q-23 0 -47 -6q-20 -35 -28.5 -62t-8.5 -50z" />
<glyph unicode="&#x457;" horiz-adv-x="452" d="M-313 1053q0 86 55 159q-6 21 -6 39q0 49 34.5 78t112.5 29q104 0 154.5 -49t50.5 -117q0 -55 -24.5 -105.5t-62.5 -90.5t-84 -63.5t-89 -23.5q-68 0 -104.5 39t-36.5 105zM-217 1114q0 -39 24.5 -59.5t65.5 -20.5q43 0 79 31t36 76q0 31 -31 61.5t-90 30.5q-23 0 -47 -6 q-20 -35 -28.5 -62.5t-8.5 -50.5zM-35 289q0 43 5 95t13.5 103.5t19.5 98.5t24 80q16 37 34.5 58t47.5 21q27 0 43 -16q-35 -100 -50.5 -203.5t-15.5 -210.5q0 -131 29.5 -190t77.5 -59q25 0 50 22.5t56 79.5t67.5 155.5t86.5 249.5q57 0 39 -75q-41 -160 -81 -268.5 t-81 -174t-85 -94.5t-89 -29q-82 0 -136.5 82t-54.5 275zM176 1059q0 86 55 160q-6 20 -6 38q0 49 35 78t113 29q104 0 154.5 -49t50.5 -117q0 -55 -25 -105.5t-62.5 -90t-84 -63.5t-89.5 -24q-68 0 -104.5 39t-36.5 105zM272 1120q0 -39 25 -59.5t65 -20.5q43 0 79 31 t36 76q0 31 -30.5 61.5t-90.5 30.5q-23 0 -47 -6q-20 -35 -28.5 -62.5t-8.5 -50.5z" />
<glyph unicode="&#x45e;" horiz-adv-x="825" d="M-356 -829q0 45 23.5 65.5t58.5 9.5q0 -68 36.5 -132t99 -114.5t144.5 -80t174 -29.5q248 0 389.5 141.5t141.5 399.5q0 137 -23.5 261t-55.5 237.5t-62.5 221t-45.5 214.5q-63 -219 -158.5 -339t-191.5 -120q-47 0 -85 20.5t-64.5 64.5t-42 114.5t-15.5 170.5 q0 57 6.5 123t17.5 130.5t27.5 126t38.5 112.5q16 39 36 55.5t44 16.5q23 0 39 -11q-51 -115 -72.5 -250t-21.5 -251q0 -86 10 -141.5t27.5 -87t38 -45t41.5 -13.5q70 0 151.5 132t161.5 411q12 53 53 53q20 0 41 -10q-16 -119 14.5 -249t75.5 -275.5t85 -306.5t40 -339 q0 -158 -48 -283.5t-135 -214.5t-208 -137.5t-264 -48.5q-111 0 -206 35t-165.5 91.5t-110.5 127t-40 144.5zM152 1323q6 41 41.5 52t74.5 -7q2 -88 56.5 -142.5t136.5 -66.5q78 -14 146.5 19.5t97.5 113.5q33 4 57 -9t20 -52q-8 -43 -38.5 -82t-79 -67.5t-107.5 -40 t-135 0.5q-61 10 -114.5 39t-89.5 67t-54.5 83t-11.5 92z" />
<glyph unicode="&#x490;" horiz-adv-x="2379" d="M0 369q0 113 57.5 221t165 193t260 137.5t344.5 52.5q141 0 254 -30t192 -84t121 -128t42 -160q0 -78 -38 -144.5t-107.5 -115.5t-165 -77.5t-212.5 -28.5q-72 0 -146.5 12t-134 35.5t-97 54.5t-37.5 68q0 31 24.5 51t71.5 14q2 -29 35 -52t82 -41.5t109.5 -29 t119.5 -10.5q84 0 154.5 19.5t121 54.5t78 81t27.5 101q0 61 -34 117.5t-98.5 98.5t-158.5 66.5t-217 24.5q-164 0 -292 -41t-216 -108.5t-135 -155.5t-47 -180q0 -119 58.5 -224.5t174 -185t287.5 -127t399 -47.5q414 0 610.5 157t196.5 454q0 129 -19.5 261t-44 264 t-44 263t-19.5 260q0 141 35 208t90 67q25 0 43.5 -16.5t22.5 -45.5q-31 -23 -50.5 -80t-19.5 -143q0 -55 7.5 -125t17.5 -142.5t21.5 -143t21.5 -126.5q23 -123 39 -250.5t16 -275.5q0 -164 -62.5 -293t-181 -218t-290.5 -136t-390 -47q-250 0 -443 55t-326.5 148.5 t-203 215t-69.5 257.5zM76 1630q0 92 39 181.5t124 159t219 112.5t324 43q162 0 308.5 -27.5t289 -61.5t287.5 -61.5t305 -27.5q86 0 160 14t127 41q29 16 54.5 42t45 53.5t31.5 56t14 53.5q6 70 -15.5 123t-59 88t-86 51t-93.5 13t-81.5 -26.5t-51.5 -70.5 q-25 -76 23.5 -119t138.5 -24q2 -14 0 -35t-17.5 -38.5t-44 -26.5t-77.5 -1q-57 25 -89 59.5t-44.5 74.5t-7 80t21.5 75q23 55 79 88t124.5 42t142.5 -7.5t132.5 -58t93 -110.5t26.5 -163q-4 -35 -14.5 -75t-28.5 -79.5t-44.5 -75.5t-59.5 -61q-55 -41 -154.5 -67.5 t-243.5 -26.5q-168 0 -319.5 27.5t-297 60.5t-288.5 60.5t-295 27.5q-166 0 -277.5 -33.5t-179 -88t-95 -121t-27.5 -130.5q0 -78 35.5 -142t100 -110.5t153.5 -72t198 -25.5q129 0 238.5 35t181.5 96q39 -6 39 -45q0 -25 -20.5 -46t-63.5 -48q-66 -39 -168.5 -69.5 t-224.5 -30.5q-135 0 -244 33.5t-185.5 94t-117.5 142.5t-41 178z" />
<glyph unicode="&#x2000;" horiz-adv-x="1346" />
<glyph unicode="&#x2001;" horiz-adv-x="2693" />
<glyph unicode="&#x2002;" horiz-adv-x="1346" />
<glyph unicode="&#x2003;" horiz-adv-x="2693" />
<glyph unicode="&#x2004;" horiz-adv-x="897" />
<glyph unicode="&#x2005;" horiz-adv-x="673" />
<glyph unicode="&#x2006;" horiz-adv-x="448" />
<glyph unicode="&#x2007;" horiz-adv-x="448" />
<glyph unicode="&#x2008;" horiz-adv-x="336" />
<glyph unicode="&#x2009;" horiz-adv-x="538" />
<glyph unicode="&#x200a;" horiz-adv-x="149" />
<glyph unicode="&#x2010;" d="M123 502q0 37 64.5 63.5t222.5 26.5q203 0 202 -80q0 -18 -11.5 -33.5t-31.5 -21.5q-29 12 -80 19t-112 7q-72 0 -125 -8t-90 -18q-39 10 -39 45z" />
<glyph unicode="&#x2011;" d="M123 502q0 37 64.5 63.5t222.5 26.5q203 0 202 -80q0 -18 -11.5 -33.5t-31.5 -21.5q-29 12 -80 19t-112 7q-72 0 -125 -8t-90 -18q-39 10 -39 45z" />
<glyph unicode="&#x2012;" d="M123 502q0 37 64.5 63.5t222.5 26.5q203 0 202 -80q0 -18 -11.5 -33.5t-31.5 -21.5q-29 12 -80 19t-112 7q-72 0 -125 -8t-90 -18q-39 10 -39 45z" />
<glyph unicode="&#x2013;" horiz-adv-x="974" d="M123 498q0 18 20.5 37.5t69.5 31.5q47 12 126 22.5t171 10.5q166 0 233.5 -25.5t67.5 -66.5q0 -18 -13.5 -32.5t-31.5 -18.5q-53 18 -115.5 27.5t-148.5 9.5q-119 0 -207 -11.5t-135 -27.5q-37 6 -37 43z" />
<glyph unicode="&#x2014;" horiz-adv-x="1220" d="M123 494q0 20 19.5 38.5t68.5 32.5q31 8 78 16.5t101 14.5t112.5 9t113.5 3q121 0 205 -8t136.5 -22.5t76 -35t23.5 -44.5q0 -18 -13 -36t-40 -22q-18 10 -58.5 20.5t-92.5 18.5t-114.5 13.5t-128.5 5.5q-166 0 -282.5 -15.5t-163.5 -31.5q-16 4 -28.5 15t-12.5 28z" />
<glyph unicode="&#x2018;" horiz-adv-x="364" d="M82 1413q0 78 30.5 159t84.5 136q27 29 54.5 27t31.5 -35q-41 -41 -68 -111.5t-27 -136.5q0 -59 23.5 -95t64.5 -46q0 -37 -20 -60.5t-57 -23.5q-45 0 -81 49t-36 137z" />
<glyph unicode="&#x2019;" horiz-adv-x="303" d="M20 1262q41 41 68 111.5t27 135.5q0 59 -23.5 95.5t-64.5 46.5q0 37 20.5 60.5t56.5 23.5q45 0 81 -49.5t36 -137.5q0 -78 -30.5 -158.5t-84.5 -136.5q-27 -29 -54 -26.5t-32 35.5z" />
<glyph unicode="&#x201a;" horiz-adv-x="344" d="M20 -377q41 41 68 111.5t27 136.5q0 59 -23.5 95t-64.5 46q0 37 20.5 60.5t56.5 23.5q45 0 81 -49t36 -137q0 -78 -30.5 -159t-84.5 -136q-27 -29 -54 -27t-32 35z" />
<glyph unicode="&#x201c;" horiz-adv-x="602" d="M82 1415q0 90 36 174t93 137q29 27 56.5 24t31.5 -36q-45 -45 -77 -115.5t-32 -144.5q0 -57 20.5 -102.5t59.5 -57.5q-2 -35 -20.5 -55t-50.5 -20q-47 0 -82 52t-35 144zM319 1413q0 78 31 159t84 136q27 29 54.5 27t31.5 -35q-20 -20 -37.5 -50t-31 -64t-21.5 -69.5 t-8 -68.5q0 -59 23.5 -95t64.5 -46q2 -33 -15.5 -56.5t-52.5 -23.5q-45 0 -84 47t-39 139z" />
<glyph unicode="&#x201d;" horiz-adv-x="540" d="M20 1262q20 20 38 49.5t31 63.5t21.5 70t8.5 68q0 59 -23.5 95.5t-64.5 46.5q0 35 16 57.5t51 22.5q45 0 84 -47.5t39 -139.5q0 -78 -30.5 -158.5t-84.5 -136.5q-27 -29 -54 -26.5t-32 35.5zM242 1260q45 45 76.5 115.5t31.5 144.5q0 57 -20.5 102t-59.5 57 q2 35 20.5 55.5t51.5 20.5q47 0 82 -52t35 -144q0 -90 -36 -174.5t-93 -137.5q-29 -27 -56.5 -23.5t-31.5 36.5z" />
<glyph unicode="&#x201e;" horiz-adv-x="581" d="M20 -377q20 20 38 50t31 64t21.5 69.5t8.5 68.5q0 59 -23.5 95t-64.5 46q0 35 16 57.5t51 22.5q45 0 84 -47t39 -139q0 -78 -30.5 -159t-84.5 -136q-27 -29 -54 -27t-32 35zM242 -379q45 45 76.5 115.5t31.5 144.5q0 57 -20.5 102.5t-59.5 57.5q2 35 20.5 55.5t51.5 20.5 q47 0 82 -52.5t35 -144.5q0 -90 -36 -174t-93 -137q-29 -27 -56.5 -24t-31.5 36z" />
<glyph unicode="&#x2020;" horiz-adv-x="737" d="M123 1348q0 33 40 57.5t148 32.5q10 135 35 190t64 55q31 0 45 -26q-12 -35 -22.5 -86t-16.5 -129q104 -2 151 -21.5t47 -52.5q0 -27 -22 -43q-33 8 -70 12t-96 4h-16q-2 -84 0 -164.5t8 -152.5t16 -128t25 -91q-12 -27 -45 -27q-23 0 -43.5 21.5t-34.5 81.5 q-18 82 -25.5 198.5t-5.5 257.5q-51 -4 -86 -14t-57 -25q-39 10 -39 50z" />
<glyph unicode="&#x2021;" horiz-adv-x="737" d="M123 1110q0 33 36 56.5t146 31.5v81t2 60q-47 -4 -79.5 -13t-55.5 -23q-39 10 -39 47q0 16 7 30.5t27.5 25.5t55.5 19.5t88 12.5q6 74 15.5 122t21.5 74.5t27.5 36.5t34.5 10q25 0 36 -22q-10 -35 -18 -87t-14 -130q104 -2 147 -21.5t43 -52.5q0 -29 -22 -43 q-29 10 -72 15.5t-84 5.5h-16q-2 -23 -2 -65v-79q119 -2 162.5 -22.5t43.5 -49.5q0 -31 -24 -45q-29 10 -76 15.5t-98 5.5h-8q4 -123 12 -209t24 -127q-12 -25 -45 -25q-25 0 -42 19.5t-27 71.5q-10 45 -15.5 112.5t-9.5 153.5q-51 -4 -84.5 -14.5t-58.5 -24.5 q-39 10 -39 47z" />
<glyph unicode="&#x2022;" horiz-adv-x="557" d="M123 520q0 72 41 118t102 46q59 0 93 -43t34 -104q0 -70 -41 -116t-102 -46q-53 0 -90 40t-37 105z" />
<glyph unicode="&#x2026;" horiz-adv-x="995" d="M20 14q0 47 27 78t68 31t64.5 -27.5t23.5 -70.5q0 -47 -28 -77t-69 -30q-35 0 -60.5 25.5t-25.5 70.5zM336 29q0 51 29.5 82.5t70.5 31.5q39 0 63.5 -28.5t24.5 -75.5q0 -49 -29.5 -81t-70.5 -32q-39 0 -63.5 28t-24.5 75zM672 18q0 47 26.5 79t67.5 32q39 0 62.5 -27.5 t23.5 -72.5q0 -47 -26.5 -78t-67.5 -31q-35 0 -60.5 26.5t-25.5 71.5z" />
<glyph unicode="&#x202f;" horiz-adv-x="538" />
<glyph unicode="&#x2039;" horiz-adv-x="573" d="M82 473q0 18 12 31q33 14 71 50t70.5 80t54 90t21.5 81q16 14 41 14q57 0 58 -65q0 -55 -56.5 -135t-169.5 -156q113 -76 169.5 -156t56.5 -135q0 -66 -58 -66q-25 0 -41 15q0 43 -39.5 116.5t-119.5 145.5q-31 29 -50.5 45t-19.5 45z" />
<glyph unicode="&#x203a;" horiz-adv-x="573" d="M82 172q0 55 56.5 135t168.5 156q-113 76 -169 155.5t-56 135.5q0 66 57 65q25 0 41 -14q0 -35 21.5 -81t54.5 -90t71 -80t70 -50q12 -12 13 -31q0 -29 -19.5 -45t-50.5 -45q-80 -72 -120 -145.5t-40 -116.5q-16 -14 -41 -15q-57 0 -57 66z" />
<glyph unicode="&#x205f;" horiz-adv-x="673" />
<glyph unicode="&#x20ac;" horiz-adv-x="1452" d="M20 305q0 20 11.5 34.5t23.5 18.5q31 -18 103 -18q49 0 110 12q-4 35 -2 88.5t19 112.5q-25 -4 -49.5 -6t-51.5 -2q-63 0 -93 19.5t-30 49.5q0 18 9.5 31t21.5 19q18 -8 51 -13.5t68 -5.5q51 0 108 10q47 106 127 198.5t180.5 161t217.5 108.5t237 42q86 2 144.5 -14 t95.5 -43t53.5 -61.5t16.5 -71.5q0 -47 -28 -90t-74 -76t-107.5 -52.5t-128.5 -19.5q-98 0 -99 60q0 16 11 32q59 -10 113.5 -2.5t96.5 26.5t67.5 48t25.5 62q0 37 -44 66.5t-155 29.5q-96 0 -187 -29t-172 -79t-147.5 -117.5t-111.5 -143.5q66 20 132 37.5t142 17.5 q53 0 77.5 -17t26.5 -44q4 -35 -30 -55q-31 12 -76 12q-80 0 -160 -22.5t-166 -43.5q-14 -45 -19 -95t3 -99q117 31 239.5 66.5t231.5 35.5q16 0 38.5 -2t42 -10t34 -21.5t14.5 -37.5q0 -18 -10 -31.5t-23 -20.5q-41 18 -114 19q-96 0 -206 -32t-220 -62q43 -98 143 -151.5 t250 -53.5q88 0 171 20.5t148.5 55t110.5 81t57 99.5q20 16 45 16q23 0 39.5 -15t16.5 -44q0 -45 -43 -101.5t-122 -105.5t-190.5 -83t-247.5 -34q-193 0 -319.5 78t-173.5 207q-90 -23 -158 -23q-49 0 -82 17.5t-33 56.5z" />
<glyph unicode="&#x2122;" horiz-adv-x="1265" d="M123 1440q0 12 8 25.5t30.5 23.5t62.5 17t102 10q16 16 32 16q23 0 29 -16q96 -4 131 -20.5t35 -41.5q0 -27 -23 -37q-20 6 -56 10.5t-93 4.5q-6 -59 -6 -127q0 -88 8 -145.5t18 -82.5q-10 -37 -45 -37q-31 0 -51 43t-20 166q0 59 3 103.5t7 77.5q-53 -4 -87 -11.5 t-52 -17.5q-33 6 -33 39zM496 1075q16 20 33.5 62.5t30.5 99.5t22.5 125t7.5 141q23 23 51 23q20 0 33.5 -13.5t19.5 -48.5q12 -80 25.5 -133t25 -83.5t20.5 -43t17 -12.5q10 0 23.5 30.5t26 77t21.5 97.5t13 94q16 20 47 20q47 0 50 -65q10 -164 37.5 -251t58.5 -116 q4 -20 -7.5 -39.5t-39.5 -19.5q-43 0 -74 72.5t-35 226.5q-12 -76 -29.5 -125t-35 -76.5t-34 -39t-30.5 -11.5q-16 0 -33.5 9t-34 36t-33 76t-30.5 127q-4 -82 -14.5 -138.5t-24.5 -90t-31.5 -48t-33.5 -14.5q-23 0 -35 14.5t-8 36.5z" />
<glyph unicode="&#x25fc;" horiz-adv-x="942" d="M0 0v942h942v-942h-942z" />
<glyph unicode="&#xfb01;" horiz-adv-x="1161" d="M-112 660.5q-1 35.5 32 48.5q20 -20 41 -29q20 186 55 341t78 266.5t93.5 173t103.5 61.5q59 0 95 -82t36 -228q0 -139 -31 -254.5t-81 -201.5t-116.5 -136.5t-140.5 -54.5l-6 -82q129 -4 233.5 -90t172.5 -233q66 41 133 137t119 278q25 88 56.5 143.5t65.5 55.5 q33 0 33 -47q0 -29 -11 -78t-40 -123q-10 -53 -13 -106t-3 -105q0 -131 30.5 -190t77.5 -59q25 0 50.5 22.5t56 79.5t67.5 155.5t86 249.5q57 0 39 -75q-41 -160 -81 -268.5t-81 -174t-85 -94.5t-89 -29q-39 0 -73.5 18.5t-61.5 61.5t-41 114t-14 175l6 6 q-35 -86 -86 -148.5t-105 -99.5q53 -160 54 -354q0 -141 -23.5 -254t-63.5 -190.5t-91.5 -118.5t-106.5 -41q-68 0 -127 63.5t-103 193.5t-70 329.5t-26 472.5v51.5t2 50.5q-8 20 -13 45t-5 49.5t5 46t20 37.5l10 144q-14 6 -29 16q-33 25 -34 60.5zM37 102 q2 -195 22.5 -352.5t54 -269t78 -172t95.5 -60.5q29 0 55.5 29t48 81t33.5 128t12 172q0 100 -14 187t-39 161q-47 -10 -88 -10q-76 0 -141.5 29.5t-116.5 76.5zM39 283q16 -35 47 -66t71 -53.5t85 -33.5t92 -7q-31 61 -68 110.5t-75.5 83t-77.5 50t-72 10.5zM61 664 q53 6 99.5 49t80 113.5t53 165.5t19.5 206q0 90 -15 132t-38 42t-50.5 -50t-55 -142.5t-52 -223.5t-41.5 -292zM662 1120q0 90 55 160q-4 10 -4 19.5v19.5q0 49 33.5 77.5t111.5 28.5q104 0 154.5 -49t50.5 -116q0 -55 -24.5 -105.5t-62.5 -90.5t-84 -63.5t-89 -23.5 q-68 0 -104.5 39t-36.5 104zM758 1182q0 -39 24.5 -59.5t65.5 -20.5q43 0 79 30.5t36 75.5q0 31 -31 61.5t-90 30.5q-23 0 -47 -6q-20 -35 -28.5 -62t-8.5 -50z" />
<glyph unicode="&#xfb02;" horiz-adv-x="1304" d="M-114 656.5q-1 33.5 34 52.5q20 -20 41 -29q20 186 55 341t78 266.5t93.5 173t103.5 61.5q59 0 95 -82t36 -228q0 -139 -31 -254.5t-81 -201.5t-116.5 -136.5t-140.5 -54.5l-4 -43q127 -4 230.5 -96t169.5 -246q145 43 268 178q-10 72 -16.5 158t-6.5 186q0 254 29 477.5 t76 389.5t110.5 261t134.5 95q82 0 124 -113.5t42 -298.5q0 -166 -27.5 -328.5t-76.5 -315t-118.5 -286.5t-153.5 -241q31 -154 77.5 -222.5t89.5 -68.5q20 0 51 20.5t69 78t84 159t100 264.5q57 0 38 -75q-39 -158 -84 -267.5t-93 -180t-94 -102.5t-89 -32q-72 0 -136.5 78 t-105.5 244q-59 -57 -122.5 -99.5t-129.5 -66.5q25 -84 39.5 -176.5t14.5 -190.5q0 -141 -23.5 -254t-63.5 -190.5t-91.5 -118.5t-106.5 -41q-68 0 -127 63.5t-103 193.5t-70 329.5t-26 472.5q0 35 1 69.5t1 69.5q-18 55 -19 103.5t30 82.5l6 99q-8 4 -14.5 8t-14.5 8 q-35 23 -36 56.5zM37 152q0 -205 19.5 -372t53 -285t78.5 -182.5t99 -64.5q29 0 55.5 29t48 81t33.5 128t12 172q0 111 -17 206t-46 179q-92 -8 -175 17.5t-161 91.5zM39 324q14 -33 44 -62t67.5 -50.5t81.5 -34.5t90 -13q-63 123 -137 192.5t-142 61.5q-2 -23 -3 -46 t-1 -48zM61 664q53 6 99.5 49t80 113.5t53 165.5t19.5 206q0 90 -15 132t-38 42t-50.5 -50t-55 -142.5t-52 -223.5t-41.5 -292zM799 760q0 -162 12 -281q66 96 118 214t89 250t57.5 276.5t20.5 293.5q0 57 -6.5 106.5t-16.5 86.5t-24.5 58.5t-30.5 21.5q-31 0 -69 -79 t-71.5 -217t-56 -325.5t-22.5 -404.5z" />
</font>
</defs>
</svg>
